<svg width="487" height="887" viewBox="0 0 487 887" fill="none" xmlns="http://www.w3.org/2000/svg">
<path d="M296.643 101.8L295.344 103.844C295.445 103.615 295.536 103.388 295.635 103.159C296.072 102.402 296.512 101.643 296.959 100.882C296.851 101.188 296.75 101.494 296.643 101.8ZM289.783 114.714C289.43 115.242 289.068 115.773 288.719 116.299L288.821 116.084L290.03 114.095L289.783 114.714ZM294.722 107.361C293.934 108.522 293.179 109.669 292.393 110.828C292.641 110.228 292.907 109.624 293.156 109.023C293.864 107.889 294.605 106.741 295.331 105.599C295.13 106.186 294.92 106.775 294.722 107.361ZM282.35 127.862C282.045 128.302 281.764 128.732 281.461 129.171L281.467 129.16C281.788 128.656 282.124 128.144 282.449 127.637L282.35 127.862ZM287.453 120.591C286.721 121.629 285.979 122.672 285.257 123.706C285.472 123.235 285.679 122.765 285.895 122.293C286.661 121.118 287.387 119.96 288.165 118.78C287.93 119.383 287.683 119.989 287.453 120.591ZM292.93 112.86C291.878 114.321 290.866 115.763 289.833 117.216C290.128 116.466 290.427 115.717 290.727 114.966C291.695 113.515 292.681 112.056 293.659 110.602C293.413 111.355 293.173 112.108 292.93 112.86ZM379.017 696.321L378.744 695.813C378.713 695.426 378.679 695.04 378.646 694.654L378.858 695.126C378.912 695.524 378.963 695.923 379.017 696.321ZM274.209 141.612L273.887 142.069C274.024 141.862 274.152 141.658 274.288 141.451L274.209 141.612ZM279.714 133.894C279.01 134.857 278.329 135.81 277.642 136.766C277.827 136.391 278.004 136.018 278.19 135.642C278.874 134.627 279.576 133.604 280.261 132.588C280.073 133.025 279.899 133.457 279.714 133.894ZM285.344 126.233C284.319 127.628 283.286 129.026 282.27 130.416C282.605 129.651 282.956 128.879 283.295 128.111C284.24 126.742 285.213 125.36 286.187 123.976C285.905 124.729 285.623 125.482 285.344 126.233ZM291.2 118.378C289.934 120.046 288.688 121.705 287.46 123.356C287.777 122.515 288.077 121.68 288.399 120.837C289.609 119.13 290.795 117.431 292.007 115.721C291.729 116.608 291.471 117.492 291.2 118.378ZM379.597 700.737C379.413 700.442 379.222 700.149 379.037 699.854L378.916 698.149C379.067 698.436 379.224 698.721 379.374 699.009C379.448 699.585 379.525 700.161 379.597 700.737ZM381.198 703.341L380.845 702.762L380.707 701.601L380.968 702.108C381.045 702.519 381.125 702.93 381.198 703.341ZM382.659 705.753L382.612 705.672L382.549 705.306L382.659 705.753ZM271.374 147.657C270.715 148.559 270.043 149.467 269.376 150.372L270.083 149.03C270.694 148.151 271.34 147.256 271.967 146.368C271.767 146.799 271.573 147.227 271.374 147.657ZM277.213 139.854C276.205 141.172 275.189 142.493 274.218 143.792C274.518 143.155 274.847 142.509 275.152 141.871C276.15 140.466 277.132 139.069 278.132 137.663C277.829 138.392 277.513 139.126 277.213 139.854ZM283.313 131.856L279.551 136.788C279.922 135.907 280.282 135.03 280.659 134.147C281.81 132.558 283.006 130.948 284.191 129.343C283.888 130.184 283.61 131.017 283.313 131.856ZM289.559 123.84C288.097 125.684 286.629 127.532 285.226 129.348C285.568 128.398 285.938 127.441 286.289 126.489C287.685 124.606 289.042 122.741 290.458 120.849C290.16 121.845 289.848 122.845 289.559 123.84ZM380.105 705.031C379.838 704.661 379.575 704.29 379.305 703.921C379.263 703.227 379.224 702.533 379.178 701.841C379.409 702.212 379.631 702.585 379.86 702.956C379.941 703.647 380.026 704.338 380.105 705.031ZM381.921 707.559C381.717 707.269 381.508 706.981 381.301 706.691C381.239 706.128 381.175 705.565 381.11 705.002L381.633 705.876C381.73 706.437 381.828 706.997 381.921 707.559ZM383.652 710.049L383.253 709.475C383.19 709.085 383.129 708.695 383.063 708.306C383.165 708.48 383.268 708.653 383.37 708.827C383.462 709.235 383.559 709.641 383.652 710.049ZM385.244 712.387L385.159 712.261L385.061 711.799L385.079 711.831L385.244 712.387ZM262.556 161.647C261.942 162.455 261.314 163.269 260.713 164.071C260.857 163.809 261.009 163.544 261.156 163.282C261.821 162.348 262.468 161.422 263.136 160.485L262.556 161.647ZM268.575 153.741C267.594 155.023 266.635 156.294 265.657 157.574C265.976 156.945 266.273 156.323 266.595 155.692C267.536 154.396 268.513 153.083 269.476 151.777C269.181 152.43 268.866 153.09 268.575 153.741ZM274.889 145.657C273.65 147.222 272.401 148.792 271.204 150.335C271.57 149.529 271.945 148.721 272.319 147.913C273.522 146.29 274.688 144.686 275.914 143.053C275.565 143.924 275.231 144.789 274.889 145.657ZM281.361 137.444C279.884 139.305 278.445 141.147 276.982 143.001C277.37 142.039 277.761 141.075 278.159 140.11C279.534 138.289 280.944 136.452 282.347 134.617C282.024 135.559 281.678 136.505 281.361 137.444ZM288.073 129.163C286.433 131.166 284.777 133.177 283.201 135.148C283.549 134.137 283.904 133.124 284.261 132.11C285.797 130.116 287.347 128.116 288.923 126.101C288.634 127.123 288.354 128.143 288.073 129.163ZM380.556 709.24C380.22 708.837 379.88 708.436 379.541 708.034C379.499 707.235 379.451 706.437 379.404 705.639C379.709 706.06 380.014 706.481 380.315 706.904C380.397 707.682 380.476 708.461 380.556 709.24ZM382.589 711.717C382.295 711.357 382.003 710.997 381.71 710.638C381.64 709.95 381.567 709.264 381.495 708.576C381.757 708.949 382.015 709.323 382.274 709.696C382.381 710.369 382.484 711.044 382.589 711.717ZM384.54 714.146C384.305 713.849 384.076 713.55 383.839 713.254C383.755 712.696 383.665 712.139 383.579 711.582C383.785 711.884 383.984 712.189 384.188 712.492L384.54 714.146ZM386.391 716.502C386.242 716.309 386.088 716.118 385.939 715.926C385.857 715.526 385.769 715.129 385.685 714.73L386.056 715.289C386.167 715.693 386.282 716.097 386.391 716.502ZM388.117 718.772L387.98 718.592C387.936 718.421 387.894 718.25 387.848 718.08L387.908 718.174C387.976 718.374 388.049 718.572 388.117 718.772ZM253.358 175.728C252.736 176.531 252.171 177.304 251.56 178.101C251.657 177.933 251.745 177.769 251.843 177.6C252.463 176.747 253.105 175.883 253.731 175.028C253.609 175.26 253.478 175.496 253.358 175.728ZM259.521 167.867C258.592 169.051 257.65 170.241 256.736 171.417C257.052 170.826 257.36 170.238 257.68 169.645C258.598 168.407 259.491 167.184 260.43 165.935C260.116 166.583 259.831 167.22 259.521 167.867ZM266.057 159.548C264.768 161.165 263.548 162.747 262.278 164.354C262.674 163.541 263.098 162.718 263.5 161.903C264.676 160.347 265.878 158.778 267.068 157.216C266.726 157.995 266.391 158.771 266.057 159.548ZM272.628 151.448C271.186 153.219 269.736 154.994 268.331 156.745C268.735 155.823 269.114 154.912 269.527 153.987C270.911 152.19 272.318 150.381 273.746 148.562C273.374 149.524 272.99 150.489 272.628 151.448ZM279.58 142.902C277.899 144.944 276.282 146.954 274.63 148.98C275.024 147.958 275.434 146.931 275.839 145.906C277.397 143.921 278.969 141.929 280.545 139.934C280.218 140.925 279.899 141.913 279.58 142.902ZM286.652 134.454C284.844 136.605 283.026 138.76 281.27 140.884C281.62 139.82 281.951 138.761 282.31 137.695C283.989 135.591 285.73 133.453 287.473 131.317C287.191 132.364 286.925 133.409 286.652 134.454ZM380.968 713.434C380.554 712.999 380.145 712.562 379.726 712.129C379.69 711.261 379.656 710.393 379.614 709.525C379.987 709.973 380.356 710.422 380.726 710.871C380.811 711.725 380.89 712.579 380.968 713.434ZM383.196 715.791C382.827 715.394 382.451 714.998 382.078 714.601C382.01 713.828 381.947 713.054 381.874 712.281C382.202 712.687 382.538 713.09 382.864 713.496C382.98 714.26 383.088 715.026 383.196 715.791ZM385.356 718.142C385.036 717.789 384.711 717.44 384.389 717.089C384.296 716.42 384.205 715.749 384.109 715.081C384.397 715.447 384.688 715.812 384.974 716.179C385.106 716.832 385.227 717.488 385.356 718.142ZM387.437 720.47C387.178 720.177 386.919 719.883 386.657 719.59L386.337 717.949C386.566 718.249 386.793 718.551 387.02 718.851C387.162 719.39 387.3 719.93 387.437 720.47ZM389.418 722.732C389.239 722.524 389.066 722.315 388.886 722.108C388.787 721.714 388.683 721.322 388.582 720.929C388.733 721.133 388.88 721.34 389.028 721.544C389.158 721.94 389.291 722.335 389.418 722.732ZM391.244 724.874L391.063 724.661C391.006 724.478 390.952 724.295 390.895 724.112L391.003 724.262L391.244 724.874ZM243.595 190.347C243.103 190.98 242.604 191.618 242.109 192.253C242.253 192.012 242.392 191.773 242.537 191.532C243.016 190.887 243.513 190.232 244.005 189.581C243.862 189.839 243.734 190.09 243.595 190.347ZM250.121 182.055C249.201 183.197 248.294 184.332 247.403 185.459C247.671 184.981 247.946 184.5 248.215 184.021C249.122 182.821 250.041 181.615 250.946 180.417C250.666 180.965 250.397 181.508 250.121 182.055ZM256.666 173.939C255.441 175.458 254.205 176.983 252.99 178.496C253.419 177.666 253.858 176.83 254.296 175.996C255.431 174.521 256.622 173.017 257.804 171.518C257.426 172.324 257.037 173.135 256.666 173.939ZM263.521 165.517C262.066 167.28 260.644 169.024 259.222 170.768C259.637 169.888 260.041 169.013 260.463 168.13L264.647 162.799C264.263 163.708 263.897 164.611 263.521 165.517ZM270.566 157.059C268.907 159.043 267.249 161.029 265.619 162.998C266.066 161.939 266.546 160.867 267.004 159.804C268.512 157.912 270.099 155.977 271.669 154.053C271.298 155.056 270.927 156.059 270.566 157.059ZM277.844 148.4C276.014 150.552 274.221 152.684 272.435 154.814C272.819 153.775 273.184 152.742 273.58 151.701C275.327 149.547 277.055 147.403 278.821 145.239C278.487 146.295 278.167 147.346 277.844 148.4ZM285.307 139.703C283.333 141.994 281.364 144.283 279.432 146.55C279.784 145.423 280.167 144.286 280.532 143.156C282.344 140.953 284.253 138.7 286.139 136.458C285.862 137.54 285.573 138.624 285.307 139.703ZM376.321 713.105C351.54 691.398 321.166 671.864 290.207 651.962C176.621 578.947 55.2902 500.893 175.394 291.504M381.336 717.589C380.859 717.151 380.371 716.717 379.889 716.281C379.857 715.347 379.824 714.412 379.786 713.479C380.223 713.937 380.66 714.396 381.094 714.855C381.177 715.765 381.261 716.676 381.336 717.589ZM383.761 719.852C383.316 719.434 382.869 719.016 382.419 718.6C382.353 717.743 382.28 716.889 382.205 716.035C382.611 716.471 383.01 716.911 383.412 717.349C383.531 718.182 383.652 719.016 383.761 719.852ZM386.116 722.097C385.711 721.706 385.312 721.313 384.904 720.924C384.806 720.164 384.708 719.403 384.604 718.645C384.97 719.048 385.329 719.454 385.691 719.858C385.835 720.604 385.977 721.35 386.116 722.097ZM388.396 724.319C388.046 723.973 387.695 723.628 387.343 723.284C387.226 722.634 387.119 721.981 386.996 721.332C387.308 721.685 387.625 722.034 387.931 722.388C388.091 723.03 388.241 723.675 388.396 724.319ZM390.599 726.53C390.316 726.242 390.026 725.957 389.741 725.67L389.358 724.062C389.61 724.358 389.865 724.652 390.115 724.949L390.599 726.53ZM392.706 728.709L392.11 728.087C391.995 727.695 391.871 727.307 391.752 726.917L392.259 727.535C392.407 727.927 392.561 728.317 392.706 728.709ZM394.617 730.723L394.394 730.48L394.202 729.943L394.366 730.153C394.452 730.342 394.533 730.534 394.617 730.723ZM233.661 204.837C233.228 205.379 232.784 205.928 232.356 206.467L232.444 206.328C232.951 205.656 233.444 204.992 233.952 204.32L233.661 204.837ZM240.243 196.607C239.309 197.776 238.376 198.946 237.433 200.119C237.755 199.568 238.103 199.002 238.427 198.448C239.291 197.325 240.193 196.182 241.077 195.048C240.799 195.568 240.518 196.089 240.243 196.607ZM246.899 188.445C245.751 189.829 244.589 191.22 243.48 192.582C243.836 191.924 244.17 191.276 244.532 190.616C245.741 189.071 246.913 187.546 248.134 185.995C247.731 186.808 247.296 187.635 246.899 188.445ZM253.973 179.888L249.655 185.112C250.119 184.183 250.592 183.25 251.064 182.317C252.389 180.655 253.763 178.966 255.125 177.283C254.73 178.156 254.362 179.018 253.973 179.888ZM261.147 171.358C259.498 173.292 257.849 175.225 256.253 177.13C256.693 176.161 257.154 175.183 257.604 174.209C259.217 172.217 260.774 170.255 262.411 168.251C261.989 169.287 261.559 170.326 261.147 171.358ZM268.581 162.64C266.765 164.765 264.96 166.881 263.161 168.996C263.596 167.923 264.023 166.853 264.47 165.775C266.158 163.725 267.906 161.641 269.645 159.563C269.278 160.593 268.937 161.614 268.581 162.64ZM276.21 153.83C274.222 156.101 272.247 158.365 270.317 160.604C270.702 159.513 271.116 158.413 271.513 157.318C273.413 155.046 275.278 152.794 277.211 150.503C276.877 151.613 276.532 152.724 276.21 153.83ZM284.095 144.847C281.974 147.254 279.871 149.651 277.778 152.043C278.113 150.915 278.451 149.786 278.798 148.655C280.772 146.326 282.82 143.958 284.858 141.595C284.595 142.681 284.347 143.763 284.095 144.847ZM381.642 721.743C381.098 721.305 380.557 720.866 380.008 720.43C379.984 719.446 379.954 718.464 379.923 717.482C380.428 717.944 380.933 718.408 381.433 718.873C381.504 719.829 381.574 720.786 381.642 721.743ZM384.251 723.868C383.739 723.446 383.228 723.023 382.712 722.602C382.65 721.694 382.581 720.788 382.513 719.882C382.985 720.323 383.461 720.762 383.926 721.205C384.035 722.092 384.146 722.98 384.251 723.868ZM386.805 725.993C386.333 725.594 385.852 725.199 385.376 724.802C385.28 723.971 385.175 723.143 385.072 722.313C385.507 722.734 385.946 723.153 386.376 723.575C386.52 724.38 386.668 725.185 386.805 725.993ZM389.292 728.134C388.863 727.76 388.429 727.389 387.995 727.017C387.872 726.272 387.74 725.529 387.608 724.787C388.005 725.179 388.396 725.575 388.789 725.97C388.96 726.691 389.13 727.411 389.292 728.134ZM391.697 730.258C391.316 729.917 390.94 729.576 390.556 729.236C390.415 728.598 390.28 727.958 390.134 727.32C390.483 727.678 390.823 728.039 391.169 728.398C391.351 729.016 391.519 729.638 391.697 730.258ZM394.018 732.354C393.705 732.068 393.395 731.781 393.081 731.495C392.935 730.972 392.783 730.451 392.636 729.929C392.911 730.22 393.189 730.51 393.463 730.801C393.647 731.319 393.836 731.836 394.018 732.354ZM396.224 734.406C396.007 734.202 395.787 734 395.569 733.797C395.438 733.417 395.307 733.038 395.172 732.66C395.361 732.866 395.552 733.069 395.737 733.274C395.901 733.651 396.063 734.028 396.224 734.406ZM398.25 736.353L397.983 736.096L397.756 735.542L397.956 735.772L398.25 736.353ZM223.477 219.333L223.389 219.442L223.49 219.312L223.477 219.333ZM229.925 211.458C229.094 212.474 228.248 213.497 227.426 214.508C227.682 214.084 227.918 213.669 228.176 213.243C229.096 212.064 229.965 210.913 230.903 209.724C230.583 210.3 230.242 210.885 229.925 211.458ZM236.946 202.885C235.754 204.326 234.62 205.736 233.433 207.174C233.823 206.482 234.21 205.792 234.605 205.097C235.698 203.721 236.819 202.33 237.924 200.949C237.585 201.599 237.281 202.236 236.946 202.885ZM244.034 194.475C242.6 196.165 241.156 197.86 239.76 199.528C240.221 198.652 240.711 197.761 241.177 196.883C242.558 195.174 243.916 193.478 245.326 191.752C244.888 192.663 244.464 193.568 244.034 194.475ZM251.351 185.82C249.712 187.749 248.11 189.659 246.474 191.587C246.938 190.625 247.367 189.678 247.842 188.711C249.419 186.789 251.031 184.848 252.637 182.911C252.213 183.878 251.766 184.856 251.351 185.82ZM258.92 177.082C257.115 179.146 255.295 181.219 253.548 183.249C253.999 182.219 254.457 181.188 254.916 180.154C256.637 178.091 258.349 176.031 260.109 173.947C259.698 174.997 259.321 176.036 258.92 177.082ZM266.694 168.161C264.709 170.431 262.755 172.684 260.778 174.95C261.21 173.842 261.652 172.73 262.096 171.618C263.97 169.404 265.883 167.17 267.797 164.933C267.431 166.009 267.049 167.089 266.694 168.161ZM274.712 159.148C272.59 161.508 270.453 163.875 268.406 166.195C268.778 165.097 269.151 163.999 269.533 162.897C271.548 160.551 273.568 158.203 275.63 155.832C275.313 156.94 275.017 158.042 274.712 159.148ZM282.941 149.963C280.676 152.481 278.451 154.976 276.199 157.487C276.519 156.354 276.831 155.223 277.162 154.086C279.3 151.634 281.48 149.159 283.666 146.681C283.416 147.776 283.179 148.869 282.941 149.963ZM381.91 725.889C381.305 725.46 380.692 725.036 380.08 724.609C380.065 723.588 380.057 722.566 380.037 721.546C380.602 721.997 381.168 722.449 381.726 722.902C381.793 723.896 381.851 724.893 381.91 725.889ZM384.7 727.881C384.125 727.465 383.54 727.052 382.96 726.638C382.904 725.683 382.856 724.727 382.796 723.774C383.336 724.217 383.868 724.664 384.404 725.109C384.508 726.032 384.603 726.957 384.7 727.881ZM387.436 729.897C386.891 729.491 386.345 729.086 385.795 728.682C385.703 727.799 385.612 726.915 385.515 726.033C386.025 726.462 386.524 726.895 387.029 727.327C387.168 728.182 387.303 729.04 387.436 729.897ZM390.118 731.919C389.607 731.529 389.102 731.136 388.587 730.748C388.463 729.944 388.333 729.142 388.205 728.34C388.672 728.745 389.14 729.149 389.602 729.557C389.776 730.343 389.952 731.13 390.118 731.919ZM392.72 733.928C392.262 733.569 391.798 733.211 391.335 732.853C391.186 732.131 391.03 731.411 390.873 730.691C391.296 731.07 391.724 731.446 392.144 731.826C392.339 732.526 392.531 733.227 392.72 733.928ZM395.24 735.938C394.838 735.612 394.426 735.29 394.022 734.966C393.858 734.347 393.702 733.725 393.534 733.107C393.904 733.448 394.272 733.791 394.638 734.133C394.842 734.733 395.041 735.336 395.24 735.938ZM397.688 737.953C397.351 737.671 397.014 737.39 396.672 737.109C396.504 736.593 396.328 736.078 396.157 735.562C396.462 735.855 396.761 736.15 397.064 736.443C397.272 736.946 397.485 737.448 397.688 737.953ZM399.982 739.886C399.738 739.677 399.501 739.465 399.256 739.257C399.112 738.89 398.977 738.52 398.83 738.154C399.046 738.368 399.254 738.585 399.468 738.799C399.644 739.159 399.809 739.524 399.982 739.886ZM402.109 741.729L401.808 741.469C401.72 741.277 401.627 741.088 401.538 740.896C401.613 740.974 401.69 741.049 401.765 741.127L402.109 741.729ZM212.608 234.572L211.439 236.016L211.511 235.905C211.915 235.386 212.347 234.851 212.759 234.327L212.608 234.572ZM219.453 226.206C218.707 227.095 217.947 227.992 217.226 228.867L217.737 228.041C218.522 227.048 219.315 226.051 220.091 225.065C219.871 225.449 219.672 225.822 219.453 226.206ZM226.513 217.767C225.365 219.142 224.203 220.524 223.058 221.897C223.5 221.138 223.965 220.369 224.412 219.606C225.454 218.315 226.548 216.993 227.628 215.678C227.249 216.379 226.888 217.069 226.513 217.767ZM233.798 209.115C232.342 210.82 230.94 212.495 229.511 214.184C229.957 213.369 230.407 212.552 230.86 211.734C232.262 210.02 233.672 208.302 235.074 206.59C234.648 207.432 234.216 208.277 233.798 209.115ZM241.167 200.577C239.569 202.424 237.963 204.276 236.393 206.107C236.892 205.124 237.374 204.148 237.884 203.159C239.4 201.334 240.967 199.482 242.536 197.628C242.078 198.611 241.616 199.597 241.167 200.577ZM248.948 191.582C247.088 193.709 245.311 195.789 243.475 197.903C243.963 196.855 244.478 195.795 244.977 194.743C246.708 192.691 248.446 190.637 250.19 188.578C249.765 189.584 249.361 190.58 248.948 191.582ZM256.756 182.794C254.796 184.99 252.83 187.191 250.923 189.358C251.381 188.269 251.822 187.187 252.292 186.093C254.163 183.907 256.084 181.694 258.014 179.476C257.599 180.58 257.158 181.694 256.756 182.794ZM264.961 173.557C262.801 175.969 260.727 178.331 258.587 180.732C259.007 179.606 259.44 178.475 259.872 177.343C261.898 175.012 263.93 172.677 265.981 170.332C265.629 171.411 265.302 172.482 264.961 173.557ZM273.268 164.447C271.011 166.909 268.741 169.38 266.554 171.803C266.915 170.677 267.269 169.553 267.645 168.423C269.786 165.991 271.976 163.532 274.18 161.064C273.872 162.193 273.563 163.321 273.268 164.447ZM281.858 155.037C279.452 157.662 277.106 160.252 274.706 162.871C275.014 161.719 275.348 160.56 275.667 159.404C277.955 156.844 280.249 154.28 282.57 151.702C282.333 152.814 282.085 153.927 281.858 155.037ZM382.143 730.049C381.472 729.635 380.799 729.223 380.123 728.811C380.119 727.748 380.108 726.686 380.094 725.625C380.724 726.067 381.346 726.513 381.972 726.958C382.032 727.988 382.092 729.018 382.143 730.049ZM385.109 731.916C384.464 731.506 383.825 731.095 383.174 730.688C383.129 729.693 383.076 728.7 383.021 727.707C383.622 728.14 384.224 728.573 384.818 729.008C384.919 729.975 385.017 730.945 385.109 731.916ZM388.018 733.79C387.406 733.39 386.795 732.991 386.176 732.594C386.092 731.668 386.007 730.742 385.914 729.817C386.485 730.239 387.061 730.658 387.625 731.083C387.761 731.983 387.889 732.886 388.018 733.79ZM390.873 735.671C390.299 735.287 389.714 734.907 389.136 734.525C389.017 733.67 388.902 732.814 388.776 731.961C389.315 732.369 389.85 732.779 390.382 733.191C390.549 734.017 390.711 734.844 390.873 735.671ZM393.681 737.591C393.142 737.219 392.596 736.848 392.053 736.478C391.902 735.691 391.743 734.906 391.586 734.12C392.091 734.516 392.584 734.916 393.083 735.314C393.285 736.073 393.489 736.829 393.681 737.591ZM396.388 739.494C395.897 739.145 395.412 738.793 394.915 738.447C394.743 737.746 394.565 737.048 394.384 736.351C394.842 736.722 395.297 737.095 395.751 737.468C395.969 738.142 396.177 738.819 396.388 739.494ZM399.024 741.396C398.59 741.077 398.158 740.758 397.72 740.441C397.535 739.841 397.351 739.239 397.163 738.64C397.554 738.967 397.951 739.29 398.338 739.618C398.567 740.21 398.8 740.802 399.024 741.396ZM401.562 743.277C401.211 743.013 400.851 742.752 400.499 742.489C400.313 741.989 400.119 741.492 399.927 740.994C400.253 741.277 400.583 741.559 400.907 741.843C401.128 742.32 401.346 742.799 401.562 743.277ZM403.971 745.138L403.192 744.534C403.033 744.174 402.874 743.813 402.713 743.453L403.401 744.075L403.971 745.138ZM406.217 746.914L405.857 746.622L405.576 746.08L405.868 746.358L406.217 746.914ZM208.729 241.077C207.972 241.977 207.221 242.872 206.482 243.76L207.072 242.839C207.811 241.916 208.58 240.977 209.332 240.048C209.127 240.393 208.933 240.733 208.729 241.077ZM215.843 232.649C214.675 234.035 213.493 235.431 212.325 236.817C212.712 236.174 213.136 235.511 213.528 234.866C214.701 233.426 215.83 232.011 217.008 230.567C216.618 231.262 216.228 231.957 215.843 232.649ZM223.117 224.13C221.762 225.695 220.406 227.259 219.09 228.8C219.534 228.018 219.951 227.249 220.4 226.463C221.725 224.862 223.101 223.233 224.462 221.612C224.021 222.448 223.549 223.298 223.117 224.13ZM230.77 215.285C229.157 217.146 227.554 219.002 225.948 220.858C226.445 219.919 226.95 218.977 227.456 218.034C229.015 216.178 230.535 214.345 232.1 212.486C231.638 213.428 231.222 214.348 230.77 215.285ZM238.554 206.442C236.734 208.489 234.901 210.543 233.137 212.559C233.65 211.51 234.21 210.44 234.736 209.386C236.422 207.409 238.176 205.394 239.916 203.386C239.457 204.407 239.004 205.426 238.554 206.442ZM246.553 197.414C244.567 199.636 242.655 201.817 240.697 204.024C241.174 202.96 241.627 201.907 242.116 200.838C244.046 198.607 245.944 196.395 247.882 194.159C247.441 195.243 246.983 196.335 246.553 197.414ZM254.809 188.296C252.679 190.639 250.544 192.986 248.466 195.298C248.929 194.152 249.419 192.996 249.894 191.845C251.864 189.598 253.923 187.301 255.963 185.015C255.569 186.113 255.194 187.203 254.809 188.296ZM263.254 179.025C260.978 181.503 258.752 183.954 256.521 186.408C256.919 185.289 257.296 184.179 257.707 183.055C259.911 180.576 262.088 178.113 264.307 175.627C263.956 176.759 263.592 177.896 263.254 179.025ZM271.958 169.618C269.552 172.208 267.155 174.793 264.798 177.355C265.159 176.179 265.544 174.995 265.917 173.815C268.157 171.328 270.491 168.786 272.81 166.254C272.522 167.377 272.234 168.499 271.958 169.618ZM280.876 160.078C278.349 162.764 275.837 165.44 273.369 168.092C273.655 166.962 273.933 165.833 274.229 164.7C276.666 162.034 279.07 159.386 281.524 156.71C281.298 157.835 281.09 158.956 280.876 160.078ZM382.313 734.214C381.583 733.817 380.854 733.42 380.117 733.026C380.124 731.939 380.123 730.853 380.122 729.768C380.811 730.189 381.502 730.609 382.182 731.033C382.229 732.093 382.273 733.152 382.313 734.214ZM385.462 735.942C384.759 735.55 384.05 735.161 383.341 734.773C383.305 733.743 383.26 732.716 383.215 731.688C383.879 732.107 384.541 732.526 385.199 732.947C385.29 733.945 385.381 734.942 385.462 735.942ZM388.554 737.684C387.883 737.3 387.201 736.921 386.523 736.54C386.446 735.569 386.357 734.6 386.268 733.632C386.908 734.046 387.538 734.465 388.172 734.883C388.302 735.815 388.433 736.748 388.554 737.684ZM391.58 739.451C390.938 739.072 390.293 738.693 389.643 738.317C389.53 737.417 389.411 736.516 389.289 735.618C389.899 736.025 390.502 736.435 391.105 736.844C391.27 737.711 391.423 738.581 391.58 739.451ZM394.557 741.234C393.944 740.861 393.337 740.486 392.717 740.116C392.57 739.292 392.43 738.468 392.279 737.647C392.846 738.037 393.416 738.425 393.977 738.817C394.173 739.622 394.368 740.427 394.557 741.234ZM397.464 743.022C396.899 742.668 396.329 742.317 395.76 741.966C395.583 741.207 395.398 740.453 395.214 739.697C395.744 740.072 396.277 740.445 396.799 740.823C397.025 741.555 397.249 742.287 397.464 743.022ZM400.28 744.808C399.768 744.477 399.245 744.152 398.728 743.824C398.534 743.15 398.342 742.475 398.14 741.803C398.625 742.158 399.105 742.514 399.584 742.872C399.821 743.516 400.049 744.162 400.28 744.808ZM403.048 746.632C402.586 746.324 402.124 746.017 401.657 745.711C401.449 745.12 401.234 744.532 401.022 743.944C401.451 744.27 401.87 744.602 402.295 744.93C402.547 745.496 402.803 746.062 403.048 746.632ZM405.667 748.408C405.283 748.143 404.908 747.876 404.521 747.613C404.323 747.141 404.131 746.665 403.928 746.195C404.278 746.47 404.622 746.747 404.97 747.024C405.207 747.484 405.434 747.947 405.667 748.408ZM408.184 750.159C407.907 749.961 407.623 749.767 407.343 749.569C407.17 749.219 406.988 748.871 406.814 748.52C407.059 748.721 407.311 748.919 407.555 749.121C407.763 749.468 407.979 749.811 408.184 750.159ZM410.48 751.827L410.092 751.546L409.793 751.02L410.119 751.296C410.24 751.472 410.359 751.65 410.48 751.827ZM197.648 256.198C196.903 257.074 196.141 257.959 195.415 258.824C195.652 258.462 195.905 258.09 196.141 257.727C196.863 256.838 197.62 255.928 198.359 255.028L197.648 256.198ZM204.818 247.763L201.529 251.631C201.895 251.038 202.235 250.461 202.604 249.866C203.742 248.483 204.868 247.107 206.013 245.721C205.62 246.399 205.205 247.088 204.818 247.763ZM212.259 239.138C210.931 240.66 209.59 242.187 208.298 243.689C208.767 242.885 209.233 242.084 209.709 241.276C210.974 239.764 212.281 238.227 213.575 236.698C213.126 237.516 212.698 238.324 212.259 239.138ZM220.039 230.201C218.395 232.078 216.801 233.924 215.172 235.791C215.706 234.821 216.273 233.833 216.816 232.858C218.364 231.034 219.878 229.229 221.453 227.389C220.971 228.332 220.513 229.263 220.039 230.201ZM227.868 221.394C226.081 223.395 224.287 225.401 222.539 227.379C223.058 226.368 223.555 225.366 224.083 224.35C225.821 222.33 227.591 220.293 229.358 218.257C228.863 219.302 228.352 220.354 227.868 221.394ZM236.008 212.293C234.031 214.484 232.105 216.646 230.162 218.818C230.682 217.719 231.198 216.621 231.732 215.515C233.589 213.388 235.472 211.245 237.375 209.09C236.91 210.163 236.461 211.227 236.008 212.293ZM244.359 203.116C242.217 205.462 240.083 207.804 237.978 210.129C238.471 208.986 239.01 207.823 239.516 206.675C241.553 204.371 243.595 202.065 245.654 199.749C245.214 200.874 244.785 201.995 244.359 203.116ZM252.892 193.831C250.632 196.272 248.39 198.702 246.181 201.113C246.629 199.958 247.052 198.813 247.513 197.652C249.647 195.269 251.862 192.841 254.063 190.42C253.67 191.558 253.273 192.698 252.892 193.831ZM261.712 184.335C259.296 186.925 256.915 189.496 254.529 192.069C254.928 190.896 255.36 189.711 255.773 188.534C258.085 185.985 260.361 183.459 262.712 180.89C262.371 182.04 262.039 183.188 261.712 184.335ZM270.72 174.782C268.198 177.438 265.668 180.098 263.216 182.714C263.552 181.563 263.872 180.417 264.219 179.262C266.609 176.66 269.059 174.022 271.51 171.384C271.234 172.52 270.984 173.649 270.72 174.782ZM279.957 165.04C277.291 167.833 274.703 170.581 272.07 173.355C272.346 172.192 272.633 171.026 272.921 169.859C275.45 167.14 277.993 164.414 280.573 161.665C280.362 162.791 280.157 163.916 279.957 165.04ZM382.438 738.386C381.652 738.013 380.859 737.646 380.065 737.277C380.082 736.162 380.106 735.047 380.117 733.934C380.866 734.337 381.608 734.743 382.351 735.148C382.387 736.226 382.411 737.306 382.438 738.386ZM385.757 739.981C384.995 739.61 384.227 739.243 383.457 738.875C383.431 737.819 383.412 736.761 383.378 735.707C384.106 736.108 384.822 736.513 385.542 736.916C385.62 737.936 385.687 738.959 385.757 739.981ZM389.028 741.602C388.288 741.231 387.549 740.859 386.802 740.491C386.736 739.496 386.664 738.502 386.592 737.508C387.289 737.903 387.986 738.299 388.676 738.698C388.796 739.665 388.917 740.633 389.028 741.602ZM392.236 743.235C391.529 742.87 390.822 742.503 390.106 742.141C390.001 741.204 389.883 740.269 389.766 739.336C390.435 739.726 391.106 740.113 391.767 740.506C391.927 741.414 392.086 742.323 392.236 743.235ZM395.376 744.877C394.705 744.519 394.023 744.166 393.344 743.811C393.203 742.938 393.059 742.066 392.908 741.196C393.551 741.583 394.192 741.972 394.828 742.363C395.019 743.199 395.195 744.039 395.376 744.877ZM398.468 746.551C397.831 746.2 397.182 745.853 396.537 745.506C396.365 744.699 396.192 743.892 396.012 743.087C396.617 743.463 397.208 743.845 397.806 744.224C398.029 744.999 398.256 745.773 398.468 746.551ZM401.47 748.234C400.877 747.897 400.285 747.56 399.687 747.226C399.488 746.49 399.278 745.758 399.07 745.025C399.635 745.388 400.192 745.755 400.751 746.12C400.998 746.823 401.233 747.529 401.47 748.234ZM404.413 749.933C403.863 749.609 403.318 749.285 402.761 748.964C402.547 748.317 402.337 747.669 402.116 747.024C402.619 747.359 403.126 747.69 403.624 748.027C403.887 748.662 404.156 749.295 404.413 749.933ZM407.244 751.614C406.772 751.327 406.289 751.045 405.813 750.761C405.588 750.192 405.353 749.627 405.119 749.062C405.57 749.373 406.021 749.683 406.466 749.996C406.731 750.533 406.986 751.074 407.244 751.614ZM409.988 753.314C409.587 753.061 409.178 752.812 408.774 752.561C408.557 752.099 408.34 751.636 408.121 751.175C408.491 751.442 408.86 751.71 409.228 751.978C409.481 752.423 409.738 752.867 409.988 753.314ZM412.58 754.975C412.286 754.784 411.993 754.591 411.696 754.401C411.511 754.062 411.328 753.723 411.141 753.386C411.418 753.594 411.689 753.805 411.965 754.015C412.175 754.333 412.373 754.656 412.58 754.975ZM414.971 756.546C414.823 756.447 414.682 756.346 414.533 756.247C414.423 756.072 414.309 755.899 414.198 755.723C414.325 755.823 414.446 755.925 414.573 756.025C414.705 756.199 414.84 756.372 414.971 756.546ZM186.224 271.545C185.521 272.369 184.803 273.203 184.109 274.021C184.314 273.712 184.5 273.414 184.705 273.105C185.432 272.218 186.195 271.311 186.937 270.415C186.703 270.79 186.457 271.171 186.224 271.545ZM193.54 262.982C192.496 264.195 191.494 265.382 190.458 266.589C190.83 266.003 191.19 265.421 191.565 264.832C192.609 263.578 193.626 262.341 194.675 261.082C194.3 261.714 193.912 262.353 193.54 262.982ZM201.173 254.226C199.829 255.76 198.473 257.302 197.151 258.824C197.641 258.01 198.151 257.184 198.648 256.365C199.908 254.873 201.203 253.361 202.482 251.857C202.034 252.653 201.614 253.433 201.173 254.226ZM208.989 245.325C207.347 247.176 205.752 249 204.138 250.834C204.677 249.884 205.246 248.917 205.795 247.962C207.348 246.148 208.893 244.339 210.478 242.507C209.977 243.448 209.479 244.389 208.989 245.325ZM216.868 236.509C215.122 238.46 213.372 240.413 211.645 242.352C212.182 241.344 212.692 240.349 213.241 239.336C214.969 237.345 216.715 235.343 218.46 233.343C217.938 234.394 217.378 235.463 216.868 236.509ZM225.169 227.318C223.204 229.473 221.253 231.622 219.334 233.75C219.883 232.643 220.45 231.526 221.013 230.413C222.832 228.346 224.704 226.248 226.575 224.152C226.087 225.216 225.644 226.259 225.169 227.318ZM233.607 218.073C231.47 220.405 229.361 222.722 227.246 225.042C227.763 223.906 228.299 222.762 228.832 221.62C230.898 219.302 232.924 217.008 235.019 214.675C234.543 215.809 234.068 216.944 233.607 218.073ZM242.236 208.769C239.99 211.172 237.734 213.583 235.549 215.951C236.024 214.807 236.488 213.667 236.976 212.516C239.115 210.149 241.309 207.75 243.498 205.351C243.07 206.494 242.651 207.632 242.236 208.769ZM251.145 199.221C248.707 201.814 246.339 204.367 243.94 206.938C244.379 205.751 244.865 204.544 245.32 203.35C247.618 200.837 249.915 198.325 252.258 195.786C251.881 196.933 251.509 198.078 251.145 199.221ZM260.233 189.64C257.711 192.289 255.197 194.933 252.729 197.551C253.105 196.388 253.469 195.23 253.86 194.061C256.277 191.449 258.714 188.826 261.173 186.19C260.849 187.343 260.544 188.49 260.233 189.64ZM269.541 179.903C266.885 182.664 264.264 185.404 261.662 188.132C261.989 186.949 262.338 185.758 262.678 184.57C265.192 181.883 267.759 179.166 270.338 176.442C270.074 177.596 269.793 178.754 269.541 179.903ZM279.108 169.998C276.337 172.853 273.61 175.684 270.884 178.513C271.144 177.35 271.417 176.183 271.689 175.016C274.358 172.197 276.99 169.402 279.697 166.561C279.497 167.708 279.296 168.854 279.108 169.998ZM382.525 742.585C381.68 742.237 380.832 741.89 379.979 741.547C380.009 740.407 380.031 739.27 380.051 738.134C380.857 738.512 381.662 738.891 382.46 739.273C382.488 740.375 382.51 741.479 382.525 742.585ZM386.01 744.045C385.185 743.696 384.367 743.342 383.535 742.996C383.521 741.917 383.502 740.839 383.478 739.762C384.26 740.138 385.047 740.512 385.821 740.893C385.889 741.942 385.952 742.993 386.01 744.045ZM389.442 745.523C388.646 745.174 387.847 744.826 387.041 744.482C386.986 743.458 386.93 742.435 386.866 741.414C387.627 741.791 388.388 742.168 389.139 742.548C389.248 743.537 389.342 744.531 389.442 745.523ZM392.828 747.02C392.06 746.673 391.279 746.332 390.502 745.99C390.407 745.022 390.31 744.054 390.208 743.088C390.941 743.463 391.665 743.842 392.39 744.221C392.54 745.152 392.689 746.084 392.828 747.02ZM396.143 748.544C395.408 748.202 394.667 747.862 393.924 747.523C393.791 746.611 393.643 745.703 393.497 744.795C394.205 745.168 394.904 745.546 395.603 745.922C395.789 746.794 395.967 747.668 396.143 748.544ZM399.398 750.089C398.688 749.747 397.985 749.404 397.267 749.067C397.103 748.227 396.939 747.387 396.764 746.55C397.433 746.914 398.102 747.278 398.763 747.646C398.979 748.458 399.19 749.273 399.398 750.089ZM402.588 751.65C401.92 751.318 401.252 750.985 400.577 750.656C400.381 749.878 400.177 749.103 399.972 748.329C400.601 748.682 401.234 749.034 401.855 749.391C402.104 750.143 402.351 750.895 402.588 751.65ZM405.693 753.214C405.076 752.896 404.446 752.584 403.822 752.27C403.603 751.563 403.384 750.855 403.156 750.151C403.747 750.496 404.333 750.843 404.917 751.191C405.181 751.863 405.436 752.539 405.693 753.214ZM408.736 754.817C408.169 754.514 407.595 754.214 407.022 753.914C406.784 753.277 406.536 752.644 406.292 752.009C406.833 752.337 407.362 752.672 407.898 753.004C408.181 753.607 408.462 754.21 408.736 754.817ZM411.668 756.415C411.16 756.135 410.657 755.852 410.144 755.573C409.905 755.032 409.673 754.488 409.428 753.95C409.899 754.248 410.365 754.548 410.832 754.848C411.114 755.369 411.391 755.891 411.668 756.415ZM414.497 758.006C414.075 757.765 413.656 757.521 413.232 757.281C413.001 756.833 412.757 756.391 412.52 755.946C412.909 756.201 413.305 756.452 413.69 756.708C413.961 757.14 414.231 757.572 414.497 758.006ZM417.163 759.558C416.857 759.375 416.54 759.197 416.232 759.015C416.038 758.694 415.848 758.372 415.653 758.052C415.934 758.245 416.219 758.436 416.497 758.629C416.72 758.939 416.943 759.248 417.163 759.558ZM419.663 761.081L419.202 760.799C419.093 760.64 418.988 760.478 418.877 760.32L419.292 760.619C419.419 760.771 419.536 760.928 419.663 761.081ZM174.501 287.068C173.923 287.746 173.331 288.431 172.752 289.109C172.945 288.822 173.131 288.54 173.327 288.253C173.926 287.528 174.549 286.788 175.156 286.06C174.943 286.392 174.712 286.736 174.501 287.068ZM182.157 278.179C181.129 279.355 180.126 280.516 179.119 281.681C179.486 281.116 179.859 280.546 180.229 279.978C181.242 278.77 182.206 277.593 183.233 276.377C182.863 276.983 182.522 277.574 182.157 278.179ZM189.82 269.439C188.448 271.007 187.063 272.581 185.693 274.146C186.192 273.334 186.74 272.496 187.247 271.68C188.547 270.154 189.871 268.614 191.178 267.082C190.72 267.871 190.272 268.654 189.82 269.439ZM197.626 260.638C196.077 262.365 194.524 264.093 193.017 265.795C193.536 264.907 194.016 264.039 194.543 263.146C196.069 261.379 197.63 259.591 199.196 257.8C198.678 258.743 198.135 259.7 197.626 260.638ZM205.732 251.592C203.961 253.559 202.226 255.506 200.47 257.464C201.028 256.45 201.587 255.436 202.157 254.416C203.864 252.465 205.55 250.527 207.274 248.567C206.751 249.579 206.244 250.585 205.732 251.592ZM214.056 242.462C212.091 244.604 210.119 246.75 208.201 248.864C208.771 247.76 209.386 246.633 209.968 245.522C211.799 243.457 213.684 241.362 215.56 239.271C215.045 240.341 214.556 241.398 214.056 242.462ZM222.556 233.199C220.432 235.496 218.361 237.762 216.272 240.039C216.804 238.928 217.297 237.836 217.842 236.719C219.905 234.421 221.96 232.129 224.063 229.809C223.563 230.938 223.043 232.076 222.556 233.199ZM231.309 223.812C229.055 226.223 226.806 228.629 224.591 231.017C225.099 229.86 225.615 228.7 226.138 227.536C228.282 225.178 230.45 222.806 232.629 220.427C232.172 221.563 231.752 222.683 231.309 223.812ZM240.271 214.29C237.86 216.835 235.466 219.368 233.11 221.882C233.582 220.693 234.086 219.491 234.575 218.297C236.85 215.824 239.174 213.324 241.507 210.817C241.09 211.977 240.674 213.136 240.271 214.29ZM249.46 204.614C246.932 207.264 244.442 209.893 241.947 212.526C242.364 211.349 242.771 210.178 243.203 208.996C245.642 206.376 248.049 203.775 250.523 201.135C250.157 202.299 249.812 203.455 249.46 204.614ZM258.848 194.872C256.203 197.6 253.545 200.337 250.972 203.023C251.337 201.837 251.732 200.641 252.112 199.451C254.621 196.786 257.199 194.081 259.773 191.378C259.463 192.543 259.143 193.711 258.848 194.872ZM268.502 184.91C265.721 187.761 263.008 190.575 260.268 193.402C260.575 192.227 260.884 191.051 261.204 189.871C263.858 187.084 266.507 184.3 269.21 181.485C268.965 182.629 268.735 183.768 268.502 184.91ZM278.344 174.894C275.468 177.81 272.606 180.717 269.794 183.595C270.035 182.442 270.259 181.294 270.51 180.138C273.264 177.275 276.046 174.396 278.856 171.5C278.674 172.633 278.516 173.762 278.344 174.894ZM382.56 746.801C381.655 746.479 380.753 746.156 379.842 745.837C379.885 744.681 379.92 743.526 379.953 742.372C380.817 742.721 381.68 743.07 382.533 743.424C382.546 744.549 382.558 745.674 382.56 746.801ZM386.219 748.123C385.34 747.8 384.454 747.48 383.568 747.161C383.566 746.054 383.554 744.951 383.541 743.847C384.384 744.2 385.219 744.555 386.055 744.912C386.114 745.981 386.174 747.05 386.219 748.123ZM389.812 749.459C388.962 749.136 388.097 748.821 387.24 748.503C387.197 747.449 387.142 746.399 387.087 745.348C387.911 745.703 388.72 746.064 389.534 746.423C389.633 747.433 389.724 748.446 389.812 749.459ZM393.356 750.833C392.526 750.508 391.693 750.184 390.855 749.863C390.773 748.871 390.689 747.879 390.594 746.89C391.389 747.243 392.179 747.599 392.967 747.957C393.102 748.914 393.229 749.873 393.356 750.833ZM396.856 752.232C396.047 751.904 395.245 751.573 394.427 751.249C394.306 750.316 394.178 749.385 394.05 748.455C394.811 748.805 395.577 749.152 396.33 749.506C396.51 750.413 396.69 751.32 396.856 752.232ZM400.267 753.636C399.5 753.314 398.728 752.994 397.953 752.677C397.795 751.797 397.628 750.921 397.458 750.047C398.197 750.397 398.931 750.75 399.661 751.104C399.87 751.945 400.067 752.791 400.267 753.636ZM403.631 755.066C402.899 754.747 402.15 754.436 401.41 754.121C401.219 753.306 401.033 752.489 400.835 751.676C401.535 752.021 402.223 752.371 402.915 752.72C403.156 753.501 403.401 754.281 403.631 755.066ZM406.91 756.527C406.221 756.216 405.527 755.907 404.829 755.599C404.61 754.843 404.378 754.091 404.148 753.339C404.816 753.68 405.476 754.027 406.137 754.373C406.403 755.088 406.655 755.808 406.91 756.527ZM410.137 758.012C409.48 757.705 408.83 757.393 408.165 757.089C407.929 756.414 407.694 755.736 407.45 755.064C408.058 755.386 408.668 755.709 409.27 756.035C409.561 756.693 409.856 757.35 410.137 758.012ZM413.245 759.492C412.655 759.205 412.064 758.92 411.468 758.636C411.215 758.028 410.955 757.424 410.691 756.82C411.255 757.131 411.824 757.44 412.382 757.754C412.677 758.33 412.955 758.912 413.245 759.492ZM416.288 760.992C415.762 760.727 415.223 760.468 414.693 760.205C414.437 759.681 414.175 759.158 413.914 758.635C414.407 758.92 414.899 759.206 415.388 759.493C415.688 759.993 415.996 760.489 416.288 760.992ZM419.183 762.493C418.744 762.263 418.304 762.034 417.86 761.806C417.618 761.379 417.383 760.95 417.136 760.526C417.551 760.775 417.958 761.03 418.37 761.282C418.645 761.684 418.913 762.089 419.183 762.493ZM421.97 763.985C421.636 763.803 421.309 763.618 420.973 763.437C420.764 763.118 420.547 762.804 420.334 762.487C420.65 762.686 420.954 762.889 421.265 763.089C421.5 763.388 421.739 763.685 421.97 763.985ZM424.46 765.355C424.305 765.267 424.143 765.182 423.987 765.094L423.635 764.624C423.772 764.714 423.914 764.803 424.05 764.893L424.46 765.355ZM162.881 302.309L161.115 304.365L161.624 303.628C162.201 302.936 162.792 302.235 163.37 301.542C163.202 301.801 163.048 302.052 162.881 302.309ZM170.471 293.589C169.447 294.753 168.409 295.927 167.405 297.079C167.793 296.491 168.209 295.887 168.6 295.297C169.575 294.145 170.568 292.982 171.567 291.816C171.196 292.41 170.838 292.997 170.471 293.589ZM178.214 284.775C176.857 286.307 175.553 287.807 174.211 289.331C174.665 288.609 175.078 287.912 175.538 287.187C176.895 285.606 178.24 284.029 179.607 282.442C179.145 283.218 178.67 284.002 178.214 284.775ZM186.022 276.06C184.525 277.727 183.016 279.4 181.541 281.052C182.086 280.144 182.617 279.242 183.171 278.328C184.629 276.652 186.133 274.949 187.623 273.254C187.096 274.185 186.54 275.133 186.022 276.06ZM194.322 266.857C192.538 268.817 190.79 270.756 189.04 272.696C189.617 271.678 190.224 270.643 190.814 269.618C192.493 267.713 194.152 265.819 195.861 263.896C195.332 264.892 194.844 265.866 194.322 266.857ZM202.696 257.71C200.733 259.85 198.772 261.988 196.833 264.114C197.413 263.028 198.011 261.932 198.604 260.839C200.483 258.733 202.389 256.613 204.294 254.492C203.756 255.568 203.222 256.641 202.696 257.71ZM211.211 248.513C209.141 250.731 207.072 252.947 205.055 255.134C205.611 254.018 206.144 252.914 206.714 251.792C208.714 249.579 210.762 247.338 212.816 245.094C212.29 246.229 211.725 247.384 211.211 248.513ZM220.134 238.951C217.849 241.386 215.622 243.785 213.368 246.202C213.907 245.033 214.477 243.85 215.03 242.674C217.198 240.306 219.333 237.956 221.53 235.571C221.046 236.706 220.604 237.822 220.134 238.951ZM229.127 229.476C226.741 231.979 224.348 234.487 222.02 236.955C222.516 235.78 223.01 234.607 223.521 233.425C225.801 230.962 228.143 228.462 230.48 225.966C230.028 227.136 229.564 228.312 229.127 229.476ZM238.408 219.753C235.875 222.389 233.389 224.997 230.903 227.606C231.357 226.419 231.811 225.23 232.279 224.037C234.687 221.464 237.102 218.888 239.56 216.286C239.161 217.448 238.793 218.597 238.408 219.753ZM247.871 209.963C245.22 212.695 242.588 215.418 239.985 218.121C240.389 216.927 240.816 215.724 241.235 214.523C243.775 211.84 246.335 209.146 248.918 206.437C248.567 207.613 248.208 208.792 247.871 209.963ZM257.585 200.013C254.823 202.827 252.07 205.636 249.371 208.412C249.718 207.225 250.068 206.038 250.43 204.845C253.047 202.11 255.728 199.337 258.411 196.561C258.122 197.717 257.863 198.862 257.585 200.013ZM267.5 189.924C264.613 192.846 261.79 195.732 258.945 198.629C259.233 197.456 259.516 196.285 259.818 195.108C262.602 192.227 265.35 189.367 268.182 186.46C267.949 187.616 267.72 188.772 267.5 189.924ZM277.626 179.768C274.644 182.747 271.652 185.731 268.75 188.66C268.978 187.493 269.235 186.317 269.474 185.146C272.309 182.241 275.217 179.294 278.126 176.344C277.957 177.486 277.785 178.629 277.626 179.768ZM382.535 751.03C381.581 750.738 380.617 750.45 379.653 750.162C379.709 748.987 379.768 747.81 379.817 746.637C380.74 746.96 381.652 747.289 382.567 747.617C382.564 748.753 382.546 749.892 382.535 751.03ZM386.359 752.216C385.426 751.922 384.481 751.632 383.538 751.342C383.549 750.219 383.564 749.095 383.568 747.974C384.467 748.299 385.358 748.629 386.247 748.958C386.288 750.043 386.327 751.129 386.359 752.216ZM390.132 753.435C389.218 753.135 388.301 752.837 387.377 752.542C387.347 751.472 387.308 750.404 387.267 749.337C388.142 749.663 389.016 749.99 389.882 750.32C389.97 751.357 390.057 752.394 390.132 753.435ZM393.832 754.667C392.944 754.367 392.06 754.065 391.164 753.769C391.092 752.752 391.01 751.738 390.926 750.725C391.778 751.053 392.633 751.38 393.475 751.713C393.602 752.696 393.717 753.681 393.832 754.667ZM397.489 755.925C396.627 755.622 395.759 755.324 394.887 755.026C394.776 754.064 394.669 753.101 394.548 752.143C395.374 752.473 396.195 752.807 397.012 753.141C397.175 754.068 397.336 754.995 397.489 755.925ZM401.075 757.201C400.249 756.901 399.41 756.607 398.574 756.311C398.427 755.4 398.268 754.493 398.108 753.585C398.91 753.917 399.698 754.256 400.49 754.592C400.691 755.459 400.887 756.329 401.075 757.201ZM404.598 758.516C403.799 758.213 402.996 757.912 402.188 757.614C402.007 756.767 401.826 755.92 401.634 755.077C402.399 755.406 403.162 755.736 403.92 756.07C404.151 756.883 404.375 757.699 404.598 758.516ZM408.058 759.851C407.292 759.55 406.533 759.247 405.758 758.949C405.547 758.164 405.326 757.381 405.105 756.598C405.83 756.921 406.563 757.241 407.279 757.567C407.544 758.327 407.805 759.088 408.058 759.851ZM411.437 761.2C410.716 760.906 409.99 760.615 409.263 760.325C409.027 759.602 408.79 758.879 408.543 758.159C409.23 758.478 409.914 758.795 410.592 759.117C410.876 759.811 411.16 760.504 411.437 761.2ZM414.734 762.569C414.071 762.287 413.394 762.012 412.723 761.734C412.463 761.07 412.19 760.41 411.919 759.751C412.566 760.063 413.202 760.381 413.843 760.697C414.146 761.319 414.441 761.943 414.734 762.569ZM417.956 763.975C417.338 763.701 416.718 763.429 416.092 763.159C415.824 762.576 415.564 761.989 415.287 761.409C415.872 761.703 416.443 762.004 417.02 762.301C417.333 762.859 417.649 763.414 417.956 763.975ZM421.062 765.38C420.516 765.128 419.977 764.871 419.424 764.622C419.155 764.118 418.874 763.618 418.594 763.118C419.117 763.394 419.641 763.669 420.159 763.947C420.468 764.422 420.76 764.903 421.062 765.38ZM424.067 766.788C423.606 766.566 423.138 766.346 422.672 766.126C422.419 765.719 422.164 765.313 421.91 764.907C422.333 765.141 422.764 765.371 423.183 765.606C423.477 766.001 423.779 766.391 424.067 766.788ZM426.875 768.167C426.542 768 426.203 767.837 425.868 767.672C425.663 767.383 425.468 767.089 425.259 766.802C425.57 766.982 425.881 767.161 426.188 767.341C426.421 767.615 426.645 767.892 426.875 768.167ZM429.543 769.535L429.011 769.258C428.891 769.108 428.763 768.962 428.64 768.813L429.126 769.112C429.263 769.254 429.406 769.393 429.543 769.535ZM151.053 317.635C150.39 318.394 149.767 319.129 149.114 319.882L149.453 319.399L151.474 316.992L151.053 317.635ZM158.542 309.116C157.52 310.281 156.482 311.455 155.461 312.619C155.821 312.084 156.164 311.557 156.527 311.02C157.543 309.828 158.596 308.614 159.629 307.412C159.267 307.979 158.898 308.551 158.542 309.116ZM166.258 300.404C165.024 301.78 163.797 303.15 162.593 304.507C163.047 303.8 163.48 303.105 163.94 302.395C165.22 300.914 166.467 299.453 167.769 297.959C167.277 298.768 166.743 299.599 166.258 300.404ZM174.377 291.361C172.85 293.059 171.329 294.754 169.809 296.449C170.365 295.542 170.934 294.628 171.5 293.716C172.93 292.084 174.384 290.437 175.821 288.8C175.32 289.664 174.871 290.501 174.377 291.361ZM182.648 282.277C180.871 284.213 179.08 286.156 177.35 288.063C177.95 287.032 178.61 285.968 179.222 284.931C180.87 283.074 182.567 281.188 184.261 279.304C183.714 280.301 183.185 281.286 182.648 282.277ZM191.094 273.064C189.14 275.179 187.251 277.256 185.324 279.354C185.901 278.308 186.432 277.284 187.02 276.231C188.946 274.088 190.835 271.966 192.787 269.808C192.226 270.891 191.643 271.987 191.094 273.064ZM199.737 263.801C197.659 266.023 195.579 268.246 193.54 270.443C194.123 269.314 194.709 268.184 195.306 267.048C197.28 264.879 199.303 262.679 201.32 260.483C200.782 261.594 200.261 262.697 199.737 263.801ZM208.675 254.292C206.392 256.704 204.138 259.098 201.903 261.481C202.47 260.303 203.094 259.097 203.676 257.911C205.822 255.579 207.981 253.24 210.173 250.88C209.66 252.024 209.174 253.155 208.675 254.292ZM217.738 244.753C215.364 247.245 213.007 249.727 210.663 252.201C211.181 251.035 211.66 249.889 212.191 248.718C214.513 246.224 216.849 243.722 219.202 241.209C218.718 242.388 218.207 243.581 217.738 244.753ZM227.1 235.021C224.587 237.617 222.063 240.221 219.614 242.778C220.1 241.581 220.603 240.376 221.104 239.172C223.467 236.661 225.903 234.107 228.33 231.558C227.9 232.721 227.516 233.864 227.1 235.021ZM236.64 225.163C233.977 227.898 231.384 230.591 228.764 233.3C229.201 232.103 229.644 230.903 230.097 229.699C232.658 227.007 235.195 224.33 237.8 221.611C237.413 222.795 237.012 223.984 236.64 225.163ZM246.41 215.216C243.654 218.012 240.897 220.809 238.204 223.57C238.589 222.376 238.978 221.18 239.378 219.98C241.995 217.257 244.67 214.499 247.347 211.74C247.017 212.905 246.726 214.055 246.41 215.216ZM256.363 205.146C253.493 208.036 250.649 210.907 247.837 213.762C248.166 212.575 248.498 211.386 248.841 210.194C251.596 207.357 254.385 204.5 257.199 201.627C256.923 202.799 256.626 203.978 256.363 205.146ZM266.587 194.898C263.601 197.88 260.644 200.844 257.71 203.796C257.981 202.616 258.274 201.427 258.56 200.243C261.429 197.317 264.307 194.385 267.223 191.431C267.008 192.587 266.791 193.744 266.587 194.898ZM277 184.573C273.922 187.61 270.835 190.654 267.834 193.646C268.045 192.484 268.253 191.322 268.475 190.156C271.407 187.194 274.431 184.175 277.444 181.163C277.291 182.301 277.142 183.437 277 184.573ZM267.564 195.125C270.6 192.094 273.712 189.019 276.82 185.945C263.951 291.136 295.286 387.322 326.583 483.397C345.589 541.738 364.576 600.039 373.636 660.288C362.361 608.499 342.999 558.499 323.52 508.209C285.524 410.105 247.11 310.888 267.564 195.125ZM257.341 205.368C260.298 202.392 263.3 199.388 266.315 196.376C246.361 311.68 284.675 410.588 322.556 508.394C343.094 561.422 363.498 614.126 374.42 668.94C361.5 621.33 340.684 575.655 319.663 529.544C274.81 431.166 229.044 330.799 257.341 205.368ZM175.394 291.504C177.234 289.469 179.091 287.423 180.974 285.361C75.3323 483.183 187.275 565.086 292.463 641.987C322.792 664.161 352.547 685.922 376.338 709.937M382.469 755.287C381.461 755.025 380.445 754.767 379.427 754.51C379.497 753.317 379.557 752.125 379.616 750.934C380.591 751.227 381.563 751.522 382.528 751.82C382.514 752.974 382.495 754.13 382.469 755.287ZM386.449 756.343C385.457 756.076 384.469 755.808 383.467 755.546C383.494 754.406 383.516 753.268 383.531 752.13C384.485 752.426 385.442 752.72 386.386 753.021C386.415 754.126 386.431 755.235 386.449 756.343ZM390.381 757.422C389.41 757.151 388.44 756.88 387.459 756.614C387.443 755.526 387.431 754.436 387.405 753.351C388.335 753.65 389.264 753.948 390.183 754.251C390.253 755.306 390.321 756.363 390.381 757.422ZM394.254 758.52C393.313 758.247 392.362 757.979 391.409 757.71C391.351 756.668 391.283 755.629 391.215 754.59C392.126 754.893 393.026 755.202 393.928 755.51C394.043 756.512 394.154 757.514 394.254 758.52ZM398.062 759.644C397.148 759.368 396.221 759.099 395.295 758.828C395.198 757.839 395.093 756.852 394.982 755.867C395.874 756.175 396.756 756.487 397.639 756.799C397.788 757.744 397.923 758.695 398.062 759.644ZM401.829 760.806C400.931 760.526 400.035 760.244 399.128 759.968C398.993 759.038 398.861 758.108 398.717 757.182C399.569 757.487 400.422 757.792 401.263 758.102C401.457 759.001 401.65 759.901 401.829 760.806ZM405.499 761.981C404.639 761.701 403.784 761.419 402.915 761.144C402.744 760.266 402.561 759.392 402.377 758.519C403.205 758.826 404.037 759.132 404.856 759.444C405.078 760.287 405.288 761.134 405.499 761.981ZM409.136 763.188C408.306 762.906 407.468 762.629 406.628 762.351C406.425 761.531 406.227 760.71 406.014 759.894C406.805 760.201 407.59 760.51 408.372 760.821C408.631 761.609 408.893 762.395 409.136 763.188ZM412.664 764.409C411.884 764.133 411.089 763.863 410.301 763.591C410.068 762.823 409.823 762.058 409.576 761.294C410.344 761.604 411.096 761.923 411.856 762.237C412.134 762.957 412.395 763.685 412.664 764.409ZM416.153 765.678C415.401 765.401 414.651 765.124 413.892 764.851C413.637 764.152 413.379 763.454 413.116 762.758C413.828 763.058 414.535 763.36 415.239 763.664C415.547 764.334 415.856 765.003 416.153 765.678ZM419.527 766.955C418.829 766.685 418.137 766.412 417.43 766.147C417.157 765.515 416.881 764.885 416.598 764.259C417.259 764.549 417.927 764.835 418.581 765.13C418.902 765.736 419.215 766.345 419.527 766.955ZM422.827 768.251C422.194 767.996 421.553 767.744 420.913 767.493C420.629 766.927 420.331 766.367 420.038 765.804C420.645 766.083 421.254 766.362 421.855 766.644C422.184 767.178 422.507 767.714 422.827 768.251ZM426.017 769.564C425.455 769.328 424.881 769.096 424.313 768.863C424.032 768.381 423.761 767.896 423.472 767.417C424.007 767.674 424.532 767.935 425.06 768.195C425.379 768.651 425.703 769.106 426.017 769.564ZM429.08 770.891C428.612 770.685 428.145 770.479 427.672 770.275C427.403 769.872 427.124 769.473 426.846 769.074C427.314 769.31 427.766 769.554 428.228 769.793C428.52 770.156 428.794 770.526 429.08 770.891ZM432.008 772.206C431.642 772.038 431.286 771.864 430.917 771.697C430.7 771.414 430.478 771.133 430.261 770.851C430.591 771.028 430.92 771.206 431.25 771.384C431.5 771.66 431.761 771.93 432.008 772.206ZM434.639 773.433C434.471 773.352 434.296 773.275 434.128 773.195C434.008 773.058 433.893 772.919 433.773 772.782C433.926 772.869 434.085 772.952 434.237 773.039L434.639 773.433ZM287.894 170.722C287.804 171.844 287.706 172.966 287.625 174.087C284.417 177.232 281.308 180.317 278.164 183.423C278.311 182.281 278.452 181.14 278.611 179.995C281.696 176.909 284.751 173.842 287.894 170.722ZM288.287 166.069C288.185 167.185 288.091 168.302 287.998 169.418C284.891 172.5 281.859 175.538 278.803 178.59C278.967 177.437 279.151 176.28 279.324 175.125C282.294 172.117 285.264 169.108 288.287 166.069ZM288.743 161.374C288.628 162.491 288.523 163.607 288.419 164.723C285.433 167.723 282.476 170.707 279.544 173.675C279.721 172.527 279.897 171.379 280.086 170.228C282.933 167.299 285.839 164.336 288.743 161.374ZM289.264 156.635C289.135 157.76 288.997 158.887 288.877 160.01C286.023 162.919 283.141 165.843 280.343 168.719C280.535 167.57 280.73 166.421 280.933 165.27C283.658 162.422 286.48 159.517 289.264 156.635ZM289.83 151.863C289.689 152.983 289.557 154.103 289.425 155.223C286.667 158.077 283.891 160.94 281.193 163.759C281.4 162.613 281.632 161.461 281.85 160.312C284.482 157.511 287.136 154.699 289.83 151.863ZM290.459 147.096C290.308 148.194 290.167 149.292 290.025 150.389C287.36 153.191 284.761 155.955 282.155 158.724C282.378 157.578 282.592 156.432 282.826 155.284C285.312 152.588 287.913 149.827 290.459 147.096ZM291.167 142.241C290.998 143.36 290.821 144.48 290.662 145.597C288.184 148.251 285.612 150.957 283.189 153.579C283.423 152.457 283.663 151.333 283.908 150.209C286.286 147.575 288.73 144.907 291.167 142.241ZM291.924 137.365C291.742 138.473 291.57 139.582 291.399 140.69C289.023 143.284 286.598 145.906 284.279 148.47C284.528 147.346 284.799 146.218 285.06 145.092C287.323 142.529 289.604 139.958 291.924 137.365ZM292.753 132.443C292.559 133.545 292.379 134.646 292.195 135.747C289.944 138.259 287.687 140.775 285.489 143.258C285.75 142.156 285.998 141.056 286.269 139.951C288.422 137.453 290.546 134.97 292.753 132.443ZM293.669 127.465C293.46 128.567 293.247 129.668 293.05 130.769C290.926 133.195 288.839 135.603 286.768 138.002C287.043 136.901 287.328 135.799 287.614 134.695C289.638 132.282 291.596 129.904 293.669 127.465ZM294.628 122.53C294.412 123.596 294.199 124.662 293.994 125.728C291.999 128.07 290.075 130.374 288.127 132.691C288.419 131.597 288.732 130.497 289.032 129.401C290.897 127.111 292.722 124.84 294.628 122.53ZM295.648 117.58C295.428 118.597 295.229 119.613 295.019 120.629C293.176 122.86 291.434 125.038 289.632 127.247C289.929 126.192 290.21 125.14 290.516 124.083C292.213 121.922 293.912 119.76 295.648 117.58ZM296.773 112.558C296.545 113.556 296.317 114.555 296.099 115.553C294.438 117.63 292.852 119.67 291.222 121.733C291.529 120.695 291.84 119.657 292.158 118.618C293.671 116.609 295.223 114.583 296.773 112.558ZM297.954 107.537C297.72 108.501 297.479 109.466 297.253 110.43C295.782 112.343 294.349 114.238 292.905 116.138C293.221 115.126 293.563 114.11 293.887 113.097C295.209 111.258 296.598 109.39 297.954 107.537ZM299.184 102.54C298.956 103.433 298.745 104.324 298.523 105.216C297.264 106.928 296.012 108.636 294.777 110.337C295.076 109.425 295.37 108.514 295.676 107.6C296.821 105.924 298.013 104.227 299.184 102.54ZM300.525 97.486C300.302 98.3084 300.087 99.1312 299.87 99.9535C298.845 101.421 297.803 102.896 296.796 104.355C297.064 103.579 297.328 102.803 297.601 102.026C298.571 100.514 299.534 99.006 300.525 97.486ZM301.88 92.6022C301.686 93.2833 301.486 93.9647 301.297 94.6455C300.537 95.8011 299.746 96.9695 298.999 98.1199C299.209 97.5359 299.429 96.9503 299.644 96.3657C300.391 95.1103 301.118 93.8627 301.88 92.6022ZM303.156 88.1452C303.047 88.5071 302.948 88.8688 302.842 89.2303C302.387 89.9753 301.911 90.7283 301.461 91.47C301.566 91.1963 301.679 90.9213 301.784 90.6471L303.156 88.1452ZM374.676 749.481C374.573 750.738 374.465 751.995 374.35 753.254C341.193 745.214 303.441 739.301 264.961 733.279C190.091 721.563 112.488 709.419 60.9806 680.293C-14.5287 637.593 -34.0145 558.273 93.0372 390.121C-22.5679 551.419 2.38635 628.185 78.9885 671.173C128.317 698.855 199.024 712.499 267.404 725.693C305.224 732.991 342.324 740.154 374.676 749.481ZM375.041 744.994C374.947 746.236 374.84 747.479 374.738 748.722C342.407 739.439 305.395 732.292 267.666 725.012C199.388 711.838 128.783 698.214 79.612 670.62C0.79187 626.387 -22.9919 546.137 105.895 374.079C-11.6844 539.779 18.1759 617.585 98.4933 662.29C145.051 688.203 208.531 702.964 270.077 717.275C307.152 725.896 343.521 734.355 375.041 744.994ZM375.339 740.533C375.262 741.758 375.182 742.983 375.094 744.21C343.61 733.629 307.349 725.197 270.391 716.603C208.926 702.311 145.531 687.569 99.1121 661.733C16.4596 615.73 -12.4344 534.435 118.959 357.602C-1.33063 528.743 34.4972 607.711 119.178 654.425C162.422 678.28 218.372 693.702 272.772 708.696C309.08 718.703 344.685 728.523 375.339 740.533ZM375.605 736.09C375.539 737.302 375.47 738.514 375.393 739.727C344.784 727.79 309.306 718.006 273.136 708.037C218.8 693.06 162.916 677.657 119.793 653.869C33.1014 606.045 -2.15652 524.241 130.118 343.529L130.798 342.719C8.58984 519.245 51.9827 599.02 141.539 647.948C180.708 669.348 228.688 684.832 275.491 699.936C311.007 711.398 345.838 722.644 375.605 736.09ZM375.836 731.678C375.779 732.87 375.712 734.064 375.648 735.258C345.937 721.901 311.262 710.704 275.907 699.295C229.157 684.207 181.231 668.741 142.15 647.389C51.5669 597.9 8.457 516.669 137.366 334.905C138.043 334.106 138.682 333.33 139.367 332.525C18.4738 512.716 71.7647 592.283 166.48 643.487C200.462 661.859 239.757 676.571 278.236 690.977C312.944 703.97 346.984 716.717 375.836 731.678ZM376.006 727.286C375.964 728.457 375.924 729.627 375.872 730.8C347.087 715.954 313.223 703.275 278.703 690.35C240.258 675.958 201.001 661.26 167.086 642.925C71.6276 591.32 18.4009 510.779 144.409 326.656C145.42 325.477 146.448 324.289 147.46 323.11C-4.76788 558.487 143.427 622.446 281.005 681.785C314.88 696.395 348.099 710.731 376.006 727.286ZM376.149 722.91C376.117 724.061 376.081 725.212 376.042 726.365C348.21 709.948 315.191 695.701 281.527 681.181C143.229 621.533 -5.79199 557.186 152.139 317.681C153.254 316.4 154.416 315.09 155.561 313.792C15.346 539.65 154.418 608.371 283.812 672.332C316.831 688.654 349.217 704.667 376.149 722.91ZM376.253 718.571C376.229 719.692 376.201 720.814 376.172 721.936C349.325 703.863 317.168 687.96 284.383 671.754C154.418 607.51 14.7505 538.405 159.598 309.203C161.088 307.513 162.538 305.848 164.046 304.147C35.408 520.733 165.352 594.12 286.653 662.582C318.801 680.727 350.329 698.529 376.253 718.571ZM376.309 714.239C376.3 715.331 376.293 716.423 376.275 717.516C350.443 697.683 319.161 680.024 287.276 662.029C165.553 593.328 35.0694 519.68 167.285 300.531C168.982 298.629 170.719 296.704 172.446 294.785C55.4565 501.935 176.324 579.713 289.532 652.485C320.78 672.572 351.431 692.282 376.309 714.239ZM376.325 705.651C376.33 706.661 376.334 707.67 376.335 708.68C352.645 684.971 323.191 663.437 293.184 641.498C187.671 564.358 75.3734 482.163 183.648 282.444C185.636 280.27 187.63 278.092 189.639 275.904C95.0747 464.466 198.209 550.204 295.446 631.022C324.829 655.443 353.665 679.417 376.325 705.651ZM376.275 701.383C376.292 702.348 376.312 703.312 376.32 704.277C353.758 678.405 325.253 654.703 296.21 630.565C198.678 549.503 95.2191 463.473 192.079 273.251C194.205 270.953 196.404 268.61 198.59 266.276C114.726 445.7 209.112 535.005 298.491 619.502C326.904 646.362 354.798 672.741 376.275 701.383ZM376.202 697.145C376.223 698.034 376.233 698.925 376.249 699.815C354.866 671.615 327.33 645.582 299.296 619.079C209.667 534.347 114.969 444.787 200.726 263.99C203.031 261.526 205.323 259.071 207.671 256.582C134.159 426.941 219.988 519.422 301.608 607.32C329.027 636.848 355.964 665.861 376.202 697.145ZM376.078 692.911C376.101 693.729 376.129 694.546 376.151 695.364C355.997 664.615 329.458 636.022 302.446 606.932C220.603 518.793 134.53 426.036 209.656 254.492C212.045 251.967 214.472 249.419 216.906 246.866C153.437 408.168 230.852 503.385 304.809 594.338C331.203 626.799 357.148 658.72 376.078 692.911ZM375.93 688.7C375.959 689.417 375.992 690.133 376.017 690.85C357.156 657.305 331.63 625.908 305.674 593.986C231.516 502.785 153.865 407.294 218.71 244.967C221.242 242.318 223.821 239.64 226.414 236.954C172.547 389.265 241.679 486.758 308.102 580.377C333.448 616.1 358.389 651.264 375.93 688.7ZM375.755 684.513C375.782 685.086 375.802 685.661 375.828 686.235C358.328 649.601 333.857 615.101 308.996 580.061C242.392 486.188 173.061 388.416 228.077 235.234C230.724 232.492 233.36 229.757 236.047 226.99C191.38 370.275 252.479 469.41 311.503 565.198C335.776 604.59 359.697 643.415 375.755 684.513ZM375.536 680.306L375.6 681.494C359.545 641.408 336.153 603.432 312.42 564.916C253.23 468.861 191.977 369.424 237.61 225.385C240.34 222.585 243.158 219.732 245.959 216.889C210.044 351.062 263.251 451.139 315.033 548.477C338.202 592.029 361.079 635.034 375.536 680.306ZM375.3 676.161L375.322 676.485C360.804 632.519 338.527 590.631 315.971 548.228C264.043 450.616 210.682 350.247 247.387 215.436C250.248 212.529 253.12 209.616 256.036 206.677C228.375 331.574 273.986 431.659 318.712 529.76C340.762 578.129 362.594 626.016 375.3 676.161ZM330.792 453.211C348.459 518.362 366.252 583.989 373.245 651.44C363.722 594.264 345.649 538.77 327.558 483.239C296.163 386.862 264.743 290.369 277.985 184.795C281.156 181.658 284.298 178.539 287.539 175.36C281.003 269.585 305.765 360.921 330.792 453.211ZM376.929 688.567L376.882 687.449L377.037 687.851C377.076 688.251 377.118 688.651 377.154 689.052L376.929 688.567ZM377.078 692.762C377.059 692.196 377.048 691.628 377.028 691.062C377.152 691.332 377.281 691.601 377.404 691.871L377.552 693.617L377.078 692.762ZM377.201 696.968C377.184 696.253 377.159 695.54 377.139 694.826C377.347 695.207 377.547 695.59 377.752 695.972C377.807 696.668 377.851 697.367 377.903 698.065C377.669 697.699 377.438 697.332 377.201 696.968ZM377.275 701.187L377.236 698.763L378.044 700.037C378.101 700.84 378.163 701.643 378.214 702.448C377.901 702.028 377.59 701.607 377.275 701.187ZM377.328 705.435C377.322 704.544 377.313 703.652 377.301 702.761C377.637 703.215 377.978 703.666 378.31 704.121C378.361 704.999 378.414 705.876 378.461 706.754C378.086 706.313 377.707 705.875 377.328 705.435ZM377.342 709.7C377.342 708.739 377.337 707.778 377.333 706.818C377.742 707.297 378.143 707.779 378.548 708.259C378.594 709.191 378.633 710.125 378.674 711.057C378.23 710.605 377.789 710.151 377.342 709.7ZM377.316 713.976C377.325 712.972 377.342 711.966 377.347 710.962C377.807 711.432 378.276 711.901 378.732 712.373C378.777 713.364 378.822 714.355 378.856 715.348C378.346 714.889 377.832 714.433 377.316 713.976ZM377.265 718.287C377.284 717.229 377.294 716.172 377.303 715.115C377.838 715.591 378.362 716.07 378.89 716.548C378.922 717.572 378.953 718.595 378.979 719.62C378.41 719.174 377.838 718.731 377.265 718.287ZM377.161 722.598C377.189 721.511 377.216 720.424 377.239 719.338C377.832 719.799 378.425 720.258 379.01 720.721C379.034 721.782 379.047 722.845 379.064 723.908C378.432 723.47 377.8 723.032 377.161 722.598ZM377.024 726.948C377.065 725.826 377.104 724.704 377.137 723.583C377.789 724.028 378.433 724.476 379.078 724.924C379.095 726.014 379.112 727.103 379.117 728.195C378.425 727.777 377.723 727.363 377.024 726.948ZM376.857 731.313C376.908 730.163 376.948 729.016 376.989 727.869C377.701 728.294 378.411 728.722 379.117 729.152C379.118 730.267 379.119 731.382 379.113 732.498C378.362 732.102 377.612 731.706 376.857 731.313ZM376.63 735.697C376.694 734.528 376.757 733.359 376.814 732.191C377.582 732.593 378.35 732.994 379.113 733.398C379.102 734.535 379.084 735.675 379.067 736.814C378.258 736.44 377.448 736.067 376.63 735.697ZM376.373 740.112C376.449 738.917 376.52 737.723 376.586 736.53C377.416 736.908 378.234 737.289 379.052 737.671C379.035 738.827 379.016 739.983 378.986 741.141C378.121 740.795 377.244 740.455 376.373 740.112ZM376.076 744.545C376.163 743.335 376.242 742.126 376.319 740.917C377.203 741.266 378.085 741.615 378.96 741.968C378.927 743.143 378.89 744.318 378.847 745.496C377.926 745.177 377.005 744.859 376.076 744.545ZM375.721 749.003C375.822 747.779 375.929 746.554 376.023 745.332C376.959 745.65 377.893 745.969 378.822 746.291C378.776 747.482 378.716 748.675 378.66 749.867C377.685 749.577 376.707 749.288 375.721 749.003ZM375.333 753.493C375.448 752.248 375.555 751.004 375.658 749.761C376.655 750.05 377.638 750.345 378.624 750.64C378.566 751.845 378.506 753.05 378.436 754.257C377.407 754 376.371 753.747 375.333 753.493ZM341.715 887C360.892 841.566 371.199 797.42 375.26 754.238C376.307 754.494 377.35 754.753 378.388 755.014C375.846 797.386 366.465 841.109 347.179 886.798L348.139 887C367.418 841.326 376.815 797.619 379.377 755.266C380.405 755.527 381.432 755.785 382.449 756.05C381.438 797.579 372.997 840.857 353.606 886.798L354.566 887C373.949 841.081 382.406 797.824 383.447 756.317C384.457 756.583 385.461 756.851 386.46 757.122C387.007 797.789 379.529 840.607 360.03 886.798L360.99 887C380.478 840.832 387.982 798.037 387.472 757.392C388.466 757.664 389.447 757.943 390.432 758.219C392.569 798.007 386.06 840.353 366.454 886.798L367.415 887C387.005 840.587 393.547 798.267 391.459 758.507C392.422 758.781 393.377 759.057 394.329 759.335C398.092 798.227 392.595 840.09 372.88 886.798L373.839 887C393.538 840.334 399.07 798.503 395.372 759.642C396.313 759.919 397.255 760.195 398.185 760.478C403.603 798.455 399.135 839.823 379.307 886.798L380.266 887C400.071 840.081 404.59 798.751 399.252 760.809C400.167 761.09 401.082 761.371 401.985 761.656C409.089 798.699 405.672 839.556 385.731 886.798L386.691 887C406.605 839.823 410.082 799.007 403.072 762.001C403.964 762.286 404.84 762.577 405.721 762.867C414.548 798.953 412.21 839.285 392.154 886.798L393.114 887C413.136 839.569 415.552 799.283 406.848 763.236C407.709 763.523 408.557 763.815 409.406 764.108C419.989 799.217 418.753 839.01 398.582 886.798L399.541 887C419.67 839.314 421 799.577 410.57 764.51C411.391 764.796 412.212 765.082 413.023 765.373C425.399 799.487 425.297 838.727 405.006 886.798L405.966 887C426.2 839.063 426.436 799.887 414.253 765.823C415.027 766.105 415.807 766.384 416.572 766.67C430.783 799.767 431.843 838.439 411.43 886.798L412.39 887C432.734 838.805 431.829 800.209 417.861 767.164C418.606 767.448 419.346 767.736 420.082 768.025C436.151 800.076 438.386 838.161 417.856 886.798L418.814 887C439.263 838.556 437.22 800.555 421.445 768.555C422.136 768.832 422.811 769.117 423.494 769.398C441.474 800.386 444.937 837.866 424.282 886.798L425.241 887C445.789 838.319 442.58 800.939 424.979 770.008C425.612 770.274 426.238 770.543 426.863 770.813C446.784 800.713 451.485 837.572 430.705 886.798L431.666 887C452.309 838.094 447.917 801.357 428.479 771.519C429.029 771.762 429.588 772 430.134 772.247C452.053 801.037 458.038 837.263 437.13 886.798L438.09 887C458.816 837.9 453.259 801.827 431.987 773.11C432.441 773.32 432.899 773.529 433.347 773.743C457.293 801.396 464.594 836.96 443.557 886.798L444.517 887C465.31 837.739 458.584 802.362 435.497 774.787C435.843 774.958 436.188 775.129 436.531 775.301C462.52 801.787 471.14 836.674 449.982 886.798L450.942 887C471.778 837.635 463.904 802.992 439.053 776.586C439.228 776.678 439.4 776.771 439.573 776.863C467.692 802.163 477.7 836.352 456.406 886.798L457.366 887C478.044 838.009 469.397 804.278 443.363 779.126C473.035 803.163 484.066 836.489 462.831 886.798L463.79 887C484.033 839.042 475.173 806.434 448.846 782.591C478.825 805.31 490.058 837.519 469.257 886.798L470.217 887C490.008 840.111 481.005 808.599 454.526 785.993C484.667 807.468 496.033 838.586 475.681 886.798L476.641 887C499.094 833.81 483.272 801.294 446.268 779.589C444.494 778.344 442.647 777.137 440.761 775.949C439.039 774.655 437.276 773.381 435.444 772.141C433.794 770.81 432.081 769.51 430.329 768.229C428.7 766.814 427.027 765.418 425.297 764.052C423.759 762.61 422.172 761.191 420.541 759.792C419.023 758.248 417.455 756.727 415.844 755.226C414.423 753.657 412.967 752.104 411.463 750.573C410.079 748.898 408.639 747.248 407.17 745.61C405.848 743.858 404.49 742.12 403.088 740.403C401.878 738.636 400.634 736.882 399.352 735.145C398.191 733.259 396.983 731.393 395.751 729.536C394.655 727.546 393.523 725.571 392.357 723.608C391.352 721.553 390.32 719.507 389.251 717.476C388.345 715.37 387.417 713.272 386.454 711.186C385.634 708.986 384.792 706.795 383.917 704.614C383.191 702.326 382.441 700.046 381.665 697.774C381.034 695.39 380.383 693.012 379.703 690.642C379.189 688.244 378.649 685.852 378.094 683.466C377.665 680.883 377.211 678.307 376.739 675.736C376.422 673.109 376.085 670.486 375.728 667.867C370.139 594.571 350.885 523.546 331.777 453.078C306.666 360.483 281.818 268.849 288.615 174.31C342.23 121.772 404.543 64.0083 476.552 0.440247L475.774 0C404.157 63.2214 342.143 120.7 288.719 173.024C288.802 171.898 288.895 170.77 288.989 169.643C340.597 118.463 400.632 62.2607 470.13 0.440247L469.347 0C400.247 61.4661 340.511 117.379 289.093 168.339C289.191 167.211 289.299 166.081 289.404 164.951C338.995 115.135 396.739 60.4995 463.705 0.438904L462.919 0.00170898C396.368 59.6893 338.927 114.023 289.535 163.606C289.645 162.483 289.743 161.36 289.862 160.237C337.421 111.789 392.868 58.7246 457.281 0.437012L456.495 0.00268555C392.514 57.8993 337.375 110.649 290.02 158.849C290.143 157.716 290.276 156.583 290.409 155.449C335.911 108.39 389.045 56.914 450.858 0.435669L450.067 0.00384521C388.695 56.0798 335.868 107.236 290.57 154.036C290.709 152.898 290.858 151.759 291.005 150.619C334.432 104.966 385.26 55.0764 444.436 0.434204L443.642 0.00543213C384.93 54.2183 334.41 103.771 291.2 149.146C291.346 148.043 291.484 146.942 291.639 145.838C333.005 101.555 381.434 53.2829 438.012 0.4328L437.212 0.0067749C381.109 52.4132 333.018 100.321 291.868 144.312C292.032 143.185 292.202 142.058 292.375 140.93C331.636 98.0642 377.697 51.4146 431.59 0.431885L430.787 0.00793457C377.371 50.5391 331.653 96.8133 292.607 139.377C292.786 138.247 292.98 137.117 293.169 135.986C330.311 94.5461 373.988 49.5283 425.168 0.428711L424.361 0.0106201C373.678 48.6328 330.361 93.2501 293.441 134.368C293.633 133.25 293.82 132.131 294.02 131.011C329.026 91.0022 370.304 47.6258 418.743 0.426941L417.932 0.0120239C370.012 46.7054 329.115 89.6514 294.337 129.313C294.542 128.197 294.748 127.081 294.963 125.964C327.814 87.4043 366.663 45.692 412.321 0.4245L411.505 0.0151978C366.375 44.7603 327.915 86.0241 295.296 124.22C295.516 123.101 295.757 121.98 295.987 120.861C326.662 83.7627 363.058 43.7321 405.897 0.421265L405.078 0.0178833C362.79 42.7725 326.802 82.3203 296.366 119.025C296.594 117.946 296.826 116.868 297.063 115.789C325.562 80.1321 359.448 41.7928 399.478 0.419434L398.651 0.0203247C359.242 40.7534 325.753 78.5617 297.521 113.757C297.753 112.726 297.977 111.695 298.219 110.662C324.519 76.4581 355.879 39.8243 393.054 0.414551L392.22 0.024292C355.702 38.7347 324.768 74.7836 298.744 108.474C298.987 107.464 299.237 106.454 299.487 105.443C323.564 72.7156 352.362 37.8141 386.633 0.411865L385.794 0.0274048C352.204 36.6862 323.851 70.9544 300.056 103.123C300.304 102.144 300.574 101.164 300.831 100.184C322.664 68.9411 348.884 35.78 380.214 0.406616L379.363 0.0333252C348.777 34.5688 323.047 67.0004 301.517 97.5984C301.761 96.6892 302.005 95.78 302.258 94.8697C321.824 65.1233 345.447 33.7185 373.791 0.400879L372.933 0.0380859C345.409 32.3916 322.338 62.9418 303.097 91.926C303.333 91.1021 303.562 90.2783 303.804 89.4534C321.076 61.2285 342.072 31.6102 367.373 0.395081L366.502 0.0438232C342.119 30.1287 321.75 58.7238 304.832 86.0274C305.045 85.3235 305.261 84.6191 305.478 83.9139C320.429 57.2409 338.755 29.4498 360.953 0.387573L360.072 0.0522461C338.938 27.7208 321.343 54.2274 306.791 79.7256C306.923 79.3137 307.062 78.9008 307.196 78.489C319.822 53.3198 335.432 27.3271 354.535 0.377075L353.642 0.0622559C336.114 24.7905 321.53 48.7112 309.481 71.9321C319.675 48.6196 332.405 24.7945 348.118 0.365051L347.205 0.0744629C333.735 21.0187 322.456 41.5186 313.076 61.6326C320.63 41.407 330.073 20.9919 341.701 0.349976L340.773 0.0898438C326.948 24.6292 316.195 48.8483 308.047 72.8062C306.347 76.7177 304.707 80.6177 303.148 84.5014C301.141 88.6469 299.243 92.7615 297.39 96.8638C295.158 101.114 292.995 105.34 290.933 109.533C288.424 113.987 285.99 118.412 283.677 122.792C281.014 127.288 278.477 131.731 276.003 136.149C273.225 140.644 270.535 145.101 267.939 149.516C264.898 154.245 261.945 158.932 259.113 163.564C255.854 168.473 252.737 173.314 249.706 178.113C246.532 182.775 243.457 187.387 240.485 191.948C237.237 196.603 234.075 201.213 231.026 205.766C227.058 211.304 223.283 216.741 219.612 222.122C216.116 226.941 212.723 231.702 209.446 236.402C205.929 241.165 202.517 245.869 199.206 250.518C195.054 256.045 191.024 261.505 187.147 266.877C183.233 272.023 179.438 277.099 175.775 282.1C171.771 287.299 167.881 292.432 164.135 297.482C160.002 302.786 155.981 308.025 152.116 313.173C148.058 318.338 144.1 323.444 140.287 328.462C136.259 333.538 132.338 338.549 128.548 343.483C124.465 348.575 120.517 353.585 116.675 358.531C-37.3499 548.76 -20.0189 635.392 60.3584 680.844C112.05 710.074 189.765 722.236 264.744 733.968C303.295 740.001 341.112 745.925 374.277 753.998C370.234 797.196 359.937 841.355 340.755 886.798L341.715 887Z" fill="url(#paint0_linear_150_272)" fill-opacity="0.4"/>
<defs>
<linearGradient id="paint0_linear_150_272" x1="-408.732" y1="299.477" x2="308.9" y2="1023.96" gradientUnits="userSpaceOnUse">
<stop stop-color="#5E17EB"/>
<stop offset="1" stop-color="#F80068"/>
</linearGradient>
</defs>
</svg>
