<svg width="1298" height="241" viewBox="0 0 1298 241" fill="none" xmlns="http://www.w3.org/2000/svg">
<path d="M0 240.86V0H162.176V43.6458H50.1742V98.2839H155.702V141.93H50.1742V197.214H162.176V240.86H0Z" fill="white"/>
<path d="M441.636 240.86V0H491.811V197.214H593.778V240.86H441.636Z" fill="white"/>
<path d="M651.033 240.86V0H701.207V240.86H651.033Z" fill="white"/>
<path d="M776.342 240.86V0H868.922C885.539 0 900.213 2.90972 912.946 8.72917C925.894 14.5486 936.036 23.17 943.374 34.5934C950.711 46.0167 954.38 60.1343 954.38 76.946C954.38 93.3266 950.603 107.229 943.05 118.652C935.713 130.075 925.57 138.805 912.622 144.839C899.89 150.659 885.323 153.569 868.922 153.569H826.516V240.86H776.342ZM826.516 109.923H869.245C876.367 109.923 882.517 108.522 887.697 105.72C892.876 102.918 896.868 99.0383 899.674 94.081C902.695 89.1237 904.206 83.412 904.206 76.946C904.206 70.2644 902.695 64.4449 899.674 59.4876C896.868 54.5303 892.876 50.6507 887.697 47.8488C882.517 45.0468 876.367 43.6458 869.245 43.6458H826.516V109.923Z" fill="white"/>
<path d="M1018.93 240.86V0H1069.11V240.86H1018.93Z" fill="white"/>
<path d="M1187.62 240.86V43.6458H1126.44V0H1298V43.6458H1237.79V240.86H1187.62Z" fill="white"/>
<path d="M234 119.473C234 -8.09674 352.857 0.106522 352.857 0.106522C352.857 0.106522 259.6 0.106529 259.6 119.473C259.6 238.839 362 240.954 362 240.954C362 240.954 234 247.043 234 119.473Z" fill="#D9D9D9"/>
</svg>
