<svg width="2073" height="1687" viewBox="0 0 2073 1687" fill="none" xmlns="http://www.w3.org/2000/svg">
<path opacity="0.0144928" d="M1433.43 1419.45C1441.88 1425.25 1453.15 1424.76 1461.06 1418.24L1655.73 1258.04C1660.41 1254.19 1663.38 1248.65 1664 1242.62L1701.09 878.761C1701.58 874.019 1700.57 869.243 1698.22 865.095L1541.12 587.68C1536.86 580.158 1528.75 575.66 1520.11 576.035L1301.55 585.532C1292.91 585.907 1285.22 591.093 1281.62 598.955L1149.18 888.952C1147.2 893.288 1146.61 898.133 1147.51 902.816L1216.02 1262.08C1217.16 1268.04 1220.6 1273.3 1225.6 1276.73L1433.43 1419.45Z" stroke="url(#paint0_linear_118_109)" stroke-opacity="0.15" stroke-width="4"/>
<path opacity="0.0289855" d="M1393.41 1413.53C1401.53 1419.74 1412.78 1419.84 1421.01 1413.78L1622.55 1265.4C1627.44 1261.8 1630.71 1256.42 1631.64 1250.42L1687.38 892.393C1688.12 887.668 1687.36 882.832 1685.22 878.556L1543.72 595.984C1539.85 588.265 1531.99 583.361 1523.36 583.284L1305.93 581.341C1297.29 581.263 1289.34 586.027 1285.34 593.675L1138.81 873.674C1136.59 877.91 1135.75 882.732 1136.4 887.469L1185.73 1246.43C1186.56 1252.45 1189.73 1257.89 1194.55 1261.58L1393.41 1413.53Z" stroke="url(#paint1_linear_118_109)" stroke-opacity="0.15" stroke-width="4"/>
<path opacity="0.0434783" d="M1353.85 1406.44C1361.63 1413.03 1372.82 1413.72 1381.34 1408.13L1589.06 1271.85C1594.14 1268.52 1597.7 1263.3 1598.95 1257.35L1672.82 906.105C1673.81 901.411 1673.3 896.526 1671.37 892.134L1545.57 605.269C1542.11 597.374 1534.52 592.078 1525.92 591.549L1310.21 578.311C1301.61 577.783 1293.43 582.112 1289.03 589.524L1129.09 858.853C1126.65 862.977 1125.55 867.763 1125.95 872.542L1156.32 1230.19C1156.83 1236.25 1159.72 1241.85 1164.36 1245.79L1353.85 1406.44Z" stroke="url(#paint2_linear_118_109)" stroke-opacity="0.15" stroke-width="4"/>
<path opacity="0.057971" d="M1314.81 1398.21C1322.22 1405.17 1333.33 1406.44 1342.12 1401.33L1555.3 1277.38C1560.56 1274.32 1564.39 1269.3 1565.96 1263.42L1657.41 919.851C1658.65 915.202 1658.39 910.282 1656.69 905.783L1546.65 615.487C1543.6 607.436 1536.31 601.764 1527.75 600.788L1314.36 576.429C1305.8 575.453 1297.42 579.336 1292.63 586.492L1120.01 844.522C1117.33 848.521 1115.98 853.258 1116.13 858.066L1127.8 1213.4C1128 1219.49 1130.61 1225.25 1135.05 1229.41L1314.81 1398.21Z" stroke="url(#paint3_linear_118_109)" stroke-opacity="0.15" stroke-width="4"/>
<path opacity="0.0724638" d="M1276.35 1388.88C1283.38 1396.18 1294.36 1398.02 1303.39 1393.41L1521.32 1281.99C1526.75 1279.22 1530.85 1274.4 1532.73 1268.6L1641.15 933.585C1642.64 928.993 1642.64 924.05 1641.17 919.456L1546.91 626.585C1544.27 618.401 1537.29 612.369 1528.81 610.948L1318.29 575.674C1309.81 574.253 1301.25 577.68 1296.09 584.559L1111.51 830.709C1108.62 834.57 1107.01 839.244 1106.92 844.07L1100.22 1196.13C1100.1 1202.22 1102.41 1208.12 1106.64 1212.51L1276.35 1388.88Z" stroke="url(#paint4_linear_118_109)" stroke-opacity="0.15" stroke-width="4"/>
<path opacity="0.0869565" d="M1238.52 1378.48C1245.15 1386.11 1255.99 1388.52 1265.22 1384.41L1487.17 1285.68C1492.75 1283.2 1497.12 1278.6 1499.3 1272.89L1624.06 947.26C1625.79 942.739 1626.05 937.787 1624.81 933.108L1546.29 638.511C1544.08 630.214 1537.43 623.84 1529.05 621.98L1321.96 576.024C1313.58 574.164 1304.86 577.127 1299.35 583.71L1103.59 817.442C1100.48 821.154 1098.62 825.752 1098.28 830.582L1073.58 1178.42C1073.15 1184.51 1075.16 1190.53 1079.17 1195.14L1238.52 1378.48Z" stroke="url(#paint5_linear_118_109)" stroke-opacity="0.15" stroke-width="4"/>
<path opacity="0.101449" d="M1201.36 1367.08C1207.58 1375.01 1218.24 1377.97 1227.66 1374.38L1452.9 1288.44C1458.62 1286.26 1463.23 1281.89 1465.72 1276.3L1606.13 960.831C1608.1 956.394 1608.62 951.445 1607.61 946.694L1544.76 651.207C1542.98 642.821 1536.68 636.123 1528.42 633.83L1325.29 577.453C1317.03 575.16 1308.18 577.652 1302.33 583.92L1096.18 804.746C1092.87 808.297 1090.76 812.806 1090.17 817.626L1047.9 1160.34C1047.15 1166.41 1048.85 1172.53 1052.62 1177.34L1201.36 1367.08Z" stroke="url(#paint6_linear_118_109)" stroke-opacity="0.15" stroke-width="4"/>
<path opacity="0.115942" d="M1164.94 1354.7C1170.73 1362.92 1181.19 1366.42 1190.76 1363.35L1418.58 1290.28C1424.41 1288.4 1429.26 1284.28 1432.04 1278.83L1587.38 974.254C1589.6 969.913 1590.38 964.981 1589.61 960.169L1542.3 664.617C1540.95 656.163 1535.01 649.161 1526.9 646.442L1328.26 579.932C1320.14 577.214 1311.18 579.23 1305.01 585.165L1089.28 792.646C1085.77 796.023 1083.42 800.43 1082.57 805.229L1023.2 1141.93C1022.14 1147.97 1023.52 1154.18 1027.05 1159.18L1164.94 1354.7Z" stroke="url(#paint7_linear_118_109)" stroke-opacity="0.15" stroke-width="4"/>
<path opacity="0.130435" d="M1129.3 1341.41C1134.65 1349.88 1144.88 1353.91 1154.57 1351.37L1384.23 1291.2C1390.17 1289.64 1395.24 1285.78 1398.31 1280.47L1567.84 987.485C1570.29 983.253 1571.32 978.351 1570.8 973.49L1538.87 678.683C1537.95 670.184 1532.39 662.896 1524.44 659.761L1330.79 583.432C1322.83 580.297 1313.8 581.832 1307.33 587.418L1082.84 781.161C1079.14 784.356 1076.55 788.647 1075.45 793.411L999.487 1123.27C998.11 1129.25 999.179 1135.53 1002.46 1140.72L1129.3 1341.41Z" stroke="url(#paint8_linear_118_109)" stroke-opacity="0.15" stroke-width="4"/>
<path opacity="0.144928" d="M1094.47 1327.25C1099.38 1335.96 1109.34 1340.5 1119.13 1338.5L1349.92 1291.21C1355.94 1289.97 1361.21 1286.38 1364.57 1281.23L1547.49 1000.48C1550.17 996.37 1551.46 991.511 1551.18 986.613L1534.43 693.343C1533.95 684.821 1528.78 677.269 1521.01 673.728L1332.82 587.917C1325.06 584.375 1315.97 585.427 1309.22 590.648L1076.82 770.313C1072.94 773.313 1070.12 777.476 1068.77 782.193L976.759 1104.4C975.071 1110.31 975.819 1116.65 978.836 1122L1094.47 1327.25Z" stroke="url(#paint9_linear_118_109)" stroke-opacity="0.15" stroke-width="4"/>
<path opacity="0.15942" d="M1060.51 1312.28C1064.95 1321.2 1074.63 1326.24 1084.48 1324.77L1315.68 1290.32C1321.77 1289.41 1327.24 1286.1 1330.87 1281.12L1526.38 1013.2C1529.28 1009.22 1530.83 1004.42 1530.8 999.498L1528.98 708.538C1528.92 700.014 1524.16 692.22 1516.6 688.283L1334.34 593.351C1326.78 589.414 1317.66 589.98 1310.64 594.822L1071.19 760.118C1067.14 762.914 1064.09 766.937 1062.5 771.594L955.032 1085.37C953.037 1091.2 953.461 1097.58 956.208 1103.09L1060.51 1312.28Z" stroke="url(#paint10_linear_118_109)" stroke-opacity="0.15" stroke-width="4"/>
<path opacity="0.173913" d="M1027.44 1296.56C1031.42 1305.66 1040.78 1311.18 1050.67 1310.25L1281.58 1288.54C1287.72 1287.96 1293.37 1284.95 1297.26 1280.16L1504.52 1025.6C1507.64 1021.77 1509.44 1017.04 1509.66 1012.1L1522.48 724.204C1522.86 715.702 1518.51 707.686 1511.18 703.366L1335.27 599.696C1327.94 595.376 1318.82 595.456 1311.56 599.906L1065.91 750.592C1061.7 753.175 1058.43 757.045 1056.59 761.629L934.302 1066.26C932.005 1071.98 932.102 1078.39 934.571 1084.04L1027.44 1296.56Z" stroke="url(#paint11_linear_118_109)" stroke-opacity="0.15" stroke-width="4"/>
<path opacity="0.188406" d="M995.303 1280.14C998.803 1289.4 1007.83 1295.38 1017.72 1294.98L1247.65 1285.9C1253.82 1285.65 1259.63 1282.93 1263.78 1278.36L1481.93 1037.65C1485.25 1033.98 1487.31 1029.33 1487.78 1024.39L1514.92 740.279C1515.72 731.821 1511.8 723.607 1504.72 718.915L1335.58 606.911C1328.49 602.22 1319.4 601.816 1311.93 605.862L1060.95 741.748C1056.59 744.108 1053.11 747.814 1051.02 752.312L914.564 1047.11C911.969 1052.72 911.738 1059.13 913.923 1064.91L995.303 1280.14Z" stroke="url(#paint12_linear_118_109)" stroke-opacity="0.15" stroke-width="4"/>
<path opacity="0.202899" d="M964.125 1263.07C967.144 1272.47 975.817 1278.89 985.682 1279.03L1213.93 1282.4C1220.12 1282.49 1226.08 1280.08 1230.47 1275.73L1458.63 1049.3C1462.16 1045.8 1464.46 1041.24 1465.19 1036.32L1506.28 756.701C1507.52 748.308 1504.03 739.918 1497.21 734.871L1335.22 614.952C1328.41 609.905 1319.36 609.02 1311.7 612.65L1056.26 733.598C1051.76 735.727 1048.08 739.256 1045.76 743.657L895.816 1027.98C892.93 1033.46 892.371 1039.86 894.264 1045.75L964.125 1263.07Z" stroke="url(#paint13_linear_118_109)" stroke-opacity="0.15" stroke-width="4"/>
<path opacity="0.217391" d="M933.929 1245.43C936.462 1254.93 944.756 1261.77 954.566 1262.45L1180.48 1278.07C1186.66 1278.49 1192.75 1276.41 1197.38 1272.28L1434.66 1060.53C1438.39 1057.2 1440.93 1052.76 1441.9 1047.86L1496.57 773.406C1498.22 765.1 1495.18 756.557 1488.64 751.169L1334.17 623.776C1327.63 618.387 1318.67 617.026 1310.83 620.231L1051.8 726.15C1047.18 728.04 1043.3 731.382 1040.75 735.672L878.045 1008.93C874.874 1014.26 873.986 1020.63 875.583 1026.62L933.929 1245.43Z" stroke="url(#paint14_linear_118_109)" stroke-opacity="0.15" stroke-width="4"/>
<path opacity="0.231884" d="M904.74 1227.26C906.784 1236.85 914.678 1244.09 924.404 1245.29L1147.33 1272.92C1153.49 1273.69 1159.7 1271.93 1164.54 1268.05L1410.04 1071.29C1413.95 1068.16 1416.73 1063.83 1417.96 1058.97L1485.76 790.329C1487.83 782.132 1485.24 773.46 1479 767.747L1332.38 633.334C1326.15 627.621 1317.28 625.787 1309.29 628.56L1047.55 719.411C1042.81 721.054 1038.74 724.199 1035.96 728.367L861.24 990.006C857.793 995.169 856.579 1001.51 857.874 1007.58L904.74 1227.26Z" stroke="url(#paint15_linear_118_109)" stroke-opacity="0.15" stroke-width="4"/>
<path opacity="0.246377" d="M876.574 1208.64C878.128 1218.28 885.603 1225.89 895.216 1227.62L1114.52 1267C1120.64 1268.1 1126.94 1266.67 1132 1263.04L1384.8 1081.56C1388.88 1078.63 1391.9 1074.43 1393.37 1069.62L1473.87 807.41C1476.34 799.341 1474.2 790.564 1468.29 784.543L1329.82 643.58C1323.91 637.558 1315.17 635.26 1307.06 637.593L1043.45 713.387C1038.61 714.777 1034.37 717.713 1031.36 721.746L845.387 971.265C841.67 976.251 840.131 982.53 841.121 988.67L876.574 1208.64Z" stroke="url(#paint16_linear_118_109)" stroke-opacity="0.15" stroke-width="4"/>
<path opacity="0.26087" d="M849.446 1189.62C850.509 1199.29 857.547 1207.25 867.019 1209.49L1082.09 1260.31C1088.15 1261.74 1094.53 1260.65 1099.78 1257.29L1358.97 1091.3C1363.22 1088.58 1366.46 1084.53 1368.18 1079.78L1460.88 824.584C1463.76 816.664 1462.07 807.806 1456.49 801.495L1326.46 654.464C1320.88 648.152 1312.3 645.398 1304.08 647.284L1039.46 708.079C1034.54 709.209 1030.13 711.928 1026.91 715.815L830.464 952.758C826.487 957.554 824.627 963.758 825.307 969.95L849.446 1189.62Z" stroke="url(#paint17_linear_118_109)" stroke-opacity="0.15" stroke-width="4"/>
<path opacity="0.275362" d="M823.373 1170.26C823.946 1179.94 830.531 1188.23 839.835 1190.97L1050.08 1252.89C1056.06 1254.65 1062.51 1253.91 1067.94 1250.83L1332.59 1100.49C1336.99 1097.98 1340.45 1094.09 1342.42 1089.42L1446.81 841.789C1450.08 834.039 1448.86 825.124 1443.62 818.541L1322.29 665.935C1317.05 659.352 1308.64 656.15 1300.35 657.587L1035.56 703.488C1030.57 704.354 1026 706.845 1022.57 710.575L816.458 934.537C812.231 939.129 810.053 945.241 810.422 951.471L823.373 1170.26Z" stroke="url(#paint18_linear_118_109)" stroke-opacity="0.15" stroke-width="4"/>
<path opacity="0.289855" d="M798.353 1150.63C798.439 1160.29 804.555 1168.87 813.663 1172.1L1018.52 1244.77C1024.41 1246.86 1030.9 1246.46 1036.49 1243.66L1305.68 1109.09C1310.23 1106.82 1313.9 1103.1 1316.11 1098.51L1431.67 858.965C1435.31 851.404 1434.55 842.456 1429.68 835.62L1317.26 677.942C1312.38 671.106 1304.17 667.469 1295.84 668.453L1031.7 699.612C1026.65 700.209 1021.94 702.464 1018.3 706.025L803.335 916.649C798.869 921.024 796.377 927.029 796.432 933.281L798.353 1150.63Z" stroke="url(#paint19_linear_118_109)" stroke-opacity="0.15" stroke-width="4"/>
<path opacity="0.304348" d="M774.395 1130.79C773.997 1140.41 779.632 1149.26 788.518 1152.97L987.438 1235.98C993.218 1238.39 999.732 1238.34 1005.47 1235.84L1278.29 1117.1C1282.97 1115.06 1286.85 1111.52 1289.29 1107.03L1415.46 876.051C1419.47 868.697 1419.17 859.74 1414.67 852.672L1311.36 690.433C1306.86 683.365 1298.87 679.304 1290.51 679.833L1027.85 696.449C1022.75 696.772 1017.9 698.783 1014.07 702.165L791.074 899.142C786.38 903.289 783.58 909.17 783.321 915.428L774.395 1130.79Z" stroke="url(#paint20_linear_118_109)" stroke-opacity="0.15" stroke-width="4"/>
<path opacity="0.318841" d="M751.504 1110.8C750.626 1120.35 755.769 1129.44 764.407 1133.61L956.879 1226.55C962.529 1229.27 969.049 1229.57 974.927 1227.38L1250.45 1124.47C1255.26 1122.67 1259.33 1119.32 1262.01 1114.95L1398.21 892.988C1402.58 885.859 1402.74 876.918 1398.62 869.637L1304.59 703.355C1300.47 696.075 1292.73 691.604 1284.37 691.678L1023.96 693.992C1018.83 694.038 1013.86 695.797 1009.85 698.99L779.652 882.063C774.741 885.968 771.639 891.711 771.064 897.959L751.504 1110.8Z" stroke="url(#paint21_linear_118_109)" stroke-opacity="0.15" stroke-width="4"/>
<path opacity="0.333333" d="M729.671 1090.71C728.32 1100.17 732.959 1109.48 741.325 1114.1L926.861 1216.51C932.365 1219.55 938.872 1220.2 944.869 1218.32L1222.2 1131.19C1227.12 1129.65 1231.37 1126.5 1234.28 1122.25L1379.92 909.718C1384.64 902.832 1385.26 893.93 1381.53 886.458L1296.92 716.655C1293.19 709.184 1285.72 704.317 1277.38 703.937L1020 692.235C1014.85 692.001 1009.78 693.501 1005.59 696.495L769.029 865.453C763.914 869.107 760.517 874.695 759.628 880.918L729.671 1090.71Z" stroke="url(#paint22_linear_118_109)" stroke-opacity="0.15" stroke-width="4"/>
<path opacity="0.347826" d="M708.891 1070.6C707.075 1079.95 711.202 1089.44 719.273 1094.49L897.415 1205.91C902.754 1209.25 909.23 1210.25 915.33 1208.69L1193.59 1137.25C1198.6 1135.97 1203.03 1133.03 1206.16 1128.92L1360.63 926.185C1365.68 919.558 1366.75 910.719 1363.43 903.079L1288.34 730.28C1285.02 722.639 1277.83 717.391 1269.54 716.561L1015.93 691.166C1010.78 690.651 1005.61 691.885 1001.26 694.67L759.178 849.356C753.871 852.747 750.187 858.166 748.985 864.348L708.891 1070.6Z" stroke="url(#paint23_linear_118_109)" stroke-opacity="0.15" stroke-width="4"/>
<path opacity="0.362319" d="M689.152 1050.52C686.878 1059.73 690.487 1069.38 698.239 1074.84L868.559 1194.77C873.718 1198.41 880.143 1199.76 886.329 1198.52L1164.63 1142.63C1169.72 1141.61 1174.32 1138.89 1177.67 1134.92L1340.36 942.334C1345.72 935.983 1347.24 927.23 1344.33 919.442L1278.84 744.175C1275.93 736.386 1269.05 730.775 1260.83 729.498L1011.72 690.775C1006.59 689.977 1001.33 690.94 996.818 693.508L750.057 833.808C744.572 836.927 740.609 842.162 739.096 848.288L689.152 1050.52Z" stroke="url(#paint24_linear_118_109)" stroke-opacity="0.15" stroke-width="4"/>
<path opacity="0.376812" d="M670.443 1030.53C667.723 1039.57 670.806 1049.36 678.219 1055.21L840.32 1183.14C845.282 1187.06 851.638 1188.76 857.893 1187.85L1135.38 1147.31C1140.55 1146.56 1145.3 1144.07 1148.86 1140.26L1319.13 958.114C1324.79 952.053 1326.75 943.41 1324.26 935.496L1268.43 758.287C1265.93 750.374 1259.37 744.416 1251.26 742.698L1007.33 691.049C1002.23 689.968 996.906 690.655 992.243 692.996L741.633 818.849C735.984 821.686 731.751 826.723 729.93 832.777L670.443 1030.53Z" stroke="url(#paint25_linear_118_109)" stroke-opacity="0.15" stroke-width="4"/>
<path opacity="0.391304" d="M652.752 1010.68C649.596 1019.54 652.151 1029.43 659.204 1035.65L812.72 1171.06C817.471 1175.25 823.738 1177.3 830.046 1176.71L1105.89 1151.29C1111.11 1150.81 1116 1148.56 1119.77 1144.92L1296.98 973.473C1302.93 967.716 1305.32 959.205 1303.25 951.189L1257.1 772.564C1255.03 764.548 1248.81 758.264 1240.81 756.11L1002.73 691.973C997.673 690.61 992.3 691.016 987.502 693.123L733.871 804.512C728.072 807.059 723.579 811.885 721.453 817.852L652.752 1010.68Z" stroke="url(#paint26_linear_118_109)" stroke-opacity="0.15" stroke-width="4"/>
<path opacity="0.405797" d="M636.049 991.034C632.469 999.688 634.493 1009.65 641.167 1016.22L785.767 1158.56C790.29 1163.01 796.451 1165.39 802.793 1165.15L1076.18 1154.55C1081.44 1154.35 1086.47 1152.34 1090.43 1148.88L1273.93 988.363C1280.15 982.924 1282.97 974.567 1281.33 966.471L1244.84 786.952C1243.2 778.856 1237.33 772.264 1229.49 769.684L997.886 693.53C992.886 691.886 987.473 692.007 982.551 693.872L726.718 790.829C720.784 793.078 716.042 797.679 713.616 803.543L636.049 991.034Z" stroke="url(#paint27_linear_118_109)" stroke-opacity="0.15" stroke-width="4"/>
<path opacity="0.42029" d="M620.328 971.642C616.337 980.07 617.83 990.074 624.108 996.969L759.492 1145.68C763.773 1150.38 769.81 1153.1 776.168 1153.19L1046.3 1157.09C1051.59 1157.17 1056.74 1155.42 1060.89 1152.14L1250.04 1002.74C1256.5 997.629 1259.74 989.449 1258.53 981.295L1231.68 801.401C1230.46 793.248 1224.98 786.369 1217.3 783.371L992.774 695.703C987.849 693.779 982.411 693.612 977.377 695.229L720.15 777.83C714.096 779.774 709.116 784.138 706.395 789.885L620.328 971.642Z" stroke="url(#paint28_linear_118_109)" stroke-opacity="0.15" stroke-width="4"/>
<path opacity="0.434783" d="M605.548 952.556C601.16 960.738 602.123 970.756 607.988 977.954L733.892 1132.46C737.917 1137.4 743.81 1140.45 750.167 1140.88L1016.3 1158.9C1021.6 1159.26 1026.86 1157.78 1031.18 1154.7L1225.32 1016.56C1232.02 1011.79 1235.67 1003.8 1234.88 995.616L1217.61 815.857C1216.82 807.67 1211.72 800.526 1204.24 797.121L987.351 698.47C982.516 696.27 977.068 695.812 971.933 697.174L714.106 765.541C707.947 767.174 702.742 771.289 699.731 776.904L605.548 952.556Z" stroke="url(#paint29_linear_118_109)" stroke-opacity="0.15" stroke-width="4"/>
<path opacity="0.449275" d="M591.684 933.826C586.915 941.744 587.35 951.747 592.787 959.222L708.981 1118.94C712.737 1124.11 718.469 1127.48 724.807 1128.25L986.197 1159.99C991.496 1160.63 996.853 1159.42 1001.35 1156.54L1199.82 1029.77C1206.74 1025.36 1210.78 1017.59 1210.42 1009.39L1202.64 830.272C1202.28 822.074 1197.58 814.687 1190.31 810.887L981.592 701.811C976.862 699.339 971.419 698.589 966.197 699.689L708.545 753.987C702.298 755.303 696.879 759.157 693.585 764.626L591.684 933.826Z" stroke="url(#paint30_linear_118_109)" stroke-opacity="0.15" stroke-width="4"/>
<path opacity="0.463768" d="M578.706 915.499C573.572 923.135 573.483 933.096 578.48 940.823L684.767 1105.17C688.241 1110.54 693.796 1114.23 700.097 1115.33L956.05 1160.35C961.332 1161.28 966.773 1160.33 971.431 1157.68L1173.59 1042.35C1180.7 1038.3 1185.12 1030.77 1185.19 1022.58L1186.78 844.597C1186.86 836.411 1182.57 828.803 1175.54 824.62L975.47 705.703C970.86 702.963 965.437 701.92 960.14 702.754L703.422 743.188C697.103 744.184 691.483 747.766 687.914 753.075L578.706 915.499Z" stroke="url(#paint31_linear_118_109)" stroke-opacity="0.15" stroke-width="4"/>
<path opacity="0.478261" d="M566.592 897.623C561.109 904.959 560.502 914.85 565.046 922.802L661.266 1091.18C664.447 1096.75 669.806 1100.74 676.052 1102.18L925.905 1159.99C931.155 1161.2 936.666 1160.53 941.474 1158.1L1146.67 1054.26C1153.96 1050.57 1158.75 1043.3 1159.25 1035.15L1170.07 858.783C1170.57 850.632 1166.71 842.827 1159.93 838.276L968.968 710.123C964.493 707.12 959.105 705.783 953.746 706.347L698.699 733.165C692.324 733.835 686.517 737.136 682.68 742.271L566.592 897.623Z" stroke="url(#paint32_linear_118_109)" stroke-opacity="0.15" stroke-width="4"/>
<path opacity="0.492754" d="M555.29 880.239C549.477 887.26 548.359 897.052 552.44 905.203L638.467 1077.02C641.343 1082.76 646.49 1087.04 652.663 1088.82L895.786 1158.9C900.99 1160.4 906.557 1160.02 911.505 1157.81L1119.11 1065.46C1126.55 1062.15 1131.69 1055.15 1132.61 1047.05L1152.5 872.784C1153.43 864.69 1150 856.712 1143.49 851.809L962.046 715.045C957.721 711.785 952.385 710.156 946.976 710.444L694.314 723.931C687.899 724.274 681.92 727.283 677.824 732.231L555.29 880.239Z" stroke="url(#paint33_linear_118_109)" stroke-opacity="0.15" stroke-width="4"/>
<path opacity="0.507246" d="M544.772 863.389C538.647 870.081 537.027 879.747 540.636 888.07L616.38 1062.72C618.941 1068.62 623.86 1073.18 629.942 1075.29L865.744 1157.1C870.886 1158.89 876.495 1158.79 881.572 1156.83L1090.94 1075.92C1098.52 1073 1103.99 1066.28 1105.34 1058.27L1134.11 886.556C1135.45 878.542 1132.47 870.415 1126.26 865.175L954.692 720.443C950.532 716.933 945.261 715.012 939.818 715.023L690.228 715.501C683.791 715.513 677.653 718.223 673.306 722.971L544.772 863.389Z" stroke="url(#paint34_linear_118_109)" stroke-opacity="0.15" stroke-width="4"/>
<path opacity="0.521739" d="M534.996 847.111C528.578 853.458 526.467 862.974 529.597 871.441L595 1048.32C597.237 1054.37 601.913 1059.2 607.886 1061.64L835.813 1154.6C840.879 1156.67 846.516 1156.86 851.711 1155.15L1062.23 1085.63C1069.93 1083.08 1075.72 1076.68 1077.47 1068.77L1114.91 900.055C1116.67 892.143 1114.13 883.891 1108.23 878.333L946.881 726.289C942.899 722.537 937.71 720.327 932.245 720.056L686.389 707.883C679.946 707.564 673.665 709.966 669.079 714.502L534.996 847.111Z" stroke="url(#paint35_linear_118_109)" stroke-opacity="0.15" stroke-width="4"/>
<path opacity="0.536232" d="M525.92 831.44C519.229 837.431 516.637 846.769 519.283 855.352L574.324 1033.86C576.229 1040.04 580.646 1045.13 586.494 1047.89L806.031 1151.41C811.006 1153.76 816.657 1154.24 821.959 1152.78L1033.02 1094.54C1040.81 1092.39 1046.9 1086.31 1049.06 1078.52L1094.93 913.24C1097.09 905.451 1095.01 897.1 1089.44 891.242L938.592 732.556C934.802 728.57 929.71 726.074 924.237 725.52L682.748 701.086C676.316 700.435 669.907 702.521 665.091 706.834L525.92 831.44Z" stroke="url(#paint36_linear_118_109)" stroke-opacity="0.15" stroke-width="4"/>
<path opacity="0.550725" d="M517.503 816.409C510.559 822.032 507.5 831.168 509.658 839.839L554.35 1019.39C555.915 1025.67 560.059 1031.01 565.763 1034.08L776.439 1147.54C781.308 1150.16 786.958 1150.94 792.355 1149.74L1003.35 1102.65C1011.22 1100.89 1017.59 1095.15 1020.15 1087.5L1074.21 926.071C1076.76 918.427 1075.14 910.002 1069.91 903.863L929.81 739.215C926.226 735.004 921.245 732.224 915.78 731.386L679.259 695.113C672.855 694.131 666.334 695.895 661.299 699.972L517.503 816.409Z" stroke="url(#paint37_linear_118_109)" stroke-opacity="0.15" stroke-width="4"/>
<path opacity="0.565217" d="M509.697 802.048C502.521 807.292 499.009 816.203 500.676 824.933L535.064 1004.93C536.283 1011.31 540.14 1016.87 545.684 1020.25L747.068 1143.01C751.816 1145.9 757.451 1146.98 762.93 1146.04L973.289 1109.93C981.211 1108.57 987.849 1103.18 990.796 1095.7L1052.75 938.51C1055.7 931.032 1054.53 922.558 1049.67 916.159L920.514 746.235C917.149 741.808 912.296 738.75 906.851 737.627L675.868 689.965C669.509 688.653 662.891 690.09 657.649 693.921L509.697 802.048Z" stroke="url(#paint38_linear_118_109)" stroke-opacity="0.15" stroke-width="4"/>
<path opacity="0.57971" d="M502.462 788.384C495.075 793.241 491.125 801.903 492.303 810.665L516.466 990.529C517.332 996.979 520.89 1002.76 526.258 1006.44L717.961 1137.83C722.573 1140.99 728.177 1142.37 733.728 1141.69L942.884 1116.38C950.84 1115.42 957.722 1110.38 961.047 1103.09L1030.61 950.525C1033.94 943.232 1033.23 934.735 1028.74 928.096L910.696 753.587C907.564 748.956 902.852 745.625 897.442 744.216L672.534 685.643C666.237 684.003 659.539 685.107 654.102 688.682L502.462 788.384Z" stroke="url(#paint39_linear_118_109)" stroke-opacity="0.15" stroke-width="4"/>
<path opacity="0.594203" d="M495.745 775.442C488.169 779.903 483.799 788.294 484.486 797.059L498.536 976.221C499.046 982.723 502.292 988.703 507.467 992.673L689.145 1132.03C693.606 1135.45 699.166 1137.12 704.774 1136.72L912.182 1121.97C920.153 1121.41 927.259 1116.74 930.95 1109.66L1007.81 962.08C1011.5 954.992 1011.25 946.497 1007.15 939.64L900.338 761.239C897.45 756.415 892.895 752.816 887.533 751.122L669.202 682.14C662.983 680.175 656.223 680.943 650.603 684.252L495.745 775.442Z" stroke="url(#paint40_linear_118_109)" stroke-opacity="0.15" stroke-width="4"/>
<path opacity="0.608696" d="M489.503 763.242C481.759 767.301 476.987 775.399 477.187 784.14L481.266 962.04C481.415 968.575 484.339 974.737 489.305 978.988L660.657 1125.62C664.953 1129.3 670.454 1131.26 676.107 1131.14L881.242 1126.71C889.207 1126.54 896.515 1122.26 900.56 1115.39L984.392 973.144C988.437 966.281 988.642 957.813 984.934 950.761L889.432 769.16C886.8 764.155 882.416 760.295 877.118 758.318L665.83 679.451C659.706 677.165 652.899 677.593 647.109 680.628L489.503 763.242Z" stroke="url(#paint41_linear_118_109)" stroke-opacity="0.15" stroke-width="4"/>
<path opacity="0.623188" d="M483.685 751.802C475.796 755.453 470.639 763.24 470.357 771.928L464.638 948.019C464.425 954.567 467.016 960.896 471.758 965.416L632.527 1118.63C636.644 1122.55 642.07 1124.81 647.756 1124.97L850.113 1130.59C858.051 1130.81 865.542 1126.92 869.927 1120.29L960.384 983.69C964.769 977.069 965.428 968.653 962.126 961.43L877.967 777.319C875.603 772.145 871.405 768.032 866.184 765.773L662.369 677.565C656.356 674.963 649.519 675.048 643.573 677.8L483.685 751.802Z" stroke="url(#paint42_linear_118_109)" stroke-opacity="0.15" stroke-width="4"/>
<path opacity="0.637681" d="M478.236 741.138C470.225 744.377 464.705 751.833 463.946 760.441L448.632 934.192C448.055 940.734 450.302 947.209 454.807 951.988L604.779 1111.08C608.704 1115.25 614.041 1117.8 619.746 1118.24L818.843 1133.6C826.736 1134.21 834.387 1130.71 839.097 1124.35L935.822 993.692C940.532 987.329 941.639 978.991 938.752 971.619L865.932 785.683C863.845 780.354 859.847 775.995 854.718 773.457L658.768 676.47C652.883 673.557 646.033 673.299 639.945 675.76L478.236 741.138Z" stroke="url(#paint43_linear_118_109)" stroke-opacity="0.15" stroke-width="4"/>
<path opacity="0.652174" d="M473.116 731.26C465.004 734.084 459.141 741.193 457.913 749.695L433.235 920.59C432.294 927.104 434.19 933.71 438.442 938.734L577.45 1103C581.169 1107.4 586.401 1110.24 592.113 1110.96L787.491 1135.74C795.319 1136.74 803.109 1133.65 808.129 1127.56L910.75 1003.12C915.77 997.037 917.319 988.801 914.854 981.306L853.326 794.22C851.528 788.751 847.743 784.155 842.72 781.341L654.99 676.152C649.248 672.935 642.402 672.332 636.186 674.495L473.116 731.26Z" stroke="url(#paint44_linear_118_109)" stroke-opacity="0.15" stroke-width="4"/>
<path opacity="0.666667" d="M468.274 722.179C460.084 724.586 453.9 731.332 452.213 739.7L418.429 907.242C417.125 913.71 418.661 920.426 422.647 925.683L550.566 1094.42C554.066 1099.04 559.18 1102.16 564.884 1103.17L756.11 1137.03C763.853 1138.4 771.76 1135.72 777.074 1129.93L885.209 1011.97C890.523 1006.17 892.507 998.062 890.469 990.467L840.149 802.899C838.648 797.304 835.09 792.481 830.187 789.394L650.992 676.593C645.409 673.078 638.585 672.13 632.255 673.991L468.274 722.179Z" stroke="url(#paint45_linear_118_109)" stroke-opacity="0.15" stroke-width="4"/>
<path opacity="0.681159" d="M463.654 713.901C455.408 715.89 448.926 722.257 446.789 730.466L404.185 894.178C402.519 900.578 403.689 907.386 407.396 912.862L524.146 1085.36C527.414 1090.19 532.394 1093.59 538.079 1094.89L724.743 1137.47C732.383 1139.21 740.385 1136.95 745.976 1131.45L859.232 1020.21C864.822 1014.71 867.232 1006.75 865.626 999.083L826.389 811.688C825.194 805.981 821.877 800.941 817.107 797.587L646.725 677.773C641.315 673.969 634.53 672.677 628.101 674.228L463.654 713.901Z" stroke="url(#paint46_linear_118_109)" stroke-opacity="0.15" stroke-width="4"/>
<path opacity="0.695652" d="M459.215 706.427C450.935 708 444.178 713.975 441.604 722.001L390.488 881.424C388.464 887.737 389.262 894.616 392.678 900.297L498.222 1075.85C501.245 1080.88 506.077 1084.57 511.728 1086.15L693.449 1137.07C700.968 1139.17 709.042 1137.32 714.891 1132.15L832.867 1027.82C838.716 1022.65 841.542 1014.86 840.37 1007.14L812.056 820.554C811.175 814.752 808.11 809.506 803.488 805.89L642.156 679.67C636.935 675.586 630.205 673.952 623.693 675.189L459.215 706.427Z" stroke="url(#paint47_linear_118_109)" stroke-opacity="0.15" stroke-width="4"/>
<path opacity="0.710145" d="M454.898 699.758C446.606 700.916 439.598 706.488 436.601 714.305L377.306 869.006C374.927 875.211 375.349 882.141 378.462 888.012L472.804 1065.93C475.572 1071.15 480.241 1075.11 485.845 1076.98L662.268 1135.84C669.647 1138.3 677.772 1136.86 683.861 1132.02L806.148 1034.79C812.237 1029.95 815.466 1022.36 814.73 1014.62L797.141 829.466C796.582 823.585 793.782 818.144 789.321 814.272L637.238 682.261C632.22 677.905 625.563 675.932 618.981 676.851L454.898 699.758Z" stroke="url(#paint48_linear_118_109)" stroke-opacity="0.15" stroke-width="4"/>
<path opacity="0.724638" d="M450.661 693.891C442.379 694.636 435.145 699.795 431.74 707.381L364.619 856.946C361.892 863.024 361.933 869.985 364.733 876.03L447.921 1055.63C450.421 1061.02 454.914 1065.24 460.457 1067.4L631.253 1133.8C638.476 1136.6 646.628 1135.58 652.939 1131.09L779.121 1041.12C785.432 1036.62 789.052 1029.25 788.752 1021.5L781.654 838.392C781.424 832.449 778.9 826.826 774.613 822.704L631.94 685.517C627.139 680.9 620.571 678.591 613.936 679.189L450.661 693.891Z" stroke="url(#paint49_linear_118_109)" stroke-opacity="0.15" stroke-width="4"/>
<path opacity="0.73913" d="M446.451 688.819C438.2 689.157 430.764 693.893 426.967 701.226L352.397 845.267C349.326 851.198 348.985 858.17 351.462 864.371L423.583 1044.97C425.804 1050.54 430.107 1055.01 435.577 1057.45L600.445 1130.96C607.496 1134.1 615.653 1133.5 622.165 1129.35L751.824 1046.79C758.335 1042.65 762.333 1035.51 762.466 1027.79L765.595 847.302C765.699 841.315 763.463 835.522 759.363 831.157L626.221 689.412C621.649 684.544 615.187 681.904 608.515 682.178L446.451 688.819Z" stroke="url(#paint50_linear_118_109)" stroke-opacity="0.15" stroke-width="4"/>
<path opacity="0.753623" d="M442.225 684.535C434.027 684.471 426.414 688.776 422.243 695.835L340.616 833.99C337.21 839.754 336.485 846.715 338.63 853.057L399.812 1034C401.744 1039.72 405.843 1044.44 411.225 1047.16L569.895 1127.36C576.757 1130.82 584.898 1130.63 591.591 1126.85L724.302 1051.8C730.995 1048.02 735.354 1041.14 735.918 1033.47L748.975 856.167C749.418 850.152 747.48 844.204 743.58 839.603L620.051 693.914C615.722 688.808 609.382 685.842 602.688 685.789L442.225 684.535Z" stroke="url(#paint51_linear_118_109)" stroke-opacity="0.15" stroke-width="4"/>
<path opacity="0.768116" d="M437.936 681.027C429.811 680.567 422.047 684.436 417.521 691.2L329.248 823.133C325.516 828.71 324.406 835.64 326.21 842.105L376.619 1022.75C378.252 1028.6 382.134 1033.57 387.417 1036.57L539.643 1123C546.302 1126.78 554.405 1127 561.258 1123.59L696.596 1056.15C703.449 1052.73 708.153 1046.13 709.144 1038.54L731.8 864.955C732.586 858.931 730.957 852.841 727.269 848.014L613.399 698.993C609.324 693.66 603.123 690.373 596.423 689.994L437.936 681.027Z" stroke="url(#paint52_linear_118_109)" stroke-opacity="0.15" stroke-width="4"/>
<path opacity="0.782609" d="M433.537 678.28C425.505 677.432 417.616 680.86 412.755 687.311L318.261 812.711C314.212 818.084 312.719 824.961 314.175 831.53L354.015 1011.25C355.34 1017.22 358.991 1022.42 364.161 1025.7L509.73 1117.93C516.17 1122.01 524.214 1122.63 531.207 1119.59L668.745 1059.82C675.737 1056.79 680.77 1050.48 682.181 1042.99L714.078 873.638C715.211 867.624 713.9 861.406 710.436 856.361L606.233 704.613C602.424 699.066 596.377 695.465 589.686 694.759L433.537 678.28Z" stroke="url(#paint53_linear_118_109)" stroke-opacity="0.15" stroke-width="4"/>
<path opacity="0.797101" d="M428.986 676.278C421.065 675.051 413.077 678.035 407.902 684.156L307.628 802.74C303.273 807.891 301.398 814.694 302.5 821.348L332.01 999.535C333.017 1005.62 336.425 1011.04 341.469 1014.59L480.195 1112.16C486.404 1116.53 494.367 1117.55 501.477 1114.89L640.791 1062.84C647.901 1060.18 653.242 1054.19 655.066 1046.82L695.821 882.187C697.303 876.202 696.319 869.872 693.09 864.618L598.525 710.74C594.994 704.993 589.117 701.086 582.451 700.053L428.986 676.278Z" stroke="url(#paint54_linear_118_109)" stroke-opacity="0.15" stroke-width="4"/>
<path opacity="0.811594" d="M424.242 675.001C416.452 673.404 408.391 675.944 402.923 681.718L297.322 793.232C292.672 798.143 290.419 804.851 291.162 811.573L310.614 987.644C311.296 993.821 314.449 999.458 319.354 1003.27L451.079 1105.73C457.043 1110.37 464.905 1111.78 472.112 1109.51L612.776 1065.19C619.982 1062.92 625.614 1057.26 627.842 1050.04L677.045 890.576C678.877 884.639 678.228 878.212 675.247 872.76L590.256 717.337C587.011 711.404 581.319 707.199 574.694 705.841L424.242 675.001Z" stroke="url(#paint55_linear_118_109)" stroke-opacity="0.15" stroke-width="4"/>
<path opacity="0.826087" d="M419.26 674.429C411.62 672.473 403.51 674.568 397.773 679.981L287.307 784.2C282.375 788.853 279.748 795.445 280.127 802.214L289.828 975.613C290.177 981.866 293.063 987.707 297.816 991.785L422.412 1098.67C428.119 1103.57 435.86 1105.36 443.141 1103.48L584.735 1066.9C592.016 1065.01 597.917 1059.69 600.538 1052.64L657.757 898.778C659.94 892.908 659.634 886.401 656.911 880.761L581.396 724.368C578.447 718.262 572.955 713.768 566.387 712.087L419.26 674.429Z" stroke="url(#paint56_linear_118_109)" stroke-opacity="0.15" stroke-width="4"/>
<path opacity="0.84058" d="M414.002 674.536C406.528 672.233 398.396 673.886 392.414 678.924L277.554 775.651C272.354 780.029 269.358 786.484 269.369 793.282L269.655 963.476C269.665 969.79 272.271 975.822 276.861 980.158L394.226 1091.02C399.666 1096.15 407.266 1098.33 414.6 1096.83L556.706 1067.95C564.04 1066.46 570.19 1061.5 573.192 1054.64L637.973 906.767C640.507 900.984 640.551 894.413 638.096 888.596L571.925 731.792C569.282 725.529 564.004 720.756 557.507 718.754L414.002 674.536Z" stroke="url(#paint57_linear_118_109)" stroke-opacity="0.15" stroke-width="4"/>
<path opacity="0.855072" d="M408.436 675.298C401.145 672.661 393.016 673.874 386.812 678.525L268.036 767.593C262.583 771.682 259.224 777.979 258.866 784.785L250.102 951.27C249.767 957.628 252.083 963.84 256.497 968.427L366.557 1082.8C371.72 1088.17 379.161 1090.7 386.525 1089.6L528.733 1068.38C536.097 1067.28 542.474 1062.68 545.845 1056.04L617.716 914.52C620.598 908.843 620.999 902.226 618.823 896.243L561.832 739.571C559.502 733.166 554.451 728.124 548.042 725.805L408.436 675.298Z" stroke="url(#paint58_linear_118_109)" stroke-opacity="0.15" stroke-width="4"/>
<path opacity="0.869565" d="M402.523 676.687C395.431 673.728 387.33 674.506 380.931 678.762L258.721 760.031C253.031 763.815 249.318 769.934 248.589 776.728L231.166 939.03C230.481 945.414 232.495 951.793 236.722 956.626L339.432 1074.06C344.308 1079.64 351.572 1082.53 358.945 1081.82L500.849 1068.18C508.222 1067.48 514.802 1063.26 518.528 1056.86L597 922.012C600.229 916.462 600.992 909.816 599.103 903.679L551.097 747.664C549.088 741.132 544.278 735.833 537.971 733.201L402.523 676.687Z" stroke="url(#paint59_linear_118_109)" stroke-opacity="0.15" stroke-width="4"/>
<path opacity="0.884058" d="M396.229 678.672C389.35 675.406 381.301 675.756 374.732 679.606L249.575 752.969C243.664 756.434 239.606 762.354 238.505 769.116L212.84 926.791C211.8 933.183 213.503 939.718 217.53 944.79L312.872 1064.84C317.453 1070.61 324.521 1073.84 331.881 1073.52L473.085 1067.38C480.445 1067.06 487.207 1063.24 491.271 1057.09L575.839 929.221C579.412 923.819 580.541 917.161 578.95 910.883L539.706 756.029C538.023 749.387 533.466 743.842 527.277 740.902L396.229 678.672Z" stroke="url(#paint60_linear_118_109)" stroke-opacity="0.15" stroke-width="4"/>
<path opacity="0.898551" d="M389.524 681.223C382.873 677.664 374.9 677.593 368.187 681.032L240.571 746.409C234.457 749.541 230.063 755.242 228.592 761.953L195.124 914.589C193.725 920.971 195.106 927.648 198.923 932.951L286.903 1055.18C291.182 1061.13 298.039 1064.68 305.364 1064.74L445.479 1066C452.805 1066.06 459.724 1062.63 464.109 1056.77L554.258 936.126C558.17 930.892 559.67 924.241 558.385 917.835L527.651 764.625C526.3 757.889 522.008 752.11 515.951 748.869L389.524 681.223Z" stroke="url(#paint61_linear_118_109)" stroke-opacity="0.15" stroke-width="4"/>
<path opacity="0.913043" d="M382.382 684.306C375.972 680.47 368.098 679.987 361.267 683.01L231.68 740.35C225.381 743.137 220.663 748.601 218.823 755.238L178.012 902.457C176.251 908.812 177.301 915.616 180.897 921.144L261.546 1045.12C265.518 1051.22 272.147 1055.09 279.416 1055.53L418.064 1064.04C425.334 1064.49 432.386 1061.46 437.075 1055.89L532.278 942.709C536.523 937.663 538.398 931.038 537.426 924.516L514.925 773.411C513.91 766.598 509.895 760.598 503.985 757.062L382.382 684.306Z" stroke="url(#paint62_linear_118_109)" stroke-opacity="0.15" stroke-width="4"/>
<path opacity="0.927536" d="M374.771 687.886C368.613 683.79 360.861 682.906 353.939 685.508L222.867 734.79C216.402 737.221 211.372 742.428 209.166 748.973L161.49 890.431C159.364 896.738 160.075 903.657 163.438 909.4L236.814 1034.69C240.473 1040.94 246.859 1045.1 254.052 1045.92L390.866 1061.54C398.059 1062.36 405.219 1059.75 410.191 1054.48L509.915 948.949C514.487 944.112 516.738 937.531 516.088 930.908L501.517 782.344C500.843 775.47 497.116 769.264 491.365 765.439L374.771 687.886Z" stroke="url(#paint63_linear_118_109)" stroke-opacity="0.15" stroke-width="4"/>
<path opacity="0.942029" d="M366.676 691.929C360.781 687.589 353.173 686.315 346.186 688.496L214.111 729.727C207.501 731.791 202.172 736.723 199.604 743.155L145.556 878.543C143.064 884.783 143.427 891.801 146.547 897.752L212.73 1023.95C216.071 1030.32 222.202 1034.76 229.298 1035.95L363.921 1058.51C371.017 1059.7 378.26 1057.5 383.496 1052.56L487.2 954.831C492.091 950.223 494.721 943.706 494.4 936.994L487.435 791.383C487.104 784.466 483.674 778.066 478.097 773.96L366.676 691.929Z" stroke="url(#paint64_linear_118_109)" stroke-opacity="0.15" stroke-width="4"/>
<path opacity="0.956522" d="M358.066 696.397C352.445 691.831 345.001 690.179 337.976 691.939L205.375 725.155C198.64 726.842 193.027 731.482 190.103 737.78L130.188 866.825C127.331 872.98 127.337 880.082 130.205 886.232L189.297 1012.94C192.319 1019.41 198.18 1024.12 205.159 1025.67L337.248 1054.98C344.227 1056.53 351.529 1054.75 357.007 1050.15L464.148 960.339C469.348 955.979 472.358 949.546 472.372 942.76L472.667 800.485C472.682 793.541 469.559 786.963 464.169 782.585L358.066 696.397Z" stroke="url(#paint65_linear_118_109)" stroke-opacity="0.15" stroke-width="4"/>
<path opacity="0.971014" d="M348.928 701.252C343.588 696.477 336.329 694.463 329.293 695.803L196.637 721.066C189.797 722.369 183.916 726.699 180.642 732.843L115.379 855.309C112.156 861.358 111.798 868.53 114.404 874.87L166.53 1001.69C169.23 1008.26 174.811 1013.21 181.652 1015.11L310.879 1050.98C317.72 1052.87 325.055 1051.51 330.753 1047.27L440.786 965.457C446.287 961.367 449.677 955.037 450.032 948.192L457.223 809.608C457.584 802.656 454.776 795.913 449.587 791.272L348.928 701.252Z" stroke="url(#paint66_linear_118_109)" stroke-opacity="0.15" stroke-width="4"/>
<path opacity="0.985507" d="M339.24 706.457C334.191 701.491 327.135 699.128 320.113 700.052L187.864 717.453C180.943 718.364 174.81 722.368 171.192 728.339L101.108 844.026C97.5198 849.949 96.7914 857.174 99.1255 863.695L144.431 990.259C146.808 996.897 152.097 1002.08 158.783 1004.32L284.831 1046.52C291.516 1048.76 298.86 1047.81 304.754 1043.94L417.136 970.174C422.926 966.373 426.695 960.166 427.397 953.276L441.103 818.713C441.811 811.768 439.326 804.878 434.348 799.983L339.24 706.457Z" stroke="url(#paint67_linear_118_109)" stroke-opacity="0.15" stroke-width="4"/>
<path d="M328.993 711.97C324.24 706.832 317.406 704.138 310.425 704.651L179.034 714.305C172.053 714.818 165.686 718.482 161.735 724.26L87.3616 833.005C83.4103 838.782 82.3048 846.044 84.3582 852.736L123.007 978.684C125.061 985.376 130.05 990.768 136.561 993.335L259.129 1041.65C265.641 1044.21 272.968 1043.67 279.034 1040.18L393.225 974.476C399.292 970.985 403.439 964.922 404.492 958.002L424.317 827.757C425.371 820.837 423.216 813.815 418.462 808.677L328.993 711.97Z" stroke="url(#paint68_linear_118_109)" stroke-opacity="0.15" stroke-width="4"/>
<defs>
<linearGradient id="paint0_linear_118_109" x1="1447.8" y1="1431.74" x2="1407.35" y2="500.699" gradientUnits="userSpaceOnUse">
<stop stop-color="#F80068"/>
<stop offset="1" stop-color="#5E17EB" stop-opacity="0.3"/>
</linearGradient>
<linearGradient id="paint1_linear_118_109" x1="1407.1" y1="1426.51" x2="1415.35" y2="502.844" gradientUnits="userSpaceOnUse">
<stop stop-color="#F80068"/>
<stop offset="1" stop-color="#5E17EB" stop-opacity="0.3"/>
</linearGradient>
<linearGradient id="paint2_linear_118_109" x1="1366.81" y1="1420.05" x2="1422.89" y2="506.297" gradientUnits="userSpaceOnUse">
<stop stop-color="#F80068"/>
<stop offset="1" stop-color="#5E17EB" stop-opacity="0.3"/>
</linearGradient>
<linearGradient id="paint3_linear_118_109" x1="1327.02" y1="1412.42" x2="1429.91" y2="511.021" gradientUnits="userSpaceOnUse">
<stop stop-color="#F80068"/>
<stop offset="1" stop-color="#5E17EB" stop-opacity="0.3"/>
</linearGradient>
<linearGradient id="paint4_linear_118_109" x1="1287.78" y1="1403.64" x2="1436.34" y2="516.974" gradientUnits="userSpaceOnUse">
<stop stop-color="#F80068"/>
<stop offset="1" stop-color="#5E17EB" stop-opacity="0.3"/>
</linearGradient>
<linearGradient id="paint5_linear_118_109" x1="1249.14" y1="1393.75" x2="1442.12" y2="524.112" gradientUnits="userSpaceOnUse">
<stop stop-color="#F80068"/>
<stop offset="1" stop-color="#5E17EB" stop-opacity="0.3"/>
</linearGradient>
<linearGradient id="paint6_linear_118_109" x1="1211.15" y1="1382.81" x2="1447.19" y2="532.389" gradientUnits="userSpaceOnUse">
<stop stop-color="#F80068"/>
<stop offset="1" stop-color="#5E17EB" stop-opacity="0.3"/>
</linearGradient>
<linearGradient id="paint7_linear_118_109" x1="1173.89" y1="1370.86" x2="1451.49" y2="541.753" gradientUnits="userSpaceOnUse">
<stop stop-color="#F80068"/>
<stop offset="1" stop-color="#5E17EB" stop-opacity="0.3"/>
</linearGradient>
<linearGradient id="paint8_linear_118_109" x1="1137.38" y1="1357.94" x2="1454.99" y2="552.154" gradientUnits="userSpaceOnUse">
<stop stop-color="#F80068"/>
<stop offset="1" stop-color="#5E17EB" stop-opacity="0.3"/>
</linearGradient>
<linearGradient id="paint9_linear_118_109" x1="1101.67" y1="1344.11" x2="1457.6" y2="563.535" gradientUnits="userSpaceOnUse">
<stop stop-color="#F80068"/>
<stop offset="1" stop-color="#5E17EB" stop-opacity="0.3"/>
</linearGradient>
<linearGradient id="paint10_linear_118_109" x1="1066.82" y1="1329.43" x2="1459.31" y2="575.84" gradientUnits="userSpaceOnUse">
<stop stop-color="#F80068"/>
<stop offset="1" stop-color="#5E17EB" stop-opacity="0.3"/>
</linearGradient>
<linearGradient id="paint11_linear_118_109" x1="1032.85" y1="1313.93" x2="1460.07" y2="589.008" gradientUnits="userSpaceOnUse">
<stop stop-color="#F80068"/>
<stop offset="1" stop-color="#5E17EB" stop-opacity="0.3"/>
</linearGradient>
<linearGradient id="paint12_linear_118_109" x1="999.803" y1="1297.69" x2="1459.83" y2="602.98" gradientUnits="userSpaceOnUse">
<stop stop-color="#F80068"/>
<stop offset="1" stop-color="#5E17EB" stop-opacity="0.3"/>
</linearGradient>
<linearGradient id="paint13_linear_118_109" x1="967.712" y1="1280.77" x2="1458.58" y2="617.692" gradientUnits="userSpaceOnUse">
<stop stop-color="#F80068"/>
<stop offset="1" stop-color="#5E17EB" stop-opacity="0.3"/>
</linearGradient>
<linearGradient id="paint14_linear_118_109" x1="936.6" y1="1263.21" x2="1456.26" y2="633.08" gradientUnits="userSpaceOnUse">
<stop stop-color="#F80068"/>
<stop offset="1" stop-color="#5E17EB" stop-opacity="0.3"/>
</linearGradient>
<linearGradient id="paint15_linear_118_109" x1="906.497" y1="1245.09" x2="1452.87" y2="649.079" gradientUnits="userSpaceOnUse">
<stop stop-color="#F80068"/>
<stop offset="1" stop-color="#5E17EB" stop-opacity="0.3"/>
</linearGradient>
<linearGradient id="paint16_linear_118_109" x1="877.42" y1="1226.45" x2="1448.37" y2="665.623" gradientUnits="userSpaceOnUse">
<stop stop-color="#F80068"/>
<stop offset="1" stop-color="#5E17EB" stop-opacity="0.3"/>
</linearGradient>
<linearGradient id="paint17_linear_118_109" x1="849.386" y1="1207.38" x2="1442.74" y2="682.645" gradientUnits="userSpaceOnUse">
<stop stop-color="#F80068"/>
<stop offset="1" stop-color="#5E17EB" stop-opacity="0.3"/>
</linearGradient>
<linearGradient id="paint18_linear_118_109" x1="822.415" y1="1187.92" x2="1435.98" y2="700.078" gradientUnits="userSpaceOnUse">
<stop stop-color="#F80068"/>
<stop offset="1" stop-color="#5E17EB" stop-opacity="0.3"/>
</linearGradient>
<linearGradient id="paint19_linear_118_109" x1="796.508" y1="1168.14" x2="1428.07" y2="717.854" gradientUnits="userSpaceOnUse">
<stop stop-color="#F80068"/>
<stop offset="1" stop-color="#5E17EB" stop-opacity="0.3"/>
</linearGradient>
<linearGradient id="paint20_linear_118_109" x1="771.676" y1="1148.11" x2="1419" y2="735.907" gradientUnits="userSpaceOnUse">
<stop stop-color="#F80068"/>
<stop offset="1" stop-color="#5E17EB" stop-opacity="0.3"/>
</linearGradient>
<linearGradient id="paint21_linear_118_109" x1="747.926" y1="1127.88" x2="1408.77" y2="754.169" gradientUnits="userSpaceOnUse">
<stop stop-color="#F80068"/>
<stop offset="1" stop-color="#5E17EB" stop-opacity="0.3"/>
</linearGradient>
<linearGradient id="paint22_linear_118_109" x1="725.251" y1="1107.51" x2="1397.39" y2="772.573" gradientUnits="userSpaceOnUse">
<stop stop-color="#F80068"/>
<stop offset="1" stop-color="#5E17EB" stop-opacity="0.3"/>
</linearGradient>
<linearGradient id="paint23_linear_118_109" x1="703.651" y1="1087.08" x2="1384.85" y2="791.054" gradientUnits="userSpaceOnUse">
<stop stop-color="#F80068"/>
<stop offset="1" stop-color="#5E17EB" stop-opacity="0.3"/>
</linearGradient>
<linearGradient id="paint24_linear_118_109" x1="683.112" y1="1066.64" x2="1371.17" y2="809.546" gradientUnits="userSpaceOnUse">
<stop stop-color="#F80068"/>
<stop offset="1" stop-color="#5E17EB" stop-opacity="0.3"/>
</linearGradient>
<linearGradient id="paint25_linear_118_109" x1="663.628" y1="1046.24" x2="1356.35" y2="827.985" gradientUnits="userSpaceOnUse">
<stop stop-color="#F80068"/>
<stop offset="1" stop-color="#5E17EB" stop-opacity="0.3"/>
</linearGradient>
<linearGradient id="paint26_linear_118_109" x1="645.188" y1="1025.95" x2="1340.42" y2="846.309" gradientUnits="userSpaceOnUse">
<stop stop-color="#F80068"/>
<stop offset="1" stop-color="#5E17EB" stop-opacity="0.3"/>
</linearGradient>
<linearGradient id="paint27_linear_118_109" x1="627.764" y1="1005.83" x2="1323.38" y2="864.456" gradientUnits="userSpaceOnUse">
<stop stop-color="#F80068"/>
<stop offset="1" stop-color="#5E17EB" stop-opacity="0.3"/>
</linearGradient>
<linearGradient id="paint28_linear_118_109" x1="611.351" y1="985.928" x2="1305.28" y2="882.367" gradientUnits="userSpaceOnUse">
<stop stop-color="#F80068"/>
<stop offset="1" stop-color="#5E17EB" stop-opacity="0.3"/>
</linearGradient>
<linearGradient id="paint29_linear_118_109" x1="595.91" y1="966.298" x2="1286.12" y2="899.984" gradientUnits="userSpaceOnUse">
<stop stop-color="#F80068"/>
<stop offset="1" stop-color="#5E17EB" stop-opacity="0.3"/>
</linearGradient>
<linearGradient id="paint30_linear_118_109" x1="581.419" y1="946.994" x2="1265.94" y2="917.25" gradientUnits="userSpaceOnUse">
<stop stop-color="#F80068"/>
<stop offset="1" stop-color="#5E17EB" stop-opacity="0.3"/>
</linearGradient>
<linearGradient id="paint31_linear_118_109" x1="567.848" y1="928.065" x2="1244.76" y2="934.114" gradientUnits="userSpaceOnUse">
<stop stop-color="#F80068"/>
<stop offset="1" stop-color="#5E17EB" stop-opacity="0.3"/>
</linearGradient>
<linearGradient id="paint32_linear_118_109" x1="555.175" y1="909.559" x2="1222.64" y2="950.523" gradientUnits="userSpaceOnUse">
<stop stop-color="#F80068"/>
<stop offset="1" stop-color="#5E17EB" stop-opacity="0.3"/>
</linearGradient>
<linearGradient id="paint33_linear_118_109" x1="543.353" y1="891.521" x2="1199.58" y2="966.428" gradientUnits="userSpaceOnUse">
<stop stop-color="#F80068"/>
<stop offset="1" stop-color="#5E17EB" stop-opacity="0.3"/>
</linearGradient>
<linearGradient id="paint34_linear_118_109" x1="532.352" y1="873.995" x2="1175.65" y2="981.784" gradientUnits="userSpaceOnUse">
<stop stop-color="#F80068"/>
<stop offset="1" stop-color="#5E17EB" stop-opacity="0.3"/>
</linearGradient>
<linearGradient id="paint35_linear_118_109" x1="522.133" y1="857.02" x2="1150.88" y2="996.547" gradientUnits="userSpaceOnUse">
<stop stop-color="#F80068"/>
<stop offset="1" stop-color="#5E17EB" stop-opacity="0.3"/>
</linearGradient>
<linearGradient id="paint36_linear_118_109" x1="512.653" y1="840.634" x2="1125.31" y2="1010.68" gradientUnits="userSpaceOnUse">
<stop stop-color="#F80068"/>
<stop offset="1" stop-color="#5E17EB" stop-opacity="0.3"/>
</linearGradient>
<linearGradient id="paint37_linear_118_109" x1="503.872" y1="824.873" x2="1098.99" y2="1024.13" gradientUnits="userSpaceOnUse">
<stop stop-color="#F80068"/>
<stop offset="1" stop-color="#5E17EB" stop-opacity="0.3"/>
</linearGradient>
<linearGradient id="paint38_linear_118_109" x1="495.743" y1="809.768" x2="1071.96" y2="1036.89" gradientUnits="userSpaceOnUse">
<stop stop-color="#F80068"/>
<stop offset="1" stop-color="#5E17EB" stop-opacity="0.3"/>
</linearGradient>
<linearGradient id="paint39_linear_118_109" x1="488.227" y1="795.35" x2="1044.29" y2="1048.9" gradientUnits="userSpaceOnUse">
<stop stop-color="#F80068"/>
<stop offset="1" stop-color="#5E17EB" stop-opacity="0.3"/>
</linearGradient>
<linearGradient id="paint40_linear_118_109" x1="481.271" y1="781.644" x2="1016" y2="1060.15" gradientUnits="userSpaceOnUse">
<stop stop-color="#F80068"/>
<stop offset="1" stop-color="#5E17EB" stop-opacity="0.3"/>
</linearGradient>
<linearGradient id="paint41_linear_118_109" x1="474.832" y1="768.674" x2="987.169" y2="1070.61" gradientUnits="userSpaceOnUse">
<stop stop-color="#F80068"/>
<stop offset="1" stop-color="#5E17EB" stop-opacity="0.3"/>
</linearGradient>
<linearGradient id="paint42_linear_118_109" x1="468.859" y1="756.46" x2="957.834" y2="1080.25" gradientUnits="userSpaceOnUse">
<stop stop-color="#F80068"/>
<stop offset="1" stop-color="#5E17EB" stop-opacity="0.3"/>
</linearGradient>
<linearGradient id="paint43_linear_118_109" x1="463.297" y1="745.02" x2="928.046" y2="1089.07" gradientUnits="userSpaceOnUse">
<stop stop-color="#F80068"/>
<stop offset="1" stop-color="#5E17EB" stop-opacity="0.3"/>
</linearGradient>
<linearGradient id="paint44_linear_118_109" x1="458.106" y1="734.368" x2="897.865" y2="1097.03" gradientUnits="userSpaceOnUse">
<stop stop-color="#F80068"/>
<stop offset="1" stop-color="#5E17EB" stop-opacity="0.3"/>
</linearGradient>
<linearGradient id="paint45_linear_118_109" x1="453.234" y1="724.514" x2="867.348" y2="1104.14" gradientUnits="userSpaceOnUse">
<stop stop-color="#F80068"/>
<stop offset="1" stop-color="#5E17EB" stop-opacity="0.3"/>
</linearGradient>
<linearGradient id="paint46_linear_118_109" x1="448.626" y1="715.469" x2="836.54" y2="1110.38" gradientUnits="userSpaceOnUse">
<stop stop-color="#F80068"/>
<stop offset="1" stop-color="#5E17EB" stop-opacity="0.3"/>
</linearGradient>
<linearGradient id="paint47_linear_118_109" x1="444.238" y1="707.236" x2="805.504" y2="1115.74" gradientUnits="userSpaceOnUse">
<stop stop-color="#F80068"/>
<stop offset="1" stop-color="#5E17EB" stop-opacity="0.3"/>
</linearGradient>
<linearGradient id="paint48_linear_118_109" x1="440.013" y1="699.817" x2="774.285" y2="1120.23" gradientUnits="userSpaceOnUse">
<stop stop-color="#F80068"/>
<stop offset="1" stop-color="#5E17EB" stop-opacity="0.3"/>
</linearGradient>
<linearGradient id="paint49_linear_118_109" x1="435.907" y1="693.211" x2="742.942" y2="1123.85" gradientUnits="userSpaceOnUse">
<stop stop-color="#F80068"/>
<stop offset="1" stop-color="#5E17EB" stop-opacity="0.3"/>
</linearGradient>
<linearGradient id="paint50_linear_118_109" x1="431.865" y1="687.415" x2="711.524" y2="1126.59" gradientUnits="userSpaceOnUse">
<stop stop-color="#F80068"/>
<stop offset="1" stop-color="#5E17EB" stop-opacity="0.3"/>
</linearGradient>
<linearGradient id="paint51_linear_118_109" x1="427.845" y1="682.423" x2="680.086" y2="1128.48" gradientUnits="userSpaceOnUse">
<stop stop-color="#F80068"/>
<stop offset="1" stop-color="#5E17EB" stop-opacity="0.3"/>
</linearGradient>
<linearGradient id="paint52_linear_118_109" x1="423.797" y1="678.224" x2="648.68" y2="1129.51" gradientUnits="userSpaceOnUse">
<stop stop-color="#F80068"/>
<stop offset="1" stop-color="#5E17EB" stop-opacity="0.3"/>
</linearGradient>
<linearGradient id="paint53_linear_118_109" x1="419.674" y1="674.806" x2="617.352" y2="1129.69" gradientUnits="userSpaceOnUse">
<stop stop-color="#F80068"/>
<stop offset="1" stop-color="#5E17EB" stop-opacity="0.3"/>
</linearGradient>
<linearGradient id="paint54_linear_118_109" x1="415.431" y1="672.154" x2="586.152" y2="1129.06" gradientUnits="userSpaceOnUse">
<stop stop-color="#F80068"/>
<stop offset="1" stop-color="#5E17EB" stop-opacity="0.3"/>
</linearGradient>
<linearGradient id="paint55_linear_118_109" x1="411.028" y1="670.251" x2="555.131" y2="1127.62" gradientUnits="userSpaceOnUse">
<stop stop-color="#F80068"/>
<stop offset="1" stop-color="#5E17EB" stop-opacity="0.3"/>
</linearGradient>
<linearGradient id="paint56_linear_118_109" x1="406.417" y1="669.077" x2="524.327" y2="1125.4" gradientUnits="userSpaceOnUse">
<stop stop-color="#F80068"/>
<stop offset="1" stop-color="#5E17EB" stop-opacity="0.3"/>
</linearGradient>
<linearGradient id="paint57_linear_118_109" x1="401.558" y1="668.609" x2="493.787" y2="1122.42" gradientUnits="userSpaceOnUse">
<stop stop-color="#F80068"/>
<stop offset="1" stop-color="#5E17EB" stop-opacity="0.3"/>
</linearGradient>
<linearGradient id="paint58_linear_118_109" x1="396.417" y1="668.823" x2="463.555" y2="1118.7" gradientUnits="userSpaceOnUse">
<stop stop-color="#F80068"/>
<stop offset="1" stop-color="#5E17EB" stop-opacity="0.3"/>
</linearGradient>
<linearGradient id="paint59_linear_118_109" x1="390.956" y1="669.694" x2="433.67" y2="1114.28" gradientUnits="userSpaceOnUse">
<stop stop-color="#F80068"/>
<stop offset="1" stop-color="#5E17EB" stop-opacity="0.3"/>
</linearGradient>
<linearGradient id="paint60_linear_118_109" x1="385.135" y1="671.19" x2="404.166" y2="1109.18" gradientUnits="userSpaceOnUse">
<stop stop-color="#F80068"/>
<stop offset="1" stop-color="#5E17EB" stop-opacity="0.3"/>
</linearGradient>
<linearGradient id="paint61_linear_118_109" x1="378.926" y1="673.284" x2="375.082" y2="1103.45" gradientUnits="userSpaceOnUse">
<stop stop-color="#F80068"/>
<stop offset="1" stop-color="#5E17EB" stop-opacity="0.3"/>
</linearGradient>
<linearGradient id="paint62_linear_118_109" x1="372.298" y1="675.942" x2="346.45" y2="1097.11" gradientUnits="userSpaceOnUse">
<stop stop-color="#F80068"/>
<stop offset="1" stop-color="#5E17EB" stop-opacity="0.3"/>
</linearGradient>
<linearGradient id="paint63_linear_118_109" x1="365.219" y1="679.131" x2="318.297" y2="1090.19" gradientUnits="userSpaceOnUse">
<stop stop-color="#F80068"/>
<stop offset="1" stop-color="#5E17EB" stop-opacity="0.3"/>
</linearGradient>
<linearGradient id="paint64_linear_118_109" x1="357.67" y1="682.815" x2="290.659" y2="1082.75" gradientUnits="userSpaceOnUse">
<stop stop-color="#F80068"/>
<stop offset="1" stop-color="#5E17EB" stop-opacity="0.3"/>
</linearGradient>
<linearGradient id="paint65_linear_118_109" x1="349.62" y1="686.96" x2="263.552" y2="1074.81" gradientUnits="userSpaceOnUse">
<stop stop-color="#F80068"/>
<stop offset="1" stop-color="#5E17EB" stop-opacity="0.3"/>
</linearGradient>
<linearGradient id="paint66_linear_118_109" x1="341.053" y1="691.527" x2="237.004" y2="1066.41" gradientUnits="userSpaceOnUse">
<stop stop-color="#F80068"/>
<stop offset="1" stop-color="#5E17EB" stop-opacity="0.3"/>
</linearGradient>
<linearGradient id="paint67_linear_118_109" x1="331.946" y1="696.478" x2="211.031" y2="1057.6" gradientUnits="userSpaceOnUse">
<stop stop-color="#F80068"/>
<stop offset="1" stop-color="#5E17EB" stop-opacity="0.3"/>
</linearGradient>
<linearGradient id="paint68_linear_118_109" x1="322.285" y1="701.775" x2="185.653" y2="1048.42" gradientUnits="userSpaceOnUse">
<stop stop-color="#F80068"/>
<stop offset="1" stop-color="#5E17EB" stop-opacity="0.3"/>
</linearGradient>
</defs>
</svg>
