<svg width="980" height="236" viewBox="0 0 980 236" fill="none" xmlns="http://www.w3.org/2000/svg">
<mask id="path-1-outside-1_126_120" maskUnits="userSpaceOnUse" x="0.130859" y="0.328125" width="980" height="236" fill="black">
<rect fill="white" x="0.130859" y="0.328125" width="980" height="236"/>
<path d="M39.0509 151.152C33.6749 151.152 28.6829 150.224 24.0749 148.368C19.4669 146.512 15.4349 143.92 11.9789 140.592C8.58686 137.2 5.93086 133.264 4.01086 128.784C2.09086 124.304 1.13086 119.44 1.13086 114.192C1.13086 108.944 2.05886 104.08 3.91486 99.6001C5.83486 95.1201 8.49086 91.2161 11.8829 87.8881C15.3389 84.5601 19.3709 81.9681 23.9789 80.1121C28.5869 78.2561 33.6109 77.3281 39.0509 77.3281C44.4909 77.3281 49.5149 78.2561 54.1229 80.1121C58.7309 81.9681 62.7309 84.5601 66.1229 87.8881C69.5789 91.2161 72.2349 95.1201 74.0909 99.6001C76.0109 104.08 76.9709 108.944 76.9709 114.192C76.9709 119.44 76.0109 124.304 74.0909 128.784C72.1709 133.264 69.4829 137.2 66.0269 140.592C62.6349 143.92 58.6349 146.512 54.0269 148.368C49.4189 150.224 44.4269 151.152 39.0509 151.152ZM39.0509 137.712C42.3149 137.712 45.3229 137.136 48.0749 135.984C50.8909 134.832 53.3549 133.232 55.4669 131.184C57.5789 129.072 59.2109 126.576 60.3629 123.696C61.5149 120.816 62.0909 117.648 62.0909 114.192C62.0909 110.736 61.5149 107.6 60.3629 104.784C59.2109 101.904 57.5789 99.4081 55.4669 97.2961C53.3549 95.1841 50.8909 93.5841 48.0749 92.4961C45.3229 91.3441 42.3149 90.7681 39.0509 90.7681C35.7869 90.7681 32.7469 91.3441 29.9309 92.4961C27.1789 93.5841 24.7469 95.1841 22.6349 97.2961C20.5229 99.4081 18.8909 101.904 17.7389 104.784C16.5869 107.6 16.0109 110.736 16.0109 114.192C16.0109 117.648 16.5869 120.816 17.7389 123.696C18.8909 126.576 20.5229 129.072 22.6349 131.184C24.7469 133.232 27.1789 134.832 29.9309 135.984C32.7469 137.136 35.7869 137.712 39.0509 137.712Z"/>
<path d="M136.582 151.152C131.206 151.152 126.214 150.224 121.606 148.368C116.998 146.512 112.966 143.92 109.51 140.592C106.118 137.2 103.462 133.264 101.542 128.784C99.6221 124.304 98.6621 119.44 98.6621 114.192C98.6621 108.944 99.5901 104.08 101.446 99.6001C103.366 95.1201 106.022 91.2161 109.414 87.8881C112.87 84.5601 116.902 81.9681 121.51 80.1121C126.118 78.2561 131.142 77.3281 136.582 77.3281C142.022 77.3281 147.046 78.2561 151.654 80.1121C156.262 81.9681 160.262 84.5601 163.654 87.8881C167.11 91.2161 169.766 95.1201 171.622 99.6001C173.542 104.08 174.502 108.944 174.502 114.192C174.502 119.44 173.542 124.304 171.622 128.784C169.702 133.264 167.014 137.2 163.558 140.592C160.166 143.92 156.166 146.512 151.558 148.368C146.95 150.224 141.958 151.152 136.582 151.152ZM136.582 137.712C139.846 137.712 142.854 137.136 145.606 135.984C148.422 134.832 150.886 133.232 152.998 131.184C155.11 129.072 156.742 126.576 157.894 123.696C159.046 120.816 159.622 117.648 159.622 114.192C159.622 110.736 159.046 107.6 157.894 104.784C156.742 101.904 155.11 99.4081 152.998 97.2961C150.886 95.1841 148.422 93.5841 145.606 92.4961C142.854 91.3441 139.846 90.7681 136.582 90.7681C133.318 90.7681 130.278 91.3441 127.462 92.4961C124.71 93.5841 122.278 95.1841 120.166 97.2961C118.054 99.4081 116.422 101.904 115.27 104.784C114.118 107.6 113.542 110.736 113.542 114.192C113.542 117.648 114.118 120.816 115.27 123.696C116.422 126.576 118.054 129.072 120.166 131.184C122.278 133.232 124.71 134.832 127.462 135.984C130.278 137.136 133.318 137.712 136.582 137.712ZM151.75 158.64L130.438 121.392H145.798L167.398 158.64H151.75Z"/>
<path d="M211.471 151.152C205.839 151.152 200.815 149.968 196.399 147.6C191.983 145.232 188.495 142 185.935 137.904C183.439 133.744 182.191 129.04 182.191 123.792V78.4801H197.071V122.832C197.071 125.648 197.679 128.208 198.895 130.512C200.175 132.752 201.903 134.512 204.079 135.792C206.255 137.072 208.719 137.712 211.471 137.712C214.287 137.712 216.751 137.072 218.863 135.792C221.039 134.512 222.735 132.752 223.951 130.512C225.231 128.208 225.871 125.648 225.871 122.832V78.4801H240.751V123.792C240.751 129.04 239.471 133.744 236.911 137.904C234.415 142 230.959 145.232 226.543 147.6C222.127 149.968 217.103 151.152 211.471 151.152Z"/>
<path d="M250.524 150V78.4801H298.62V91.4401H265.404V107.664H296.7V120.624H265.404V137.04H298.62V150H250.524Z"/>
<path d="M356.113 151.152C350.737 151.152 345.745 150.224 341.137 148.368C336.529 146.512 332.497 143.92 329.041 140.592C325.649 137.2 322.993 133.264 321.073 128.784C319.153 124.304 318.193 119.44 318.193 114.192C318.193 108.944 319.121 104.08 320.977 99.6001C322.897 95.1201 325.553 91.2161 328.945 87.8881C332.401 84.5601 336.433 81.9681 341.041 80.1121C345.649 78.2561 350.673 77.3281 356.113 77.3281C361.553 77.3281 366.577 78.2561 371.185 80.1121C375.793 81.9681 379.793 84.5601 383.185 87.8881C386.641 91.2161 389.297 95.1201 391.153 99.6001C393.073 104.08 394.033 108.944 394.033 114.192C394.033 119.44 393.073 124.304 391.153 128.784C389.233 133.264 386.545 137.2 383.089 140.592C379.697 143.92 375.697 146.512 371.089 148.368C366.481 150.224 361.489 151.152 356.113 151.152ZM356.113 137.712C359.377 137.712 362.385 137.136 365.137 135.984C367.953 134.832 370.417 133.232 372.529 131.184C374.641 129.072 376.273 126.576 377.425 123.696C378.577 120.816 379.153 117.648 379.153 114.192C379.153 110.736 378.577 107.6 377.425 104.784C376.273 101.904 374.641 99.4081 372.529 97.2961C370.417 95.1841 367.953 93.5841 365.137 92.4961C362.385 91.3441 359.377 90.7681 356.113 90.7681C352.849 90.7681 349.809 91.3441 346.993 92.4961C344.241 93.5841 341.809 95.1841 339.697 97.2961C337.585 99.4081 335.953 101.904 334.801 104.784C333.649 107.6 333.073 110.736 333.073 114.192C333.073 117.648 333.649 120.816 334.801 123.696C335.953 126.576 337.585 129.072 339.697 131.184C341.809 133.232 344.241 134.832 346.993 135.984C349.809 137.136 352.849 137.712 356.113 137.712Z"/>
<path d="M402.587 150V78.4801H451.547V91.4401H417.467V109.584H446.747V122.544H417.467V150H402.587Z"/>
<path d="M456.93 150V78.4801H505.026V91.4401H471.81V107.664H503.106V120.624H471.81V137.04H505.026V150H456.93Z"/>
<path d="M511.462 150V78.4801H538.822C543.75 78.4801 548.102 79.3441 551.878 81.0721C555.718 82.8001 558.726 85.3601 560.902 88.7521C563.078 92.1441 564.166 96.3361 564.166 101.328C564.166 106.192 563.046 110.352 560.806 113.808C558.566 117.2 555.558 119.76 551.782 121.488L568.102 150H551.398L533.734 118.416L543.334 124.08H526.342V150H511.462ZM526.342 111.12H538.918C541.03 111.12 542.854 110.704 544.39 109.872C545.926 109.04 547.11 107.888 547.942 106.416C548.838 104.944 549.286 103.248 549.286 101.328C549.286 99.3441 548.838 97.6161 547.942 96.1441C547.11 94.6721 545.926 93.5201 544.39 92.6881C542.854 91.8561 541.03 91.4401 538.918 91.4401H526.342V111.12Z"/>
<path d="M573.493 150V78.4801H621.589V91.4401H588.373V107.664H619.669V120.624H588.373V137.04H621.589V150H573.493Z"/>
<path d="M662.008 151.152C656.888 151.152 652.12 150.224 647.704 148.368C643.352 146.512 639.544 143.92 636.28 140.592C633.016 137.264 630.456 133.36 628.6 128.88C626.808 124.4 625.912 119.504 625.912 114.192C625.912 108.88 626.808 103.984 628.6 99.5041C630.392 94.9601 632.92 91.0561 636.184 87.7921C639.448 84.4641 643.256 81.9041 647.608 80.1121C652.024 78.2561 656.824 77.3281 662.008 77.3281C667.192 77.3281 671.832 78.1921 675.928 79.9201C680.088 81.6481 683.608 83.9521 686.488 86.8321C689.368 89.7121 691.416 92.9121 692.632 96.4321L679.48 102.768C678.264 99.3121 676.12 96.4641 673.048 94.2241C670.04 91.9201 666.36 90.7681 662.008 90.7681C657.784 90.7681 654.072 91.7601 650.872 93.7441C647.672 95.7281 645.176 98.4801 643.384 102C641.656 105.456 640.792 109.52 640.792 114.192C640.792 118.864 641.656 122.96 643.384 126.48C645.176 130 647.672 132.752 650.872 134.736C654.072 136.72 657.784 137.712 662.008 137.712C666.36 137.712 670.04 136.592 673.048 134.352C676.12 132.048 678.264 129.168 679.48 125.712L692.632 132.048C691.416 135.568 689.368 138.768 686.488 141.648C683.608 144.528 680.088 146.832 675.928 148.56C671.832 150.288 667.192 151.152 662.008 151.152Z"/>
<path d="M700.18 150V78.4801H748.276V91.4401H715.06V107.664H746.356V120.624H715.06V137.04H748.276V150H700.18Z"/>
<path d="M754.712 150V78.4801H769.112L795.896 114H789.176L815.192 78.4801H829.592V150H814.712V94.8961L820.664 96.2401L793.112 131.76H791.192L764.6 96.2401L769.592 94.8961V150H754.712Z"/>
<path d="M876.082 151.152C870.706 151.152 865.714 150.224 861.106 148.368C856.498 146.512 852.466 143.92 849.01 140.592C845.618 137.2 842.962 133.264 841.042 128.784C839.122 124.304 838.162 119.44 838.162 114.192C838.162 108.944 839.09 104.08 840.946 99.6001C842.866 95.1201 845.522 91.2161 848.914 87.8881C852.37 84.5601 856.402 81.9681 861.01 80.1121C865.618 78.2561 870.642 77.3281 876.082 77.3281C881.522 77.3281 886.546 78.2561 891.154 80.1121C895.762 81.9681 899.762 84.5601 903.154 87.8881C906.61 91.2161 909.266 95.1201 911.122 99.6001C913.042 104.08 914.002 108.944 914.002 114.192C914.002 119.44 913.042 124.304 911.122 128.784C909.202 133.264 906.514 137.2 903.058 140.592C899.666 143.92 895.666 146.512 891.058 148.368C886.45 150.224 881.458 151.152 876.082 151.152ZM876.082 137.712C879.346 137.712 882.354 137.136 885.106 135.984C887.922 134.832 890.386 133.232 892.498 131.184C894.61 129.072 896.242 126.576 897.394 123.696C898.546 120.816 899.122 117.648 899.122 114.192C899.122 110.736 898.546 107.6 897.394 104.784C896.242 101.904 894.61 99.4081 892.498 97.2961C890.386 95.1841 887.922 93.5841 885.106 92.4961C882.354 91.3441 879.346 90.7681 876.082 90.7681C872.818 90.7681 869.778 91.3441 866.962 92.4961C864.21 93.5841 861.778 95.1841 859.666 97.2961C857.554 99.4081 855.922 101.904 854.77 104.784C853.618 107.6 853.042 110.736 853.042 114.192C853.042 117.648 853.618 120.816 854.77 123.696C855.922 126.576 857.554 129.072 859.666 131.184C861.778 133.232 864.21 134.832 866.962 135.984C869.778 137.136 872.818 137.712 876.082 137.712Z"/>
<path d="M948.571 151.152C944.091 151.152 939.867 150.352 935.899 148.752C931.995 147.088 928.603 144.752 925.723 141.744C922.907 138.736 920.795 135.184 919.387 131.088L931.579 125.616C933.371 129.52 935.835 132.592 938.971 134.832C942.171 137.072 945.691 138.192 949.531 138.192C951.579 138.192 953.339 137.872 954.811 137.232C956.283 136.592 957.435 135.728 958.267 134.64C959.099 133.488 959.515 132.144 959.515 130.608C959.515 128.944 959.003 127.536 957.979 126.384C956.955 125.168 955.355 124.208 953.179 123.504L939.163 118.896C933.467 117.04 929.179 114.416 926.299 111.024C923.419 107.568 921.979 103.44 921.979 98.6401C921.979 94.4161 923.003 90.7041 925.051 87.5041C927.163 84.3041 930.075 81.8081 933.787 80.0161C937.563 78.2241 941.883 77.3281 946.747 77.3281C951.035 77.3281 955.003 78.0641 958.651 79.5361C962.299 81.0081 965.435 83.0881 968.059 85.7761C970.747 88.4641 972.763 91.6961 974.107 95.4721L962.011 100.944C960.667 97.6161 958.651 95.0241 955.963 93.1681C953.275 91.2481 950.203 90.2881 946.747 90.2881C944.763 90.2881 943.003 90.6081 941.467 91.2481C939.931 91.8881 938.747 92.8161 937.915 94.0321C937.083 95.1841 936.667 96.5281 936.667 98.0641C936.667 99.7281 937.211 101.2 938.299 102.48C939.387 103.696 941.019 104.656 943.195 105.36L956.923 109.776C962.683 111.632 966.971 114.224 969.787 117.552C972.667 120.88 974.107 124.944 974.107 129.744C974.107 133.904 973.019 137.616 970.843 140.88C968.667 144.08 965.659 146.608 961.819 148.464C958.043 150.256 953.627 151.152 948.571 151.152Z"/>
<path d="M39.0509 75.1521C33.6749 75.1521 28.6829 74.2241 24.0749 72.3681C19.4669 70.5121 15.4349 67.9201 11.9789 64.5921C8.58686 61.2001 5.93086 57.2641 4.01086 52.7841C2.09086 48.3041 1.13086 43.4401 1.13086 38.1921C1.13086 32.9441 2.05886 28.0801 3.91486 23.6001C5.83486 19.1201 8.49086 15.2161 11.8829 11.8881C15.3389 8.56012 19.3709 5.96812 23.9789 4.11212C28.5869 2.25612 33.6109 1.32812 39.0509 1.32812C44.4909 1.32812 49.5149 2.25612 54.1229 4.11212C58.7309 5.96812 62.7309 8.56012 66.1229 11.8881C69.5789 15.2161 72.2349 19.1201 74.0909 23.6001C76.0109 28.0801 76.9709 32.9441 76.9709 38.1921C76.9709 43.4401 76.0109 48.3041 74.0909 52.7841C72.1709 57.2641 69.4829 61.2001 66.0269 64.5921C62.6349 67.9201 58.6349 70.5121 54.0269 72.3681C49.4189 74.2241 44.4269 75.1521 39.0509 75.1521ZM39.0509 61.7121C42.3149 61.7121 45.3229 61.1361 48.0749 59.9841C50.8909 58.8321 53.3549 57.2321 55.4669 55.1841C57.5789 53.0721 59.2109 50.5761 60.3629 47.6961C61.5149 44.8161 62.0909 41.6481 62.0909 38.1921C62.0909 34.7361 61.5149 31.6001 60.3629 28.7841C59.2109 25.9041 57.5789 23.4081 55.4669 21.2961C53.3549 19.1841 50.8909 17.5841 48.0749 16.4961C45.3229 15.3441 42.3149 14.7681 39.0509 14.7681C35.7869 14.7681 32.7469 15.3441 29.9309 16.4961C27.1789 17.5841 24.7469 19.1841 22.6349 21.2961C20.5229 23.4081 18.8909 25.9041 17.7389 28.7841C16.5869 31.6001 16.0109 34.7361 16.0109 38.1921C16.0109 41.6481 16.5869 44.8161 17.7389 47.6961C18.8909 50.5761 20.5229 53.0721 22.6349 55.1841C24.7469 57.2321 27.1789 58.8321 29.9309 59.9841C32.7469 61.1361 35.7869 61.7121 39.0509 61.7121ZM136.582 75.1521C131.206 75.1521 126.214 74.2241 121.606 72.3681C116.998 70.5121 112.966 67.9201 109.51 64.5921C106.118 61.2001 103.462 57.2641 101.542 52.7841C99.6221 48.3041 98.6621 43.4401 98.6621 38.1921C98.6621 32.9441 99.5901 28.0801 101.446 23.6001C103.366 19.1201 106.022 15.2161 109.414 11.8881C112.87 8.56012 116.902 5.96812 121.51 4.11212C126.118 2.25612 131.142 1.32812 136.582 1.32812C142.022 1.32812 147.046 2.25612 151.654 4.11212C156.262 5.96812 160.262 8.56012 163.654 11.8881C167.11 15.2161 169.766 19.1201 171.622 23.6001C173.542 28.0801 174.502 32.9441 174.502 38.1921C174.502 43.4401 173.542 48.3041 171.622 52.7841C169.702 57.2641 167.014 61.2001 163.558 64.5921C160.166 67.9201 156.166 70.5121 151.558 72.3681C146.95 74.2241 141.958 75.1521 136.582 75.1521ZM136.582 61.7121C139.846 61.7121 142.854 61.1361 145.606 59.9841C148.422 58.8321 150.886 57.2321 152.998 55.1841C155.11 53.0721 156.742 50.5761 157.894 47.6961C159.046 44.8161 159.622 41.6481 159.622 38.1921C159.622 34.7361 159.046 31.6001 157.894 28.7841C156.742 25.9041 155.11 23.4081 152.998 21.2961C150.886 19.1841 148.422 17.5841 145.606 16.4961C142.854 15.3441 139.846 14.7681 136.582 14.7681C133.318 14.7681 130.278 15.3441 127.462 16.4961C124.71 17.5841 122.278 19.1841 120.166 21.2961C118.054 23.4081 116.422 25.9041 115.27 28.7841C114.118 31.6001 113.542 34.7361 113.542 38.1921C113.542 41.6481 114.118 44.8161 115.27 47.6961C116.422 50.5761 118.054 53.0721 120.166 55.1841C122.278 57.2321 124.71 58.8321 127.462 59.9841C130.278 61.1361 133.318 61.7121 136.582 61.7121ZM151.75 82.6401L130.438 45.3921H145.798L167.398 82.6401H151.75ZM211.471 75.1521C205.839 75.1521 200.815 73.9681 196.399 71.6001C191.983 69.2321 188.495 66.0001 185.935 61.9041C183.439 57.7441 182.191 53.0401 182.191 47.7921V2.48012H197.071V46.8321C197.071 49.6481 197.679 52.2081 198.895 54.5121C200.175 56.7521 201.903 58.5121 204.079 59.7921C206.255 61.0721 208.719 61.7121 211.471 61.7121C214.287 61.7121 216.751 61.0721 218.863 59.7921C221.039 58.5121 222.735 56.7521 223.951 54.5121C225.231 52.2081 225.871 49.6481 225.871 46.8321V2.48012H240.751V47.7921C240.751 53.0401 239.471 57.7441 236.911 61.9041C234.415 66.0001 230.959 69.2321 226.543 71.6001C222.127 73.9681 217.103 75.1521 211.471 75.1521ZM250.524 74.0001V2.48012H298.62V15.4401H265.404V31.6641H296.7V44.6241H265.404V61.0401H298.62V74.0001H250.524ZM356.113 75.1521C350.737 75.1521 345.745 74.2241 341.137 72.3681C336.529 70.5121 332.497 67.9201 329.041 64.5921C325.649 61.2001 322.993 57.2641 321.073 52.7841C319.153 48.3041 318.193 43.4401 318.193 38.1921C318.193 32.9441 319.121 28.0801 320.977 23.6001C322.897 19.1201 325.553 15.2161 328.945 11.8881C332.401 8.56012 336.433 5.96812 341.041 4.11212C345.649 2.25612 350.673 1.32812 356.113 1.32812C361.553 1.32812 366.577 2.25612 371.185 4.11212C375.793 5.96812 379.793 8.56012 383.185 11.8881C386.641 15.2161 389.297 19.1201 391.153 23.6001C393.073 28.0801 394.033 32.9441 394.033 38.1921C394.033 43.4401 393.073 48.3041 391.153 52.7841C389.233 57.2641 386.545 61.2001 383.089 64.5921C379.697 67.9201 375.697 70.5121 371.089 72.3681C366.481 74.2241 361.489 75.1521 356.113 75.1521ZM356.113 61.7121C359.377 61.7121 362.385 61.1361 365.137 59.9841C367.953 58.8321 370.417 57.2321 372.529 55.1841C374.641 53.0721 376.273 50.5761 377.425 47.6961C378.577 44.8161 379.153 41.6481 379.153 38.1921C379.153 34.7361 378.577 31.6001 377.425 28.7841C376.273 25.9041 374.641 23.4081 372.529 21.2961C370.417 19.1841 367.953 17.5841 365.137 16.4961C362.385 15.3441 359.377 14.7681 356.113 14.7681C352.849 14.7681 349.809 15.3441 346.993 16.4961C344.241 17.5841 341.809 19.1841 339.697 21.2961C337.585 23.4081 335.953 25.9041 334.801 28.7841C333.649 31.6001 333.073 34.7361 333.073 38.1921C333.073 41.6481 333.649 44.8161 334.801 47.6961C335.953 50.5761 337.585 53.0721 339.697 55.1841C341.809 57.2321 344.241 58.8321 346.993 59.9841C349.809 61.1361 352.849 61.7121 356.113 61.7121ZM402.587 74.0001V2.48012H451.547V15.4401H417.467V33.5841H446.747V46.5441H417.467V74.0001H402.587ZM456.93 74.0001V2.48012H505.026V15.4401H471.81V31.6641H503.106V44.6241H471.81V61.0401H505.026V74.0001H456.93ZM511.462 74.0001V2.48012H538.822C543.75 2.48012 548.102 3.34412 551.878 5.07212C555.718 6.80012 558.726 9.36012 560.902 12.7521C563.078 16.1441 564.166 20.3361 564.166 25.3281C564.166 30.1921 563.046 34.3521 560.806 37.8081C558.566 41.2001 555.558 43.7601 551.782 45.4881L568.102 74.0001H551.398L533.734 42.4161L543.334 48.0801H526.342V74.0001H511.462ZM526.342 35.1201H538.918C541.03 35.1201 542.854 34.7041 544.39 33.8721C545.926 33.0401 547.11 31.8881 547.942 30.4161C548.838 28.9441 549.286 27.2481 549.286 25.3281C549.286 23.3441 548.838 21.6161 547.942 20.1441C547.11 18.6721 545.926 17.5201 544.39 16.6881C542.854 15.8561 541.03 15.4401 538.918 15.4401H526.342V35.1201ZM573.493 74.0001V2.48012H621.589V15.4401H588.373V31.6641H619.669V44.6241H588.373V61.0401H621.589V74.0001H573.493ZM662.008 75.1521C656.888 75.1521 652.12 74.2241 647.704 72.3681C643.352 70.5121 639.544 67.9201 636.28 64.5921C633.016 61.2641 630.456 57.3601 628.6 52.8801C626.808 48.4001 625.912 43.5041 625.912 38.1921C625.912 32.8801 626.808 27.9841 628.6 23.5041C630.392 18.9601 632.92 15.0561 636.184 11.7921C639.448 8.46412 643.256 5.90412 647.608 4.11212C652.024 2.25612 656.824 1.32812 662.008 1.32812C667.192 1.32812 671.832 2.19213 675.928 3.92013C680.088 5.64813 683.608 7.95213 686.488 10.8321C689.368 13.7121 691.416 16.9121 692.632 20.4321L679.48 26.7681C678.264 23.3121 676.12 20.4641 673.048 18.2241C670.04 15.9201 666.36 14.7681 662.008 14.7681C657.784 14.7681 654.072 15.7601 650.872 17.7441C647.672 19.7281 645.176 22.4801 643.384 26.0001C641.656 29.4561 640.792 33.5201 640.792 38.1921C640.792 42.8641 641.656 46.9601 643.384 50.4801C645.176 54.0001 647.672 56.7521 650.872 58.7361C654.072 60.7201 657.784 61.7121 662.008 61.7121C666.36 61.7121 670.04 60.5921 673.048 58.3521C676.12 56.0481 678.264 53.1681 679.48 49.7121L692.632 56.0481C691.416 59.5681 689.368 62.7681 686.488 65.6481C683.608 68.5281 680.088 70.8321 675.928 72.5601C671.832 74.2881 667.192 75.1521 662.008 75.1521ZM700.18 74.0001V2.48012H748.276V15.4401H715.06V31.6641H746.356V44.6241H715.06V61.0401H748.276V74.0001H700.18ZM754.712 74.0001V2.48012H769.112L795.896 38.0001H789.176L815.192 2.48012H829.592V74.0001H814.712V18.8961L820.664 20.2401L793.112 55.7601H791.192L764.6 20.2401L769.592 18.8961V74.0001H754.712ZM876.082 75.1521C870.706 75.1521 865.714 74.2241 861.106 72.3681C856.498 70.5121 852.466 67.9201 849.01 64.5921C845.618 61.2001 842.962 57.2641 841.042 52.7841C839.122 48.3041 838.162 43.4401 838.162 38.1921C838.162 32.9441 839.09 28.0801 840.946 23.6001C842.866 19.1201 845.522 15.2161 848.914 11.8881C852.37 8.56012 856.402 5.96812 861.01 4.11212C865.618 2.25612 870.642 1.32812 876.082 1.32812C881.522 1.32812 886.546 2.25612 891.154 4.11212C895.762 5.96812 899.762 8.56012 903.154 11.8881C906.61 15.2161 909.266 19.1201 911.122 23.6001C913.042 28.0801 914.002 32.9441 914.002 38.1921C914.002 43.4401 913.042 48.3041 911.122 52.7841C909.202 57.2641 906.514 61.2001 903.058 64.5921C899.666 67.9201 895.666 70.5121 891.058 72.3681C886.45 74.2241 881.458 75.1521 876.082 75.1521ZM876.082 61.7121C879.346 61.7121 882.354 61.1361 885.106 59.9841C887.922 58.8321 890.386 57.2321 892.498 55.1841C894.61 53.0721 896.242 50.5761 897.394 47.6961C898.546 44.8161 899.122 41.6481 899.122 38.1921C899.122 34.7361 898.546 31.6001 897.394 28.7841C896.242 25.9041 894.61 23.4081 892.498 21.2961C890.386 19.1841 887.922 17.5841 885.106 16.4961C882.354 15.3441 879.346 14.7681 876.082 14.7681C872.818 14.7681 869.778 15.3441 866.962 16.4961C864.21 17.5841 861.778 19.1841 859.666 21.2961C857.554 23.4081 855.922 25.9041 854.77 28.7841C853.618 31.6001 853.042 34.7361 853.042 38.1921C853.042 41.6481 853.618 44.8161 854.77 47.6961C855.922 50.5761 857.554 53.0721 859.666 55.1841C861.778 57.2321 864.21 58.8321 866.962 59.9841C869.778 61.1361 872.818 61.7121 876.082 61.7121ZM948.571 75.1521C944.091 75.1521 939.867 74.3521 935.899 72.7521C931.995 71.0881 928.603 68.7521 925.723 65.7441C922.907 62.7361 920.795 59.1841 919.387 55.0881L931.579 49.6161C933.371 53.5201 935.835 56.5921 938.971 58.8321C942.171 61.0721 945.691 62.1921 949.531 62.1921C951.579 62.1921 953.339 61.8721 954.811 61.2321C956.283 60.5921 957.435 59.7281 958.267 58.6401C959.099 57.4881 959.515 56.1441 959.515 54.6081C959.515 52.9441 959.003 51.5361 957.979 50.3841C956.955 49.1681 955.355 48.2081 953.179 47.5041L939.163 42.8961C933.467 41.0401 929.179 38.4161 926.299 35.0241C923.419 31.5681 921.979 27.4401 921.979 22.6401C921.979 18.4161 923.003 14.7041 925.051 11.5041C927.163 8.30412 930.075 5.80812 933.787 4.01612C937.563 2.22412 941.883 1.32812 946.747 1.32812C951.035 1.32812 955.003 2.06413 958.651 3.53613C962.299 5.00813 965.435 7.08813 968.059 9.77612C970.747 12.4641 972.763 15.6961 974.107 19.4721L962.011 24.9441C960.667 21.6161 958.651 19.0241 955.963 17.1681C953.275 15.2481 950.203 14.2881 946.747 14.2881C944.763 14.2881 943.003 14.6081 941.467 15.2481C939.931 15.8881 938.747 16.8161 937.915 18.0321C937.083 19.1841 936.667 20.5281 936.667 22.0641C936.667 23.7281 937.211 25.2001 938.299 26.4801C939.387 27.6961 941.019 28.6561 943.195 29.3601L956.923 33.7761C962.683 35.6321 966.971 38.2241 969.787 41.5521C972.667 44.8801 974.107 48.9441 974.107 53.7441C974.107 57.9041 973.019 61.6161 970.843 64.8801C968.667 68.0801 965.659 70.6081 961.819 72.4641C958.043 74.2561 953.627 75.1521 948.571 75.1521Z"/>
<path d="M43.0509 227.152C37.6749 227.152 32.6829 226.224 28.0749 224.368C23.4669 222.512 19.4349 219.92 15.9789 216.592C12.5869 213.2 9.93086 209.264 8.01086 204.784C6.09086 200.304 5.13086 195.44 5.13086 190.192C5.13086 184.944 6.05886 180.08 7.91486 175.6C9.83486 171.12 12.4909 167.216 15.8829 163.888C19.3389 160.56 23.3709 157.968 27.9789 156.112C32.5869 154.256 37.6109 153.328 43.0509 153.328C48.4909 153.328 53.5149 154.256 58.1229 156.112C62.7309 157.968 66.7309 160.56 70.1229 163.888C73.5789 167.216 76.2349 171.12 78.0909 175.6C80.0109 180.08 80.9709 184.944 80.9709 190.192C80.9709 195.44 80.0109 200.304 78.0909 204.784C76.1709 209.264 73.4829 213.2 70.0269 216.592C66.6349 219.92 62.6349 222.512 58.0269 224.368C53.4189 226.224 48.4269 227.152 43.0509 227.152ZM43.0509 213.712C46.3149 213.712 49.3229 213.136 52.0749 211.984C54.8909 210.832 57.3549 209.232 59.4669 207.184C61.5789 205.072 63.2109 202.576 64.3629 199.696C65.5149 196.816 66.0909 193.648 66.0909 190.192C66.0909 186.736 65.5149 183.6 64.3629 180.784C63.2109 177.904 61.5789 175.408 59.4669 173.296C57.3549 171.184 54.8909 169.584 52.0749 168.496C49.3229 167.344 46.3149 166.768 43.0509 166.768C39.7869 166.768 36.7469 167.344 33.9309 168.496C31.1789 169.584 28.7469 171.184 26.6349 173.296C24.5229 175.408 22.8909 177.904 21.7389 180.784C20.5869 183.6 20.0109 186.736 20.0109 190.192C20.0109 193.648 20.5869 196.816 21.7389 199.696C22.8909 202.576 24.5229 205.072 26.6349 207.184C28.7469 209.232 31.1789 210.832 33.9309 211.984C36.7469 213.136 39.7869 213.712 43.0509 213.712ZM140.582 227.152C135.206 227.152 130.214 226.224 125.606 224.368C120.998 222.512 116.966 219.92 113.51 216.592C110.118 213.2 107.462 209.264 105.542 204.784C103.622 200.304 102.662 195.44 102.662 190.192C102.662 184.944 103.59 180.08 105.446 175.6C107.366 171.12 110.022 167.216 113.414 163.888C116.87 160.56 120.902 157.968 125.51 156.112C130.118 154.256 135.142 153.328 140.582 153.328C146.022 153.328 151.046 154.256 155.654 156.112C160.262 157.968 164.262 160.56 167.654 163.888C171.11 167.216 173.766 171.12 175.622 175.6C177.542 180.08 178.502 184.944 178.502 190.192C178.502 195.44 177.542 200.304 175.622 204.784C173.702 209.264 171.014 213.2 167.558 216.592C164.166 219.92 160.166 222.512 155.558 224.368C150.95 226.224 145.958 227.152 140.582 227.152ZM140.582 213.712C143.846 213.712 146.854 213.136 149.606 211.984C152.422 210.832 154.886 209.232 156.998 207.184C159.11 205.072 160.742 202.576 161.894 199.696C163.046 196.816 163.622 193.648 163.622 190.192C163.622 186.736 163.046 183.6 161.894 180.784C160.742 177.904 159.11 175.408 156.998 173.296C154.886 171.184 152.422 169.584 149.606 168.496C146.854 167.344 143.846 166.768 140.582 166.768C137.318 166.768 134.278 167.344 131.462 168.496C128.71 169.584 126.278 171.184 124.166 173.296C122.054 175.408 120.422 177.904 119.27 180.784C118.118 183.6 117.542 186.736 117.542 190.192C117.542 193.648 118.118 196.816 119.27 199.696C120.422 202.576 122.054 205.072 124.166 207.184C126.278 209.232 128.71 210.832 131.462 211.984C134.278 213.136 137.318 213.712 140.582 213.712ZM155.75 234.64L134.438 197.392H149.798L171.398 234.64H155.75ZM215.471 227.152C209.839 227.152 204.815 225.968 200.399 223.6C195.983 221.232 192.495 218 189.935 213.904C187.439 209.744 186.191 205.04 186.191 199.792V154.48H201.071V198.832C201.071 201.648 201.679 204.208 202.895 206.512C204.175 208.752 205.903 210.512 208.079 211.792C210.255 213.072 212.719 213.712 215.471 213.712C218.287 213.712 220.751 213.072 222.863 211.792C225.039 210.512 226.735 208.752 227.951 206.512C229.231 204.208 229.871 201.648 229.871 198.832V154.48H244.751V199.792C244.751 205.04 243.471 209.744 240.911 213.904C238.415 218 234.959 221.232 230.543 223.6C226.127 225.968 221.103 227.152 215.471 227.152ZM254.524 226V154.48H302.62V167.44H269.404V183.664H300.7V196.624H269.404V213.04H302.62V226H254.524ZM360.113 227.152C354.737 227.152 349.745 226.224 345.137 224.368C340.529 222.512 336.497 219.92 333.041 216.592C329.649 213.2 326.993 209.264 325.073 204.784C323.153 200.304 322.193 195.44 322.193 190.192C322.193 184.944 323.121 180.08 324.977 175.6C326.897 171.12 329.553 167.216 332.945 163.888C336.401 160.56 340.433 157.968 345.041 156.112C349.649 154.256 354.673 153.328 360.113 153.328C365.553 153.328 370.577 154.256 375.185 156.112C379.793 157.968 383.793 160.56 387.185 163.888C390.641 167.216 393.297 171.12 395.153 175.6C397.073 180.08 398.033 184.944 398.033 190.192C398.033 195.44 397.073 200.304 395.153 204.784C393.233 209.264 390.545 213.2 387.089 216.592C383.697 219.92 379.697 222.512 375.089 224.368C370.481 226.224 365.489 227.152 360.113 227.152ZM360.113 213.712C363.377 213.712 366.385 213.136 369.137 211.984C371.953 210.832 374.417 209.232 376.529 207.184C378.641 205.072 380.273 202.576 381.425 199.696C382.577 196.816 383.153 193.648 383.153 190.192C383.153 186.736 382.577 183.6 381.425 180.784C380.273 177.904 378.641 175.408 376.529 173.296C374.417 171.184 371.953 169.584 369.137 168.496C366.385 167.344 363.377 166.768 360.113 166.768C356.849 166.768 353.809 167.344 350.993 168.496C348.241 169.584 345.809 171.184 343.697 173.296C341.585 175.408 339.953 177.904 338.801 180.784C337.649 183.6 337.073 186.736 337.073 190.192C337.073 193.648 337.649 196.816 338.801 199.696C339.953 202.576 341.585 205.072 343.697 207.184C345.809 209.232 348.241 210.832 350.993 211.984C353.809 213.136 356.849 213.712 360.113 213.712ZM406.587 226V154.48H455.547V167.44H421.467V185.584H450.747V198.544H421.467V226H406.587ZM460.93 226V154.48H509.026V167.44H475.81V183.664H507.106V196.624H475.81V213.04H509.026V226H460.93ZM515.462 226V154.48H542.822C547.75 154.48 552.102 155.344 555.878 157.072C559.718 158.8 562.726 161.36 564.902 164.752C567.078 168.144 568.166 172.336 568.166 177.328C568.166 182.192 567.046 186.352 564.806 189.808C562.566 193.2 559.558 195.76 555.782 197.488L572.102 226H555.398L537.734 194.416L547.334 200.08H530.342V226H515.462ZM530.342 187.12H542.918C545.03 187.12 546.854 186.704 548.39 185.872C549.926 185.04 551.11 183.888 551.942 182.416C552.838 180.944 553.286 179.248 553.286 177.328C553.286 175.344 552.838 173.616 551.942 172.144C551.11 170.672 549.926 169.52 548.39 168.688C546.854 167.856 545.03 167.44 542.918 167.44H530.342V187.12ZM577.493 226V154.48H625.589V167.44H592.373V183.664H623.669V196.624H592.373V213.04H625.589V226H577.493ZM666.008 227.152C660.888 227.152 656.12 226.224 651.704 224.368C647.352 222.512 643.544 219.92 640.28 216.592C637.016 213.264 634.456 209.36 632.6 204.88C630.808 200.4 629.912 195.504 629.912 190.192C629.912 184.88 630.808 179.984 632.6 175.504C634.392 170.96 636.92 167.056 640.184 163.792C643.448 160.464 647.256 157.904 651.608 156.112C656.024 154.256 660.824 153.328 666.008 153.328C671.192 153.328 675.832 154.192 679.928 155.92C684.088 157.648 687.608 159.952 690.488 162.832C693.368 165.712 695.416 168.912 696.632 172.432L683.48 178.768C682.264 175.312 680.12 172.464 677.048 170.224C674.04 167.92 670.36 166.768 666.008 166.768C661.784 166.768 658.072 167.76 654.872 169.744C651.672 171.728 649.176 174.48 647.384 178C645.656 181.456 644.792 185.52 644.792 190.192C644.792 194.864 645.656 198.96 647.384 202.48C649.176 206 651.672 208.752 654.872 210.736C658.072 212.72 661.784 213.712 666.008 213.712C670.36 213.712 674.04 212.592 677.048 210.352C680.12 208.048 682.264 205.168 683.48 201.712L696.632 208.048C695.416 211.568 693.368 214.768 690.488 217.648C687.608 220.528 684.088 222.832 679.928 224.56C675.832 226.288 671.192 227.152 666.008 227.152ZM704.18 226V154.48H752.276V167.44H719.06V183.664H750.356V196.624H719.06V213.04H752.276V226H704.18ZM758.712 226V154.48H773.112L799.896 190H793.176L819.192 154.48H833.592V226H818.712V170.896L824.664 172.24L797.112 207.76H795.192L768.6 172.24L773.592 170.896V226H758.712ZM880.082 227.152C874.706 227.152 869.714 226.224 865.106 224.368C860.498 222.512 856.466 219.92 853.01 216.592C849.618 213.2 846.962 209.264 845.042 204.784C843.122 200.304 842.162 195.44 842.162 190.192C842.162 184.944 843.09 180.08 844.946 175.6C846.866 171.12 849.522 167.216 852.914 163.888C856.37 160.56 860.402 157.968 865.01 156.112C869.618 154.256 874.642 153.328 880.082 153.328C885.522 153.328 890.546 154.256 895.154 156.112C899.762 157.968 903.762 160.56 907.154 163.888C910.61 167.216 913.266 171.12 915.122 175.6C917.042 180.08 918.002 184.944 918.002 190.192C918.002 195.44 917.042 200.304 915.122 204.784C913.202 209.264 910.514 213.2 907.058 216.592C903.666 219.92 899.666 222.512 895.058 224.368C890.45 226.224 885.458 227.152 880.082 227.152ZM880.082 213.712C883.346 213.712 886.354 213.136 889.106 211.984C891.922 210.832 894.386 209.232 896.498 207.184C898.61 205.072 900.242 202.576 901.394 199.696C902.546 196.816 903.122 193.648 903.122 190.192C903.122 186.736 902.546 183.6 901.394 180.784C900.242 177.904 898.61 175.408 896.498 173.296C894.386 171.184 891.922 169.584 889.106 168.496C886.354 167.344 883.346 166.768 880.082 166.768C876.818 166.768 873.778 167.344 870.962 168.496C868.21 169.584 865.778 171.184 863.666 173.296C861.554 175.408 859.922 177.904 858.77 180.784C857.618 183.6 857.042 186.736 857.042 190.192C857.042 193.648 857.618 196.816 858.77 199.696C859.922 202.576 861.554 205.072 863.666 207.184C865.778 209.232 868.21 210.832 870.962 211.984C873.778 213.136 876.818 213.712 880.082 213.712ZM952.571 227.152C948.091 227.152 943.867 226.352 939.899 224.752C935.995 223.088 932.603 220.752 929.723 217.744C926.907 214.736 924.795 211.184 923.387 207.088L935.579 201.616C937.371 205.52 939.835 208.592 942.971 210.832C946.171 213.072 949.691 214.192 953.531 214.192C955.579 214.192 957.339 213.872 958.811 213.232C960.283 212.592 961.435 211.728 962.267 210.64C963.099 209.488 963.515 208.144 963.515 206.608C963.515 204.944 963.003 203.536 961.979 202.384C960.955 201.168 959.355 200.208 957.179 199.504L943.163 194.896C937.467 193.04 933.179 190.416 930.299 187.024C927.419 183.568 925.979 179.44 925.979 174.64C925.979 170.416 927.003 166.704 929.051 163.504C931.163 160.304 934.075 157.808 937.787 156.016C941.563 154.224 945.883 153.328 950.747 153.328C955.035 153.328 959.003 154.064 962.651 155.536C966.299 157.008 969.435 159.088 972.059 161.776C974.747 164.464 976.763 167.696 978.107 171.472L966.011 176.944C964.667 173.616 962.651 171.024 959.963 169.168C957.275 167.248 954.203 166.288 950.747 166.288C948.763 166.288 947.003 166.608 945.467 167.248C943.931 167.888 942.747 168.816 941.915 170.032C941.083 171.184 940.667 172.528 940.667 174.064C940.667 175.728 941.211 177.2 942.299 178.48C943.387 179.696 945.019 180.656 947.195 181.36L960.923 185.776C966.683 187.632 970.971 190.224 973.787 193.552C976.667 196.88 978.107 200.944 978.107 205.744C978.107 209.904 977.019 213.616 974.843 216.88C972.667 220.08 969.659 222.608 965.819 224.464C962.043 226.256 957.627 227.152 952.571 227.152Z"/>
</mask>
<path d="M39.0509 151.152C33.6749 151.152 28.6829 150.224 24.0749 148.368C19.4669 146.512 15.4349 143.92 11.9789 140.592C8.58686 137.2 5.93086 133.264 4.01086 128.784C2.09086 124.304 1.13086 119.44 1.13086 114.192C1.13086 108.944 2.05886 104.08 3.91486 99.6001C5.83486 95.1201 8.49086 91.2161 11.8829 87.8881C15.3389 84.5601 19.3709 81.9681 23.9789 80.1121C28.5869 78.2561 33.6109 77.3281 39.0509 77.3281C44.4909 77.3281 49.5149 78.2561 54.1229 80.1121C58.7309 81.9681 62.7309 84.5601 66.1229 87.8881C69.5789 91.2161 72.2349 95.1201 74.0909 99.6001C76.0109 104.08 76.9709 108.944 76.9709 114.192C76.9709 119.44 76.0109 124.304 74.0909 128.784C72.1709 133.264 69.4829 137.2 66.0269 140.592C62.6349 143.92 58.6349 146.512 54.0269 148.368C49.4189 150.224 44.4269 151.152 39.0509 151.152ZM39.0509 137.712C42.3149 137.712 45.3229 137.136 48.0749 135.984C50.8909 134.832 53.3549 133.232 55.4669 131.184C57.5789 129.072 59.2109 126.576 60.3629 123.696C61.5149 120.816 62.0909 117.648 62.0909 114.192C62.0909 110.736 61.5149 107.6 60.3629 104.784C59.2109 101.904 57.5789 99.4081 55.4669 97.2961C53.3549 95.1841 50.8909 93.5841 48.0749 92.4961C45.3229 91.3441 42.3149 90.7681 39.0509 90.7681C35.7869 90.7681 32.7469 91.3441 29.9309 92.4961C27.1789 93.5841 24.7469 95.1841 22.6349 97.2961C20.5229 99.4081 18.8909 101.904 17.7389 104.784C16.5869 107.6 16.0109 110.736 16.0109 114.192C16.0109 117.648 16.5869 120.816 17.7389 123.696C18.8909 126.576 20.5229 129.072 22.6349 131.184C24.7469 133.232 27.1789 134.832 29.9309 135.984C32.7469 137.136 35.7869 137.712 39.0509 137.712Z" fill="url(#paint0_linear_126_120)"/>
<path d="M136.582 151.152C131.206 151.152 126.214 150.224 121.606 148.368C116.998 146.512 112.966 143.92 109.51 140.592C106.118 137.2 103.462 133.264 101.542 128.784C99.6221 124.304 98.6621 119.44 98.6621 114.192C98.6621 108.944 99.5901 104.08 101.446 99.6001C103.366 95.1201 106.022 91.2161 109.414 87.8881C112.87 84.5601 116.902 81.9681 121.51 80.1121C126.118 78.2561 131.142 77.3281 136.582 77.3281C142.022 77.3281 147.046 78.2561 151.654 80.1121C156.262 81.9681 160.262 84.5601 163.654 87.8881C167.11 91.2161 169.766 95.1201 171.622 99.6001C173.542 104.08 174.502 108.944 174.502 114.192C174.502 119.44 173.542 124.304 171.622 128.784C169.702 133.264 167.014 137.2 163.558 140.592C160.166 143.92 156.166 146.512 151.558 148.368C146.95 150.224 141.958 151.152 136.582 151.152ZM136.582 137.712C139.846 137.712 142.854 137.136 145.606 135.984C148.422 134.832 150.886 133.232 152.998 131.184C155.11 129.072 156.742 126.576 157.894 123.696C159.046 120.816 159.622 117.648 159.622 114.192C159.622 110.736 159.046 107.6 157.894 104.784C156.742 101.904 155.11 99.4081 152.998 97.2961C150.886 95.1841 148.422 93.5841 145.606 92.4961C142.854 91.3441 139.846 90.7681 136.582 90.7681C133.318 90.7681 130.278 91.3441 127.462 92.4961C124.71 93.5841 122.278 95.1841 120.166 97.2961C118.054 99.4081 116.422 101.904 115.27 104.784C114.118 107.6 113.542 110.736 113.542 114.192C113.542 117.648 114.118 120.816 115.27 123.696C116.422 126.576 118.054 129.072 120.166 131.184C122.278 133.232 124.71 134.832 127.462 135.984C130.278 137.136 133.318 137.712 136.582 137.712ZM151.75 158.64L130.438 121.392H145.798L167.398 158.64H151.75Z" fill="url(#paint1_linear_126_120)"/>
<path d="M211.471 151.152C205.839 151.152 200.815 149.968 196.399 147.6C191.983 145.232 188.495 142 185.935 137.904C183.439 133.744 182.191 129.04 182.191 123.792V78.4801H197.071V122.832C197.071 125.648 197.679 128.208 198.895 130.512C200.175 132.752 201.903 134.512 204.079 135.792C206.255 137.072 208.719 137.712 211.471 137.712C214.287 137.712 216.751 137.072 218.863 135.792C221.039 134.512 222.735 132.752 223.951 130.512C225.231 128.208 225.871 125.648 225.871 122.832V78.4801H240.751V123.792C240.751 129.04 239.471 133.744 236.911 137.904C234.415 142 230.959 145.232 226.543 147.6C222.127 149.968 217.103 151.152 211.471 151.152Z" fill="url(#paint2_linear_126_120)"/>
<path d="M250.524 150V78.4801H298.62V91.4401H265.404V107.664H296.7V120.624H265.404V137.04H298.62V150H250.524Z" fill="url(#paint3_linear_126_120)"/>
<path d="M356.113 151.152C350.737 151.152 345.745 150.224 341.137 148.368C336.529 146.512 332.497 143.92 329.041 140.592C325.649 137.2 322.993 133.264 321.073 128.784C319.153 124.304 318.193 119.44 318.193 114.192C318.193 108.944 319.121 104.08 320.977 99.6001C322.897 95.1201 325.553 91.2161 328.945 87.8881C332.401 84.5601 336.433 81.9681 341.041 80.1121C345.649 78.2561 350.673 77.3281 356.113 77.3281C361.553 77.3281 366.577 78.2561 371.185 80.1121C375.793 81.9681 379.793 84.5601 383.185 87.8881C386.641 91.2161 389.297 95.1201 391.153 99.6001C393.073 104.08 394.033 108.944 394.033 114.192C394.033 119.44 393.073 124.304 391.153 128.784C389.233 133.264 386.545 137.2 383.089 140.592C379.697 143.92 375.697 146.512 371.089 148.368C366.481 150.224 361.489 151.152 356.113 151.152ZM356.113 137.712C359.377 137.712 362.385 137.136 365.137 135.984C367.953 134.832 370.417 133.232 372.529 131.184C374.641 129.072 376.273 126.576 377.425 123.696C378.577 120.816 379.153 117.648 379.153 114.192C379.153 110.736 378.577 107.6 377.425 104.784C376.273 101.904 374.641 99.4081 372.529 97.2961C370.417 95.1841 367.953 93.5841 365.137 92.4961C362.385 91.3441 359.377 90.7681 356.113 90.7681C352.849 90.7681 349.809 91.3441 346.993 92.4961C344.241 93.5841 341.809 95.1841 339.697 97.2961C337.585 99.4081 335.953 101.904 334.801 104.784C333.649 107.6 333.073 110.736 333.073 114.192C333.073 117.648 333.649 120.816 334.801 123.696C335.953 126.576 337.585 129.072 339.697 131.184C341.809 133.232 344.241 134.832 346.993 135.984C349.809 137.136 352.849 137.712 356.113 137.712Z" fill="url(#paint4_linear_126_120)"/>
<path d="M402.587 150V78.4801H451.547V91.4401H417.467V109.584H446.747V122.544H417.467V150H402.587Z" fill="url(#paint5_linear_126_120)"/>
<path d="M456.93 150V78.4801H505.026V91.4401H471.81V107.664H503.106V120.624H471.81V137.04H505.026V150H456.93Z" fill="url(#paint6_linear_126_120)"/>
<path d="M511.462 150V78.4801H538.822C543.75 78.4801 548.102 79.3441 551.878 81.0721C555.718 82.8001 558.726 85.3601 560.902 88.7521C563.078 92.1441 564.166 96.3361 564.166 101.328C564.166 106.192 563.046 110.352 560.806 113.808C558.566 117.2 555.558 119.76 551.782 121.488L568.102 150H551.398L533.734 118.416L543.334 124.08H526.342V150H511.462ZM526.342 111.12H538.918C541.03 111.12 542.854 110.704 544.39 109.872C545.926 109.04 547.11 107.888 547.942 106.416C548.838 104.944 549.286 103.248 549.286 101.328C549.286 99.3441 548.838 97.6161 547.942 96.1441C547.11 94.6721 545.926 93.5201 544.39 92.6881C542.854 91.8561 541.03 91.4401 538.918 91.4401H526.342V111.12Z" fill="url(#paint7_linear_126_120)"/>
<path d="M573.493 150V78.4801H621.589V91.4401H588.373V107.664H619.669V120.624H588.373V137.04H621.589V150H573.493Z" fill="url(#paint8_linear_126_120)"/>
<path d="M662.008 151.152C656.888 151.152 652.12 150.224 647.704 148.368C643.352 146.512 639.544 143.92 636.28 140.592C633.016 137.264 630.456 133.36 628.6 128.88C626.808 124.4 625.912 119.504 625.912 114.192C625.912 108.88 626.808 103.984 628.6 99.5041C630.392 94.9601 632.92 91.0561 636.184 87.7921C639.448 84.4641 643.256 81.9041 647.608 80.1121C652.024 78.2561 656.824 77.3281 662.008 77.3281C667.192 77.3281 671.832 78.1921 675.928 79.9201C680.088 81.6481 683.608 83.9521 686.488 86.8321C689.368 89.7121 691.416 92.9121 692.632 96.4321L679.48 102.768C678.264 99.3121 676.12 96.4641 673.048 94.2241C670.04 91.9201 666.36 90.7681 662.008 90.7681C657.784 90.7681 654.072 91.7601 650.872 93.7441C647.672 95.7281 645.176 98.4801 643.384 102C641.656 105.456 640.792 109.52 640.792 114.192C640.792 118.864 641.656 122.96 643.384 126.48C645.176 130 647.672 132.752 650.872 134.736C654.072 136.72 657.784 137.712 662.008 137.712C666.36 137.712 670.04 136.592 673.048 134.352C676.12 132.048 678.264 129.168 679.48 125.712L692.632 132.048C691.416 135.568 689.368 138.768 686.488 141.648C683.608 144.528 680.088 146.832 675.928 148.56C671.832 150.288 667.192 151.152 662.008 151.152Z" fill="url(#paint9_linear_126_120)"/>
<path d="M700.18 150V78.4801H748.276V91.4401H715.06V107.664H746.356V120.624H715.06V137.04H748.276V150H700.18Z" fill="url(#paint10_linear_126_120)"/>
<path d="M754.712 150V78.4801H769.112L795.896 114H789.176L815.192 78.4801H829.592V150H814.712V94.8961L820.664 96.2401L793.112 131.76H791.192L764.6 96.2401L769.592 94.8961V150H754.712Z" fill="url(#paint11_linear_126_120)"/>
<path d="M876.082 151.152C870.706 151.152 865.714 150.224 861.106 148.368C856.498 146.512 852.466 143.92 849.01 140.592C845.618 137.2 842.962 133.264 841.042 128.784C839.122 124.304 838.162 119.44 838.162 114.192C838.162 108.944 839.09 104.08 840.946 99.6001C842.866 95.1201 845.522 91.2161 848.914 87.8881C852.37 84.5601 856.402 81.9681 861.01 80.1121C865.618 78.2561 870.642 77.3281 876.082 77.3281C881.522 77.3281 886.546 78.2561 891.154 80.1121C895.762 81.9681 899.762 84.5601 903.154 87.8881C906.61 91.2161 909.266 95.1201 911.122 99.6001C913.042 104.08 914.002 108.944 914.002 114.192C914.002 119.44 913.042 124.304 911.122 128.784C909.202 133.264 906.514 137.2 903.058 140.592C899.666 143.92 895.666 146.512 891.058 148.368C886.45 150.224 881.458 151.152 876.082 151.152ZM876.082 137.712C879.346 137.712 882.354 137.136 885.106 135.984C887.922 134.832 890.386 133.232 892.498 131.184C894.61 129.072 896.242 126.576 897.394 123.696C898.546 120.816 899.122 117.648 899.122 114.192C899.122 110.736 898.546 107.6 897.394 104.784C896.242 101.904 894.61 99.4081 892.498 97.2961C890.386 95.1841 887.922 93.5841 885.106 92.4961C882.354 91.3441 879.346 90.7681 876.082 90.7681C872.818 90.7681 869.778 91.3441 866.962 92.4961C864.21 93.5841 861.778 95.1841 859.666 97.2961C857.554 99.4081 855.922 101.904 854.77 104.784C853.618 107.6 853.042 110.736 853.042 114.192C853.042 117.648 853.618 120.816 854.77 123.696C855.922 126.576 857.554 129.072 859.666 131.184C861.778 133.232 864.21 134.832 866.962 135.984C869.778 137.136 872.818 137.712 876.082 137.712Z" fill="url(#paint12_linear_126_120)"/>
<path d="M948.571 151.152C944.091 151.152 939.867 150.352 935.899 148.752C931.995 147.088 928.603 144.752 925.723 141.744C922.907 138.736 920.795 135.184 919.387 131.088L931.579 125.616C933.371 129.52 935.835 132.592 938.971 134.832C942.171 137.072 945.691 138.192 949.531 138.192C951.579 138.192 953.339 137.872 954.811 137.232C956.283 136.592 957.435 135.728 958.267 134.64C959.099 133.488 959.515 132.144 959.515 130.608C959.515 128.944 959.003 127.536 957.979 126.384C956.955 125.168 955.355 124.208 953.179 123.504L939.163 118.896C933.467 117.04 929.179 114.416 926.299 111.024C923.419 107.568 921.979 103.44 921.979 98.6401C921.979 94.4161 923.003 90.7041 925.051 87.5041C927.163 84.3041 930.075 81.8081 933.787 80.0161C937.563 78.2241 941.883 77.3281 946.747 77.3281C951.035 77.3281 955.003 78.0641 958.651 79.5361C962.299 81.0081 965.435 83.0881 968.059 85.7761C970.747 88.4641 972.763 91.6961 974.107 95.4721L962.011 100.944C960.667 97.6161 958.651 95.0241 955.963 93.1681C953.275 91.2481 950.203 90.2881 946.747 90.2881C944.763 90.2881 943.003 90.6081 941.467 91.2481C939.931 91.8881 938.747 92.8161 937.915 94.0321C937.083 95.1841 936.667 96.5281 936.667 98.0641C936.667 99.7281 937.211 101.2 938.299 102.48C939.387 103.696 941.019 104.656 943.195 105.36L956.923 109.776C962.683 111.632 966.971 114.224 969.787 117.552C972.667 120.88 974.107 124.944 974.107 129.744C974.107 133.904 973.019 137.616 970.843 140.88C968.667 144.08 965.659 146.608 961.819 148.464C958.043 150.256 953.627 151.152 948.571 151.152Z" fill="url(#paint13_linear_126_120)"/>
<path d="M39.0509 151.152C33.6749 151.152 28.6829 150.224 24.0749 148.368C19.4669 146.512 15.4349 143.92 11.9789 140.592C8.58686 137.2 5.93086 133.264 4.01086 128.784C2.09086 124.304 1.13086 119.44 1.13086 114.192C1.13086 108.944 2.05886 104.08 3.91486 99.6001C5.83486 95.1201 8.49086 91.2161 11.8829 87.8881C15.3389 84.5601 19.3709 81.9681 23.9789 80.1121C28.5869 78.2561 33.6109 77.3281 39.0509 77.3281C44.4909 77.3281 49.5149 78.2561 54.1229 80.1121C58.7309 81.9681 62.7309 84.5601 66.1229 87.8881C69.5789 91.2161 72.2349 95.1201 74.0909 99.6001C76.0109 104.08 76.9709 108.944 76.9709 114.192C76.9709 119.44 76.0109 124.304 74.0909 128.784C72.1709 133.264 69.4829 137.2 66.0269 140.592C62.6349 143.92 58.6349 146.512 54.0269 148.368C49.4189 150.224 44.4269 151.152 39.0509 151.152ZM39.0509 137.712C42.3149 137.712 45.3229 137.136 48.0749 135.984C50.8909 134.832 53.3549 133.232 55.4669 131.184C57.5789 129.072 59.2109 126.576 60.3629 123.696C61.5149 120.816 62.0909 117.648 62.0909 114.192C62.0909 110.736 61.5149 107.6 60.3629 104.784C59.2109 101.904 57.5789 99.4081 55.4669 97.2961C53.3549 95.1841 50.8909 93.5841 48.0749 92.4961C45.3229 91.3441 42.3149 90.7681 39.0509 90.7681C35.7869 90.7681 32.7469 91.3441 29.9309 92.4961C27.1789 93.5841 24.7469 95.1841 22.6349 97.2961C20.5229 99.4081 18.8909 101.904 17.7389 104.784C16.5869 107.6 16.0109 110.736 16.0109 114.192C16.0109 117.648 16.5869 120.816 17.7389 123.696C18.8909 126.576 20.5229 129.072 22.6349 131.184C24.7469 133.232 27.1789 134.832 29.9309 135.984C32.7469 137.136 35.7869 137.712 39.0509 137.712Z" stroke="white" stroke-opacity="0.1" stroke-width="2" mask="url(#path-1-outside-1_126_120)"/>
<path d="M136.582 151.152C131.206 151.152 126.214 150.224 121.606 148.368C116.998 146.512 112.966 143.92 109.51 140.592C106.118 137.2 103.462 133.264 101.542 128.784C99.6221 124.304 98.6621 119.44 98.6621 114.192C98.6621 108.944 99.5901 104.08 101.446 99.6001C103.366 95.1201 106.022 91.2161 109.414 87.8881C112.87 84.5601 116.902 81.9681 121.51 80.1121C126.118 78.2561 131.142 77.3281 136.582 77.3281C142.022 77.3281 147.046 78.2561 151.654 80.1121C156.262 81.9681 160.262 84.5601 163.654 87.8881C167.11 91.2161 169.766 95.1201 171.622 99.6001C173.542 104.08 174.502 108.944 174.502 114.192C174.502 119.44 173.542 124.304 171.622 128.784C169.702 133.264 167.014 137.2 163.558 140.592C160.166 143.92 156.166 146.512 151.558 148.368C146.95 150.224 141.958 151.152 136.582 151.152ZM136.582 137.712C139.846 137.712 142.854 137.136 145.606 135.984C148.422 134.832 150.886 133.232 152.998 131.184C155.11 129.072 156.742 126.576 157.894 123.696C159.046 120.816 159.622 117.648 159.622 114.192C159.622 110.736 159.046 107.6 157.894 104.784C156.742 101.904 155.11 99.4081 152.998 97.2961C150.886 95.1841 148.422 93.5841 145.606 92.4961C142.854 91.3441 139.846 90.7681 136.582 90.7681C133.318 90.7681 130.278 91.3441 127.462 92.4961C124.71 93.5841 122.278 95.1841 120.166 97.2961C118.054 99.4081 116.422 101.904 115.27 104.784C114.118 107.6 113.542 110.736 113.542 114.192C113.542 117.648 114.118 120.816 115.27 123.696C116.422 126.576 118.054 129.072 120.166 131.184C122.278 133.232 124.71 134.832 127.462 135.984C130.278 137.136 133.318 137.712 136.582 137.712ZM151.75 158.64L130.438 121.392H145.798L167.398 158.64H151.75Z" stroke="white" stroke-opacity="0.1" stroke-width="2" mask="url(#path-1-outside-1_126_120)"/>
<path d="M211.471 151.152C205.839 151.152 200.815 149.968 196.399 147.6C191.983 145.232 188.495 142 185.935 137.904C183.439 133.744 182.191 129.04 182.191 123.792V78.4801H197.071V122.832C197.071 125.648 197.679 128.208 198.895 130.512C200.175 132.752 201.903 134.512 204.079 135.792C206.255 137.072 208.719 137.712 211.471 137.712C214.287 137.712 216.751 137.072 218.863 135.792C221.039 134.512 222.735 132.752 223.951 130.512C225.231 128.208 225.871 125.648 225.871 122.832V78.4801H240.751V123.792C240.751 129.04 239.471 133.744 236.911 137.904C234.415 142 230.959 145.232 226.543 147.6C222.127 149.968 217.103 151.152 211.471 151.152Z" stroke="white" stroke-opacity="0.1" stroke-width="2" mask="url(#path-1-outside-1_126_120)"/>
<path d="M250.524 150V78.4801H298.62V91.4401H265.404V107.664H296.7V120.624H265.404V137.04H298.62V150H250.524Z" stroke="white" stroke-opacity="0.1" stroke-width="2" mask="url(#path-1-outside-1_126_120)"/>
<path d="M356.113 151.152C350.737 151.152 345.745 150.224 341.137 148.368C336.529 146.512 332.497 143.92 329.041 140.592C325.649 137.2 322.993 133.264 321.073 128.784C319.153 124.304 318.193 119.44 318.193 114.192C318.193 108.944 319.121 104.08 320.977 99.6001C322.897 95.1201 325.553 91.2161 328.945 87.8881C332.401 84.5601 336.433 81.9681 341.041 80.1121C345.649 78.2561 350.673 77.3281 356.113 77.3281C361.553 77.3281 366.577 78.2561 371.185 80.1121C375.793 81.9681 379.793 84.5601 383.185 87.8881C386.641 91.2161 389.297 95.1201 391.153 99.6001C393.073 104.08 394.033 108.944 394.033 114.192C394.033 119.44 393.073 124.304 391.153 128.784C389.233 133.264 386.545 137.2 383.089 140.592C379.697 143.92 375.697 146.512 371.089 148.368C366.481 150.224 361.489 151.152 356.113 151.152ZM356.113 137.712C359.377 137.712 362.385 137.136 365.137 135.984C367.953 134.832 370.417 133.232 372.529 131.184C374.641 129.072 376.273 126.576 377.425 123.696C378.577 120.816 379.153 117.648 379.153 114.192C379.153 110.736 378.577 107.6 377.425 104.784C376.273 101.904 374.641 99.4081 372.529 97.2961C370.417 95.1841 367.953 93.5841 365.137 92.4961C362.385 91.3441 359.377 90.7681 356.113 90.7681C352.849 90.7681 349.809 91.3441 346.993 92.4961C344.241 93.5841 341.809 95.1841 339.697 97.2961C337.585 99.4081 335.953 101.904 334.801 104.784C333.649 107.6 333.073 110.736 333.073 114.192C333.073 117.648 333.649 120.816 334.801 123.696C335.953 126.576 337.585 129.072 339.697 131.184C341.809 133.232 344.241 134.832 346.993 135.984C349.809 137.136 352.849 137.712 356.113 137.712Z" stroke="white" stroke-opacity="0.1" stroke-width="2" mask="url(#path-1-outside-1_126_120)"/>
<path d="M402.587 150V78.4801H451.547V91.4401H417.467V109.584H446.747V122.544H417.467V150H402.587Z" stroke="white" stroke-opacity="0.1" stroke-width="2" mask="url(#path-1-outside-1_126_120)"/>
<path d="M456.93 150V78.4801H505.026V91.4401H471.81V107.664H503.106V120.624H471.81V137.04H505.026V150H456.93Z" stroke="white" stroke-opacity="0.1" stroke-width="2" mask="url(#path-1-outside-1_126_120)"/>
<path d="M511.462 150V78.4801H538.822C543.75 78.4801 548.102 79.3441 551.878 81.0721C555.718 82.8001 558.726 85.3601 560.902 88.7521C563.078 92.1441 564.166 96.3361 564.166 101.328C564.166 106.192 563.046 110.352 560.806 113.808C558.566 117.2 555.558 119.76 551.782 121.488L568.102 150H551.398L533.734 118.416L543.334 124.08H526.342V150H511.462ZM526.342 111.12H538.918C541.03 111.12 542.854 110.704 544.39 109.872C545.926 109.04 547.11 107.888 547.942 106.416C548.838 104.944 549.286 103.248 549.286 101.328C549.286 99.3441 548.838 97.6161 547.942 96.1441C547.11 94.6721 545.926 93.5201 544.39 92.6881C542.854 91.8561 541.03 91.4401 538.918 91.4401H526.342V111.12Z" stroke="white" stroke-opacity="0.1" stroke-width="2" mask="url(#path-1-outside-1_126_120)"/>
<path d="M573.493 150V78.4801H621.589V91.4401H588.373V107.664H619.669V120.624H588.373V137.04H621.589V150H573.493Z" stroke="white" stroke-opacity="0.1" stroke-width="2" mask="url(#path-1-outside-1_126_120)"/>
<path d="M662.008 151.152C656.888 151.152 652.12 150.224 647.704 148.368C643.352 146.512 639.544 143.92 636.28 140.592C633.016 137.264 630.456 133.36 628.6 128.88C626.808 124.4 625.912 119.504 625.912 114.192C625.912 108.88 626.808 103.984 628.6 99.5041C630.392 94.9601 632.92 91.0561 636.184 87.7921C639.448 84.4641 643.256 81.9041 647.608 80.1121C652.024 78.2561 656.824 77.3281 662.008 77.3281C667.192 77.3281 671.832 78.1921 675.928 79.9201C680.088 81.6481 683.608 83.9521 686.488 86.8321C689.368 89.7121 691.416 92.9121 692.632 96.4321L679.48 102.768C678.264 99.3121 676.12 96.4641 673.048 94.2241C670.04 91.9201 666.36 90.7681 662.008 90.7681C657.784 90.7681 654.072 91.7601 650.872 93.7441C647.672 95.7281 645.176 98.4801 643.384 102C641.656 105.456 640.792 109.52 640.792 114.192C640.792 118.864 641.656 122.96 643.384 126.48C645.176 130 647.672 132.752 650.872 134.736C654.072 136.72 657.784 137.712 662.008 137.712C666.36 137.712 670.04 136.592 673.048 134.352C676.12 132.048 678.264 129.168 679.48 125.712L692.632 132.048C691.416 135.568 689.368 138.768 686.488 141.648C683.608 144.528 680.088 146.832 675.928 148.56C671.832 150.288 667.192 151.152 662.008 151.152Z" stroke="white" stroke-opacity="0.1" stroke-width="2" mask="url(#path-1-outside-1_126_120)"/>
<path d="M700.18 150V78.4801H748.276V91.4401H715.06V107.664H746.356V120.624H715.06V137.04H748.276V150H700.18Z" stroke="white" stroke-opacity="0.1" stroke-width="2" mask="url(#path-1-outside-1_126_120)"/>
<path d="M754.712 150V78.4801H769.112L795.896 114H789.176L815.192 78.4801H829.592V150H814.712V94.8961L820.664 96.2401L793.112 131.76H791.192L764.6 96.2401L769.592 94.8961V150H754.712Z" stroke="white" stroke-opacity="0.1" stroke-width="2" mask="url(#path-1-outside-1_126_120)"/>
<path d="M876.082 151.152C870.706 151.152 865.714 150.224 861.106 148.368C856.498 146.512 852.466 143.92 849.01 140.592C845.618 137.2 842.962 133.264 841.042 128.784C839.122 124.304 838.162 119.44 838.162 114.192C838.162 108.944 839.09 104.08 840.946 99.6001C842.866 95.1201 845.522 91.2161 848.914 87.8881C852.37 84.5601 856.402 81.9681 861.01 80.1121C865.618 78.2561 870.642 77.3281 876.082 77.3281C881.522 77.3281 886.546 78.2561 891.154 80.1121C895.762 81.9681 899.762 84.5601 903.154 87.8881C906.61 91.2161 909.266 95.1201 911.122 99.6001C913.042 104.08 914.002 108.944 914.002 114.192C914.002 119.44 913.042 124.304 911.122 128.784C909.202 133.264 906.514 137.2 903.058 140.592C899.666 143.92 895.666 146.512 891.058 148.368C886.45 150.224 881.458 151.152 876.082 151.152ZM876.082 137.712C879.346 137.712 882.354 137.136 885.106 135.984C887.922 134.832 890.386 133.232 892.498 131.184C894.61 129.072 896.242 126.576 897.394 123.696C898.546 120.816 899.122 117.648 899.122 114.192C899.122 110.736 898.546 107.6 897.394 104.784C896.242 101.904 894.61 99.4081 892.498 97.2961C890.386 95.1841 887.922 93.5841 885.106 92.4961C882.354 91.3441 879.346 90.7681 876.082 90.7681C872.818 90.7681 869.778 91.3441 866.962 92.4961C864.21 93.5841 861.778 95.1841 859.666 97.2961C857.554 99.4081 855.922 101.904 854.77 104.784C853.618 107.6 853.042 110.736 853.042 114.192C853.042 117.648 853.618 120.816 854.77 123.696C855.922 126.576 857.554 129.072 859.666 131.184C861.778 133.232 864.21 134.832 866.962 135.984C869.778 137.136 872.818 137.712 876.082 137.712Z" stroke="white" stroke-opacity="0.1" stroke-width="2" mask="url(#path-1-outside-1_126_120)"/>
<path d="M948.571 151.152C944.091 151.152 939.867 150.352 935.899 148.752C931.995 147.088 928.603 144.752 925.723 141.744C922.907 138.736 920.795 135.184 919.387 131.088L931.579 125.616C933.371 129.52 935.835 132.592 938.971 134.832C942.171 137.072 945.691 138.192 949.531 138.192C951.579 138.192 953.339 137.872 954.811 137.232C956.283 136.592 957.435 135.728 958.267 134.64C959.099 133.488 959.515 132.144 959.515 130.608C959.515 128.944 959.003 127.536 957.979 126.384C956.955 125.168 955.355 124.208 953.179 123.504L939.163 118.896C933.467 117.04 929.179 114.416 926.299 111.024C923.419 107.568 921.979 103.44 921.979 98.6401C921.979 94.4161 923.003 90.7041 925.051 87.5041C927.163 84.3041 930.075 81.8081 933.787 80.0161C937.563 78.2241 941.883 77.3281 946.747 77.3281C951.035 77.3281 955.003 78.0641 958.651 79.5361C962.299 81.0081 965.435 83.0881 968.059 85.7761C970.747 88.4641 972.763 91.6961 974.107 95.4721L962.011 100.944C960.667 97.6161 958.651 95.0241 955.963 93.1681C953.275 91.2481 950.203 90.2881 946.747 90.2881C944.763 90.2881 943.003 90.6081 941.467 91.2481C939.931 91.8881 938.747 92.8161 937.915 94.0321C937.083 95.1841 936.667 96.5281 936.667 98.0641C936.667 99.7281 937.211 101.2 938.299 102.48C939.387 103.696 941.019 104.656 943.195 105.36L956.923 109.776C962.683 111.632 966.971 114.224 969.787 117.552C972.667 120.88 974.107 124.944 974.107 129.744C974.107 133.904 973.019 137.616 970.843 140.88C968.667 144.08 965.659 146.608 961.819 148.464C958.043 150.256 953.627 151.152 948.571 151.152Z" stroke="white" stroke-opacity="0.1" stroke-width="2" mask="url(#path-1-outside-1_126_120)"/>
<path d="M39.0509 75.1521C33.6749 75.1521 28.6829 74.2241 24.0749 72.3681C19.4669 70.5121 15.4349 67.9201 11.9789 64.5921C8.58686 61.2001 5.93086 57.2641 4.01086 52.7841C2.09086 48.3041 1.13086 43.4401 1.13086 38.1921C1.13086 32.9441 2.05886 28.0801 3.91486 23.6001C5.83486 19.1201 8.49086 15.2161 11.8829 11.8881C15.3389 8.56012 19.3709 5.96812 23.9789 4.11212C28.5869 2.25612 33.6109 1.32812 39.0509 1.32812C44.4909 1.32812 49.5149 2.25612 54.1229 4.11212C58.7309 5.96812 62.7309 8.56012 66.1229 11.8881C69.5789 15.2161 72.2349 19.1201 74.0909 23.6001C76.0109 28.0801 76.9709 32.9441 76.9709 38.1921C76.9709 43.4401 76.0109 48.3041 74.0909 52.7841C72.1709 57.2641 69.4829 61.2001 66.0269 64.5921C62.6349 67.9201 58.6349 70.5121 54.0269 72.3681C49.4189 74.2241 44.4269 75.1521 39.0509 75.1521ZM39.0509 61.7121C42.3149 61.7121 45.3229 61.1361 48.0749 59.9841C50.8909 58.8321 53.3549 57.2321 55.4669 55.1841C57.5789 53.0721 59.2109 50.5761 60.3629 47.6961C61.5149 44.8161 62.0909 41.6481 62.0909 38.1921C62.0909 34.7361 61.5149 31.6001 60.3629 28.7841C59.2109 25.9041 57.5789 23.4081 55.4669 21.2961C53.3549 19.1841 50.8909 17.5841 48.0749 16.4961C45.3229 15.3441 42.3149 14.7681 39.0509 14.7681C35.7869 14.7681 32.7469 15.3441 29.9309 16.4961C27.1789 17.5841 24.7469 19.1841 22.6349 21.2961C20.5229 23.4081 18.8909 25.9041 17.7389 28.7841C16.5869 31.6001 16.0109 34.7361 16.0109 38.1921C16.0109 41.6481 16.5869 44.8161 17.7389 47.6961C18.8909 50.5761 20.5229 53.0721 22.6349 55.1841C24.7469 57.2321 27.1789 58.8321 29.9309 59.9841C32.7469 61.1361 35.7869 61.7121 39.0509 61.7121ZM136.582 75.1521C131.206 75.1521 126.214 74.2241 121.606 72.3681C116.998 70.5121 112.966 67.9201 109.51 64.5921C106.118 61.2001 103.462 57.2641 101.542 52.7841C99.6221 48.3041 98.6621 43.4401 98.6621 38.1921C98.6621 32.9441 99.5901 28.0801 101.446 23.6001C103.366 19.1201 106.022 15.2161 109.414 11.8881C112.87 8.56012 116.902 5.96812 121.51 4.11212C126.118 2.25612 131.142 1.32812 136.582 1.32812C142.022 1.32812 147.046 2.25612 151.654 4.11212C156.262 5.96812 160.262 8.56012 163.654 11.8881C167.11 15.2161 169.766 19.1201 171.622 23.6001C173.542 28.0801 174.502 32.9441 174.502 38.1921C174.502 43.4401 173.542 48.3041 171.622 52.7841C169.702 57.2641 167.014 61.2001 163.558 64.5921C160.166 67.9201 156.166 70.5121 151.558 72.3681C146.95 74.2241 141.958 75.1521 136.582 75.1521ZM136.582 61.7121C139.846 61.7121 142.854 61.1361 145.606 59.9841C148.422 58.8321 150.886 57.2321 152.998 55.1841C155.11 53.0721 156.742 50.5761 157.894 47.6961C159.046 44.8161 159.622 41.6481 159.622 38.1921C159.622 34.7361 159.046 31.6001 157.894 28.7841C156.742 25.9041 155.11 23.4081 152.998 21.2961C150.886 19.1841 148.422 17.5841 145.606 16.4961C142.854 15.3441 139.846 14.7681 136.582 14.7681C133.318 14.7681 130.278 15.3441 127.462 16.4961C124.71 17.5841 122.278 19.1841 120.166 21.2961C118.054 23.4081 116.422 25.9041 115.27 28.7841C114.118 31.6001 113.542 34.7361 113.542 38.1921C113.542 41.6481 114.118 44.8161 115.27 47.6961C116.422 50.5761 118.054 53.0721 120.166 55.1841C122.278 57.2321 124.71 58.8321 127.462 59.9841C130.278 61.1361 133.318 61.7121 136.582 61.7121ZM151.75 82.6401L130.438 45.3921H145.798L167.398 82.6401H151.75ZM211.471 75.1521C205.839 75.1521 200.815 73.9681 196.399 71.6001C191.983 69.2321 188.495 66.0001 185.935 61.9041C183.439 57.7441 182.191 53.0401 182.191 47.7921V2.48012H197.071V46.8321C197.071 49.6481 197.679 52.2081 198.895 54.5121C200.175 56.7521 201.903 58.5121 204.079 59.7921C206.255 61.0721 208.719 61.7121 211.471 61.7121C214.287 61.7121 216.751 61.0721 218.863 59.7921C221.039 58.5121 222.735 56.7521 223.951 54.5121C225.231 52.2081 225.871 49.6481 225.871 46.8321V2.48012H240.751V47.7921C240.751 53.0401 239.471 57.7441 236.911 61.9041C234.415 66.0001 230.959 69.2321 226.543 71.6001C222.127 73.9681 217.103 75.1521 211.471 75.1521ZM250.524 74.0001V2.48012H298.62V15.4401H265.404V31.6641H296.7V44.6241H265.404V61.0401H298.62V74.0001H250.524ZM356.113 75.1521C350.737 75.1521 345.745 74.2241 341.137 72.3681C336.529 70.5121 332.497 67.9201 329.041 64.5921C325.649 61.2001 322.993 57.2641 321.073 52.7841C319.153 48.3041 318.193 43.4401 318.193 38.1921C318.193 32.9441 319.121 28.0801 320.977 23.6001C322.897 19.1201 325.553 15.2161 328.945 11.8881C332.401 8.56012 336.433 5.96812 341.041 4.11212C345.649 2.25612 350.673 1.32812 356.113 1.32812C361.553 1.32812 366.577 2.25612 371.185 4.11212C375.793 5.96812 379.793 8.56012 383.185 11.8881C386.641 15.2161 389.297 19.1201 391.153 23.6001C393.073 28.0801 394.033 32.9441 394.033 38.1921C394.033 43.4401 393.073 48.3041 391.153 52.7841C389.233 57.2641 386.545 61.2001 383.089 64.5921C379.697 67.9201 375.697 70.5121 371.089 72.3681C366.481 74.2241 361.489 75.1521 356.113 75.1521ZM356.113 61.7121C359.377 61.7121 362.385 61.1361 365.137 59.9841C367.953 58.8321 370.417 57.2321 372.529 55.1841C374.641 53.0721 376.273 50.5761 377.425 47.6961C378.577 44.8161 379.153 41.6481 379.153 38.1921C379.153 34.7361 378.577 31.6001 377.425 28.7841C376.273 25.9041 374.641 23.4081 372.529 21.2961C370.417 19.1841 367.953 17.5841 365.137 16.4961C362.385 15.3441 359.377 14.7681 356.113 14.7681C352.849 14.7681 349.809 15.3441 346.993 16.4961C344.241 17.5841 341.809 19.1841 339.697 21.2961C337.585 23.4081 335.953 25.9041 334.801 28.7841C333.649 31.6001 333.073 34.7361 333.073 38.1921C333.073 41.6481 333.649 44.8161 334.801 47.6961C335.953 50.5761 337.585 53.0721 339.697 55.1841C341.809 57.2321 344.241 58.8321 346.993 59.9841C349.809 61.1361 352.849 61.7121 356.113 61.7121ZM402.587 74.0001V2.48012H451.547V15.4401H417.467V33.5841H446.747V46.5441H417.467V74.0001H402.587ZM456.93 74.0001V2.48012H505.026V15.4401H471.81V31.6641H503.106V44.6241H471.81V61.0401H505.026V74.0001H456.93ZM511.462 74.0001V2.48012H538.822C543.75 2.48012 548.102 3.34412 551.878 5.07212C555.718 6.80012 558.726 9.36012 560.902 12.7521C563.078 16.1441 564.166 20.3361 564.166 25.3281C564.166 30.1921 563.046 34.3521 560.806 37.8081C558.566 41.2001 555.558 43.7601 551.782 45.4881L568.102 74.0001H551.398L533.734 42.4161L543.334 48.0801H526.342V74.0001H511.462ZM526.342 35.1201H538.918C541.03 35.1201 542.854 34.7041 544.39 33.8721C545.926 33.0401 547.11 31.8881 547.942 30.4161C548.838 28.9441 549.286 27.2481 549.286 25.3281C549.286 23.3441 548.838 21.6161 547.942 20.1441C547.11 18.6721 545.926 17.5201 544.39 16.6881C542.854 15.8561 541.03 15.4401 538.918 15.4401H526.342V35.1201ZM573.493 74.0001V2.48012H621.589V15.4401H588.373V31.6641H619.669V44.6241H588.373V61.0401H621.589V74.0001H573.493ZM662.008 75.1521C656.888 75.1521 652.12 74.2241 647.704 72.3681C643.352 70.5121 639.544 67.9201 636.28 64.5921C633.016 61.2641 630.456 57.3601 628.6 52.8801C626.808 48.4001 625.912 43.5041 625.912 38.1921C625.912 32.8801 626.808 27.9841 628.6 23.5041C630.392 18.9601 632.92 15.0561 636.184 11.7921C639.448 8.46412 643.256 5.90412 647.608 4.11212C652.024 2.25612 656.824 1.32812 662.008 1.32812C667.192 1.32812 671.832 2.19213 675.928 3.92013C680.088 5.64813 683.608 7.95213 686.488 10.8321C689.368 13.7121 691.416 16.9121 692.632 20.4321L679.48 26.7681C678.264 23.3121 676.12 20.4641 673.048 18.2241C670.04 15.9201 666.36 14.7681 662.008 14.7681C657.784 14.7681 654.072 15.7601 650.872 17.7441C647.672 19.7281 645.176 22.4801 643.384 26.0001C641.656 29.4561 640.792 33.5201 640.792 38.1921C640.792 42.8641 641.656 46.9601 643.384 50.4801C645.176 54.0001 647.672 56.7521 650.872 58.7361C654.072 60.7201 657.784 61.7121 662.008 61.7121C666.36 61.7121 670.04 60.5921 673.048 58.3521C676.12 56.0481 678.264 53.1681 679.48 49.7121L692.632 56.0481C691.416 59.5681 689.368 62.7681 686.488 65.6481C683.608 68.5281 680.088 70.8321 675.928 72.5601C671.832 74.2881 667.192 75.1521 662.008 75.1521ZM700.18 74.0001V2.48012H748.276V15.4401H715.06V31.6641H746.356V44.6241H715.06V61.0401H748.276V74.0001H700.18ZM754.712 74.0001V2.48012H769.112L795.896 38.0001H789.176L815.192 2.48012H829.592V74.0001H814.712V18.8961L820.664 20.2401L793.112 55.7601H791.192L764.6 20.2401L769.592 18.8961V74.0001H754.712ZM876.082 75.1521C870.706 75.1521 865.714 74.2241 861.106 72.3681C856.498 70.5121 852.466 67.9201 849.01 64.5921C845.618 61.2001 842.962 57.2641 841.042 52.7841C839.122 48.3041 838.162 43.4401 838.162 38.1921C838.162 32.9441 839.09 28.0801 840.946 23.6001C842.866 19.1201 845.522 15.2161 848.914 11.8881C852.37 8.56012 856.402 5.96812 861.01 4.11212C865.618 2.25612 870.642 1.32812 876.082 1.32812C881.522 1.32812 886.546 2.25612 891.154 4.11212C895.762 5.96812 899.762 8.56012 903.154 11.8881C906.61 15.2161 909.266 19.1201 911.122 23.6001C913.042 28.0801 914.002 32.9441 914.002 38.1921C914.002 43.4401 913.042 48.3041 911.122 52.7841C909.202 57.2641 906.514 61.2001 903.058 64.5921C899.666 67.9201 895.666 70.5121 891.058 72.3681C886.45 74.2241 881.458 75.1521 876.082 75.1521ZM876.082 61.7121C879.346 61.7121 882.354 61.1361 885.106 59.9841C887.922 58.8321 890.386 57.2321 892.498 55.1841C894.61 53.0721 896.242 50.5761 897.394 47.6961C898.546 44.8161 899.122 41.6481 899.122 38.1921C899.122 34.7361 898.546 31.6001 897.394 28.7841C896.242 25.9041 894.61 23.4081 892.498 21.2961C890.386 19.1841 887.922 17.5841 885.106 16.4961C882.354 15.3441 879.346 14.7681 876.082 14.7681C872.818 14.7681 869.778 15.3441 866.962 16.4961C864.21 17.5841 861.778 19.1841 859.666 21.2961C857.554 23.4081 855.922 25.9041 854.77 28.7841C853.618 31.6001 853.042 34.7361 853.042 38.1921C853.042 41.6481 853.618 44.8161 854.77 47.6961C855.922 50.5761 857.554 53.0721 859.666 55.1841C861.778 57.2321 864.21 58.8321 866.962 59.9841C869.778 61.1361 872.818 61.7121 876.082 61.7121ZM948.571 75.1521C944.091 75.1521 939.867 74.3521 935.899 72.7521C931.995 71.0881 928.603 68.7521 925.723 65.7441C922.907 62.7361 920.795 59.1841 919.387 55.0881L931.579 49.6161C933.371 53.5201 935.835 56.5921 938.971 58.8321C942.171 61.0721 945.691 62.1921 949.531 62.1921C951.579 62.1921 953.339 61.8721 954.811 61.2321C956.283 60.5921 957.435 59.7281 958.267 58.6401C959.099 57.4881 959.515 56.1441 959.515 54.6081C959.515 52.9441 959.003 51.5361 957.979 50.3841C956.955 49.1681 955.355 48.2081 953.179 47.5041L939.163 42.8961C933.467 41.0401 929.179 38.4161 926.299 35.0241C923.419 31.5681 921.979 27.4401 921.979 22.6401C921.979 18.4161 923.003 14.7041 925.051 11.5041C927.163 8.30412 930.075 5.80812 933.787 4.01612C937.563 2.22412 941.883 1.32812 946.747 1.32812C951.035 1.32812 955.003 2.06413 958.651 3.53613C962.299 5.00813 965.435 7.08813 968.059 9.77612C970.747 12.4641 972.763 15.6961 974.107 19.4721L962.011 24.9441C960.667 21.6161 958.651 19.0241 955.963 17.1681C953.275 15.2481 950.203 14.2881 946.747 14.2881C944.763 14.2881 943.003 14.6081 941.467 15.2481C939.931 15.8881 938.747 16.8161 937.915 18.0321C937.083 19.1841 936.667 20.5281 936.667 22.0641C936.667 23.7281 937.211 25.2001 938.299 26.4801C939.387 27.6961 941.019 28.6561 943.195 29.3601L956.923 33.7761C962.683 35.6321 966.971 38.2241 969.787 41.5521C972.667 44.8801 974.107 48.9441 974.107 53.7441C974.107 57.9041 973.019 61.6161 970.843 64.8801C968.667 68.0801 965.659 70.6081 961.819 72.4641C958.043 74.2561 953.627 75.1521 948.571 75.1521Z" stroke="white" stroke-opacity="0.1" stroke-width="2" mask="url(#path-1-outside-1_126_120)"/>
<path d="M43.0509 227.152C37.6749 227.152 32.6829 226.224 28.0749 224.368C23.4669 222.512 19.4349 219.92 15.9789 216.592C12.5869 213.2 9.93086 209.264 8.01086 204.784C6.09086 200.304 5.13086 195.44 5.13086 190.192C5.13086 184.944 6.05886 180.08 7.91486 175.6C9.83486 171.12 12.4909 167.216 15.8829 163.888C19.3389 160.56 23.3709 157.968 27.9789 156.112C32.5869 154.256 37.6109 153.328 43.0509 153.328C48.4909 153.328 53.5149 154.256 58.1229 156.112C62.7309 157.968 66.7309 160.56 70.1229 163.888C73.5789 167.216 76.2349 171.12 78.0909 175.6C80.0109 180.08 80.9709 184.944 80.9709 190.192C80.9709 195.44 80.0109 200.304 78.0909 204.784C76.1709 209.264 73.4829 213.2 70.0269 216.592C66.6349 219.92 62.6349 222.512 58.0269 224.368C53.4189 226.224 48.4269 227.152 43.0509 227.152ZM43.0509 213.712C46.3149 213.712 49.3229 213.136 52.0749 211.984C54.8909 210.832 57.3549 209.232 59.4669 207.184C61.5789 205.072 63.2109 202.576 64.3629 199.696C65.5149 196.816 66.0909 193.648 66.0909 190.192C66.0909 186.736 65.5149 183.6 64.3629 180.784C63.2109 177.904 61.5789 175.408 59.4669 173.296C57.3549 171.184 54.8909 169.584 52.0749 168.496C49.3229 167.344 46.3149 166.768 43.0509 166.768C39.7869 166.768 36.7469 167.344 33.9309 168.496C31.1789 169.584 28.7469 171.184 26.6349 173.296C24.5229 175.408 22.8909 177.904 21.7389 180.784C20.5869 183.6 20.0109 186.736 20.0109 190.192C20.0109 193.648 20.5869 196.816 21.7389 199.696C22.8909 202.576 24.5229 205.072 26.6349 207.184C28.7469 209.232 31.1789 210.832 33.9309 211.984C36.7469 213.136 39.7869 213.712 43.0509 213.712ZM140.582 227.152C135.206 227.152 130.214 226.224 125.606 224.368C120.998 222.512 116.966 219.92 113.51 216.592C110.118 213.2 107.462 209.264 105.542 204.784C103.622 200.304 102.662 195.44 102.662 190.192C102.662 184.944 103.59 180.08 105.446 175.6C107.366 171.12 110.022 167.216 113.414 163.888C116.87 160.56 120.902 157.968 125.51 156.112C130.118 154.256 135.142 153.328 140.582 153.328C146.022 153.328 151.046 154.256 155.654 156.112C160.262 157.968 164.262 160.56 167.654 163.888C171.11 167.216 173.766 171.12 175.622 175.6C177.542 180.08 178.502 184.944 178.502 190.192C178.502 195.44 177.542 200.304 175.622 204.784C173.702 209.264 171.014 213.2 167.558 216.592C164.166 219.92 160.166 222.512 155.558 224.368C150.95 226.224 145.958 227.152 140.582 227.152ZM140.582 213.712C143.846 213.712 146.854 213.136 149.606 211.984C152.422 210.832 154.886 209.232 156.998 207.184C159.11 205.072 160.742 202.576 161.894 199.696C163.046 196.816 163.622 193.648 163.622 190.192C163.622 186.736 163.046 183.6 161.894 180.784C160.742 177.904 159.11 175.408 156.998 173.296C154.886 171.184 152.422 169.584 149.606 168.496C146.854 167.344 143.846 166.768 140.582 166.768C137.318 166.768 134.278 167.344 131.462 168.496C128.71 169.584 126.278 171.184 124.166 173.296C122.054 175.408 120.422 177.904 119.27 180.784C118.118 183.6 117.542 186.736 117.542 190.192C117.542 193.648 118.118 196.816 119.27 199.696C120.422 202.576 122.054 205.072 124.166 207.184C126.278 209.232 128.71 210.832 131.462 211.984C134.278 213.136 137.318 213.712 140.582 213.712ZM155.75 234.64L134.438 197.392H149.798L171.398 234.64H155.75ZM215.471 227.152C209.839 227.152 204.815 225.968 200.399 223.6C195.983 221.232 192.495 218 189.935 213.904C187.439 209.744 186.191 205.04 186.191 199.792V154.48H201.071V198.832C201.071 201.648 201.679 204.208 202.895 206.512C204.175 208.752 205.903 210.512 208.079 211.792C210.255 213.072 212.719 213.712 215.471 213.712C218.287 213.712 220.751 213.072 222.863 211.792C225.039 210.512 226.735 208.752 227.951 206.512C229.231 204.208 229.871 201.648 229.871 198.832V154.48H244.751V199.792C244.751 205.04 243.471 209.744 240.911 213.904C238.415 218 234.959 221.232 230.543 223.6C226.127 225.968 221.103 227.152 215.471 227.152ZM254.524 226V154.48H302.62V167.44H269.404V183.664H300.7V196.624H269.404V213.04H302.62V226H254.524ZM360.113 227.152C354.737 227.152 349.745 226.224 345.137 224.368C340.529 222.512 336.497 219.92 333.041 216.592C329.649 213.2 326.993 209.264 325.073 204.784C323.153 200.304 322.193 195.44 322.193 190.192C322.193 184.944 323.121 180.08 324.977 175.6C326.897 171.12 329.553 167.216 332.945 163.888C336.401 160.56 340.433 157.968 345.041 156.112C349.649 154.256 354.673 153.328 360.113 153.328C365.553 153.328 370.577 154.256 375.185 156.112C379.793 157.968 383.793 160.56 387.185 163.888C390.641 167.216 393.297 171.12 395.153 175.6C397.073 180.08 398.033 184.944 398.033 190.192C398.033 195.44 397.073 200.304 395.153 204.784C393.233 209.264 390.545 213.2 387.089 216.592C383.697 219.92 379.697 222.512 375.089 224.368C370.481 226.224 365.489 227.152 360.113 227.152ZM360.113 213.712C363.377 213.712 366.385 213.136 369.137 211.984C371.953 210.832 374.417 209.232 376.529 207.184C378.641 205.072 380.273 202.576 381.425 199.696C382.577 196.816 383.153 193.648 383.153 190.192C383.153 186.736 382.577 183.6 381.425 180.784C380.273 177.904 378.641 175.408 376.529 173.296C374.417 171.184 371.953 169.584 369.137 168.496C366.385 167.344 363.377 166.768 360.113 166.768C356.849 166.768 353.809 167.344 350.993 168.496C348.241 169.584 345.809 171.184 343.697 173.296C341.585 175.408 339.953 177.904 338.801 180.784C337.649 183.6 337.073 186.736 337.073 190.192C337.073 193.648 337.649 196.816 338.801 199.696C339.953 202.576 341.585 205.072 343.697 207.184C345.809 209.232 348.241 210.832 350.993 211.984C353.809 213.136 356.849 213.712 360.113 213.712ZM406.587 226V154.48H455.547V167.44H421.467V185.584H450.747V198.544H421.467V226H406.587ZM460.93 226V154.48H509.026V167.44H475.81V183.664H507.106V196.624H475.81V213.04H509.026V226H460.93ZM515.462 226V154.48H542.822C547.75 154.48 552.102 155.344 555.878 157.072C559.718 158.8 562.726 161.36 564.902 164.752C567.078 168.144 568.166 172.336 568.166 177.328C568.166 182.192 567.046 186.352 564.806 189.808C562.566 193.2 559.558 195.76 555.782 197.488L572.102 226H555.398L537.734 194.416L547.334 200.08H530.342V226H515.462ZM530.342 187.12H542.918C545.03 187.12 546.854 186.704 548.39 185.872C549.926 185.04 551.11 183.888 551.942 182.416C552.838 180.944 553.286 179.248 553.286 177.328C553.286 175.344 552.838 173.616 551.942 172.144C551.11 170.672 549.926 169.52 548.39 168.688C546.854 167.856 545.03 167.44 542.918 167.44H530.342V187.12ZM577.493 226V154.48H625.589V167.44H592.373V183.664H623.669V196.624H592.373V213.04H625.589V226H577.493ZM666.008 227.152C660.888 227.152 656.12 226.224 651.704 224.368C647.352 222.512 643.544 219.92 640.28 216.592C637.016 213.264 634.456 209.36 632.6 204.88C630.808 200.4 629.912 195.504 629.912 190.192C629.912 184.88 630.808 179.984 632.6 175.504C634.392 170.96 636.92 167.056 640.184 163.792C643.448 160.464 647.256 157.904 651.608 156.112C656.024 154.256 660.824 153.328 666.008 153.328C671.192 153.328 675.832 154.192 679.928 155.92C684.088 157.648 687.608 159.952 690.488 162.832C693.368 165.712 695.416 168.912 696.632 172.432L683.48 178.768C682.264 175.312 680.12 172.464 677.048 170.224C674.04 167.92 670.36 166.768 666.008 166.768C661.784 166.768 658.072 167.76 654.872 169.744C651.672 171.728 649.176 174.48 647.384 178C645.656 181.456 644.792 185.52 644.792 190.192C644.792 194.864 645.656 198.96 647.384 202.48C649.176 206 651.672 208.752 654.872 210.736C658.072 212.72 661.784 213.712 666.008 213.712C670.36 213.712 674.04 212.592 677.048 210.352C680.12 208.048 682.264 205.168 683.48 201.712L696.632 208.048C695.416 211.568 693.368 214.768 690.488 217.648C687.608 220.528 684.088 222.832 679.928 224.56C675.832 226.288 671.192 227.152 666.008 227.152ZM704.18 226V154.48H752.276V167.44H719.06V183.664H750.356V196.624H719.06V213.04H752.276V226H704.18ZM758.712 226V154.48H773.112L799.896 190H793.176L819.192 154.48H833.592V226H818.712V170.896L824.664 172.24L797.112 207.76H795.192L768.6 172.24L773.592 170.896V226H758.712ZM880.082 227.152C874.706 227.152 869.714 226.224 865.106 224.368C860.498 222.512 856.466 219.92 853.01 216.592C849.618 213.2 846.962 209.264 845.042 204.784C843.122 200.304 842.162 195.44 842.162 190.192C842.162 184.944 843.09 180.08 844.946 175.6C846.866 171.12 849.522 167.216 852.914 163.888C856.37 160.56 860.402 157.968 865.01 156.112C869.618 154.256 874.642 153.328 880.082 153.328C885.522 153.328 890.546 154.256 895.154 156.112C899.762 157.968 903.762 160.56 907.154 163.888C910.61 167.216 913.266 171.12 915.122 175.6C917.042 180.08 918.002 184.944 918.002 190.192C918.002 195.44 917.042 200.304 915.122 204.784C913.202 209.264 910.514 213.2 907.058 216.592C903.666 219.92 899.666 222.512 895.058 224.368C890.45 226.224 885.458 227.152 880.082 227.152ZM880.082 213.712C883.346 213.712 886.354 213.136 889.106 211.984C891.922 210.832 894.386 209.232 896.498 207.184C898.61 205.072 900.242 202.576 901.394 199.696C902.546 196.816 903.122 193.648 903.122 190.192C903.122 186.736 902.546 183.6 901.394 180.784C900.242 177.904 898.61 175.408 896.498 173.296C894.386 171.184 891.922 169.584 889.106 168.496C886.354 167.344 883.346 166.768 880.082 166.768C876.818 166.768 873.778 167.344 870.962 168.496C868.21 169.584 865.778 171.184 863.666 173.296C861.554 175.408 859.922 177.904 858.77 180.784C857.618 183.6 857.042 186.736 857.042 190.192C857.042 193.648 857.618 196.816 858.77 199.696C859.922 202.576 861.554 205.072 863.666 207.184C865.778 209.232 868.21 210.832 870.962 211.984C873.778 213.136 876.818 213.712 880.082 213.712ZM952.571 227.152C948.091 227.152 943.867 226.352 939.899 224.752C935.995 223.088 932.603 220.752 929.723 217.744C926.907 214.736 924.795 211.184 923.387 207.088L935.579 201.616C937.371 205.52 939.835 208.592 942.971 210.832C946.171 213.072 949.691 214.192 953.531 214.192C955.579 214.192 957.339 213.872 958.811 213.232C960.283 212.592 961.435 211.728 962.267 210.64C963.099 209.488 963.515 208.144 963.515 206.608C963.515 204.944 963.003 203.536 961.979 202.384C960.955 201.168 959.355 200.208 957.179 199.504L943.163 194.896C937.467 193.04 933.179 190.416 930.299 187.024C927.419 183.568 925.979 179.44 925.979 174.64C925.979 170.416 927.003 166.704 929.051 163.504C931.163 160.304 934.075 157.808 937.787 156.016C941.563 154.224 945.883 153.328 950.747 153.328C955.035 153.328 959.003 154.064 962.651 155.536C966.299 157.008 969.435 159.088 972.059 161.776C974.747 164.464 976.763 167.696 978.107 171.472L966.011 176.944C964.667 173.616 962.651 171.024 959.963 169.168C957.275 167.248 954.203 166.288 950.747 166.288C948.763 166.288 947.003 166.608 945.467 167.248C943.931 167.888 942.747 168.816 941.915 170.032C941.083 171.184 940.667 172.528 940.667 174.064C940.667 175.728 941.211 177.2 942.299 178.48C943.387 179.696 945.019 180.656 947.195 181.36L960.923 185.776C966.683 187.632 970.971 190.224 973.787 193.552C976.667 196.88 978.107 200.944 978.107 205.744C978.107 209.904 977.019 213.616 974.843 216.88C972.667 220.08 969.659 222.608 965.819 224.464C962.043 226.256 957.627 227.152 952.571 227.152Z" stroke="white" stroke-opacity="0.1" stroke-width="2" mask="url(#path-1-outside-1_126_120)"/>
<defs>
<linearGradient id="paint0_linear_126_120" x1="1.13086" y1="117.984" x2="978.107" y2="117.984" gradientUnits="userSpaceOnUse">
<stop stop-color="#5E17EB" stop-opacity="0.3"/>
<stop offset="1" stop-color="#5E17EB"/>
</linearGradient>
<linearGradient id="paint1_linear_126_120" x1="1.13086" y1="117.984" x2="978.107" y2="117.984" gradientUnits="userSpaceOnUse">
<stop stop-color="#5E17EB" stop-opacity="0.3"/>
<stop offset="1" stop-color="#5E17EB"/>
</linearGradient>
<linearGradient id="paint2_linear_126_120" x1="1.13086" y1="117.984" x2="978.107" y2="117.984" gradientUnits="userSpaceOnUse">
<stop stop-color="#5E17EB" stop-opacity="0.3"/>
<stop offset="1" stop-color="#5E17EB"/>
</linearGradient>
<linearGradient id="paint3_linear_126_120" x1="1.13086" y1="117.984" x2="978.107" y2="117.984" gradientUnits="userSpaceOnUse">
<stop stop-color="#5E17EB" stop-opacity="0.3"/>
<stop offset="1" stop-color="#5E17EB"/>
</linearGradient>
<linearGradient id="paint4_linear_126_120" x1="1.13086" y1="117.984" x2="978.107" y2="117.984" gradientUnits="userSpaceOnUse">
<stop stop-color="#5E17EB" stop-opacity="0.3"/>
<stop offset="1" stop-color="#5E17EB"/>
</linearGradient>
<linearGradient id="paint5_linear_126_120" x1="1.13086" y1="117.984" x2="978.107" y2="117.984" gradientUnits="userSpaceOnUse">
<stop stop-color="#5E17EB" stop-opacity="0.3"/>
<stop offset="1" stop-color="#5E17EB"/>
</linearGradient>
<linearGradient id="paint6_linear_126_120" x1="1.13086" y1="117.984" x2="978.107" y2="117.984" gradientUnits="userSpaceOnUse">
<stop stop-color="#5E17EB" stop-opacity="0.3"/>
<stop offset="1" stop-color="#5E17EB"/>
</linearGradient>
<linearGradient id="paint7_linear_126_120" x1="1.13086" y1="117.984" x2="978.107" y2="117.984" gradientUnits="userSpaceOnUse">
<stop stop-color="#5E17EB" stop-opacity="0.3"/>
<stop offset="1" stop-color="#5E17EB"/>
</linearGradient>
<linearGradient id="paint8_linear_126_120" x1="1.13086" y1="117.984" x2="978.107" y2="117.984" gradientUnits="userSpaceOnUse">
<stop stop-color="#5E17EB" stop-opacity="0.3"/>
<stop offset="1" stop-color="#5E17EB"/>
</linearGradient>
<linearGradient id="paint9_linear_126_120" x1="1.13086" y1="117.984" x2="978.107" y2="117.984" gradientUnits="userSpaceOnUse">
<stop stop-color="#5E17EB" stop-opacity="0.3"/>
<stop offset="1" stop-color="#5E17EB"/>
</linearGradient>
<linearGradient id="paint10_linear_126_120" x1="1.13086" y1="117.984" x2="978.107" y2="117.984" gradientUnits="userSpaceOnUse">
<stop stop-color="#5E17EB" stop-opacity="0.3"/>
<stop offset="1" stop-color="#5E17EB"/>
</linearGradient>
<linearGradient id="paint11_linear_126_120" x1="1.13086" y1="117.984" x2="978.107" y2="117.984" gradientUnits="userSpaceOnUse">
<stop stop-color="#5E17EB" stop-opacity="0.3"/>
<stop offset="1" stop-color="#5E17EB"/>
</linearGradient>
<linearGradient id="paint12_linear_126_120" x1="1.13086" y1="117.984" x2="978.107" y2="117.984" gradientUnits="userSpaceOnUse">
<stop stop-color="#5E17EB" stop-opacity="0.3"/>
<stop offset="1" stop-color="#5E17EB"/>
</linearGradient>
<linearGradient id="paint13_linear_126_120" x1="1.13086" y1="117.984" x2="978.107" y2="117.984" gradientUnits="userSpaceOnUse">
<stop stop-color="#5E17EB" stop-opacity="0.3"/>
<stop offset="1" stop-color="#5E17EB"/>
</linearGradient>
</defs>
</svg>
